<?xml version="1.0" encoding="UTF-8"?><svg id="Layer_2" xmlns="http://www.w3.org/2000/svg" viewBox="0 0 255.39 158.82"><defs><style>.cls-1,.cls-2,.cls-3{fill:#fff;}.cls-2,.cls-3{font-size:32.59px;}.cls-4,.cls-5,.cls-6,.cls-7{font-family:BaiJamjuree-Light, 'Bai Jamjuree';}.cls-4,.cls-8{letter-spacing:-.02em;}.cls-5{letter-spacing:0em;}.cls-9{letter-spacing:0em;}.cls-10,.cls-3{font-family:BaiJamjuree-Bold, 'Bai Jamjuree';}.cls-6{letter-spacing:0em;}</style></defs><g id="Home"><g><g><text class="cls-3" transform="translate(0 140.53)"><tspan x="0" y="0">Cri</tspan><tspan class="cls-9" x="44.29" y="0">p</tspan><tspan class="cls-8" x="63.77" y="0">t</tspan><tspan x="76.61" y="0">o</tspan></text><text class="cls-2" transform="translate(95.09 140.53)"><tspan class="cls-7" x="0" y="0">P</tspan><tspan class="cls-4" x="20.11" y="0">r</tspan><tspan class="cls-5" x="30.93" y="0">og</tspan><tspan class="cls-4" x="67.88" y="0">r</tspan><tspan class="cls-6" x="78.7" y="0">am</tspan><tspan class="cls-10" x="123.74" y="0">.io</tspan></text></g><path class="cls-1" d="M131.33,15l-26.99,26.96h0c-1.05,1.06-1.41,2.68-.76,4.15,.19,.42,.47,.8,.79,1.12l31.98,31.98c-5.04,2.69-10.89,4.41-17.31,3.8-8.94-.85-15.6-5.81-19.62-9.83l-18.39-18.39c-10.27-10.27-11.08-26.94-1.34-37.72,9.22-10.2,23.8-10.9,34.83-2.42,1.74,1.33,4.22,1.36,5.82-.13,1.98-1.85,1.81-5.01-.32-6.67-14.37-11.23-33.55-10.47-46.1,2.58-13.58,14.13-12.93,36.69,.93,50.55l18.38,18.38c7.21,7.21,15.85,11.48,24.97,12.35,5.39,.51,10.41-.2,14.99-1.67,3.35-1.08,6.51-2.62,9.44-4.54l10.54,10.54c1.78,1.78,4.67,1.78,6.46,0h0c1.78-1.78,1.78-4.67,0-6.46l-9.92-9.92,23.14-23.14c11.45-11.45,11.45-30.08,0-41.53-11.45-11.45-30.08-11.45-41.53,0Zm36.04,36.55l-22.88,22.88-31.06-31.06,23.15-23.13c8.47-8.47,22.19-8.56,30.77-.28,8.85,8.54,8.72,22.89,.03,31.59Z"/></g></g></svg>