<?xml version="1.0" encoding="UTF-8"?><svg id="Layer_2" xmlns="http://www.w3.org/2000/svg" xmlns:xlink="http://www.w3.org/1999/xlink" viewBox="0 0 255.39 158.81"><defs><style>.cls-1{fill:url(#linear-gradient);}.cls-2{fill:#6a7575;}.cls-3,.cls-4{fill:#515151;font-size:32.59px;}.cls-5,.cls-6,.cls-7,.cls-8{font-family:BaiJamjuree-Light, 'Bai Jamjuree';}.cls-5,.cls-9{letter-spacing:-.02em;}.cls-6{letter-spacing:0em;}.cls-10{letter-spacing:0em;}.cls-11,.cls-4{font-family:BaiJamjuree-Bold, 'Bai Jamjuree';}.cls-7{letter-spacing:0em;}</style><linearGradient id="linear-gradient" x1="64.18" y1="48.72" x2="181.55" y2="48.72" gradientUnits="userSpaceOnUse"><stop offset="0" stop-color="#b09f61"/><stop offset=".15" stop-color="#b09f61"/><stop offset=".44" stop-color="#cec28c"/><stop offset=".66" stop-color="#efe497"/><stop offset=".77" stop-color="#d9cf9b"/><stop offset="1" stop-color="#b09f61"/></linearGradient></defs><g id="Home"><g><g><text class="cls-4" transform="translate(0 140.53)"><tspan x="0" y="0">Cri</tspan><tspan class="cls-10" x="44.29" y="0">p</tspan><tspan class="cls-9" x="63.77" y="0">t</tspan><tspan x="76.61" y="0">o</tspan></text><text class="cls-3" transform="translate(95.09 140.53)"><tspan class="cls-8" x="0" y="0">P</tspan><tspan class="cls-5" x="20.11" y="0">r</tspan><tspan class="cls-6" x="30.93" y="0">og</tspan><tspan class="cls-5" x="67.88" y="0">r</tspan><tspan class="cls-7" x="78.7" y="0">am</tspan><tspan class="cls-11" x="123.74" y="0">.io</tspan></text></g><path class="cls-2" d="M131.33,15l-26.99,26.96h0c-1.05,1.06-1.41,2.68-.76,4.15,.19,.42,.47,.8,.79,1.12l31.98,31.98c-5.04,2.69-10.89,4.41-17.31,3.8-8.94-.85-15.6-5.81-19.62-9.83l-18.39-18.39c-10.27-10.27-11.08-26.94-1.34-37.72,9.22-10.2,23.8-10.9,34.83-2.42,1.74,1.33,4.22,1.36,5.82-.13,1.98-1.85,1.81-5.01-.32-6.67-14.37-11.23-33.55-10.47-46.1,2.58-13.58,14.13-12.93,36.69,.93,50.55l18.38,18.38c7.21,7.21,15.85,11.48,24.97,12.35,5.39,.51,10.41-.2,14.99-1.67,3.35-1.08,6.51-2.62,9.44-4.54l10.54,10.54c1.78,1.78,4.67,1.78,6.46,0h0c1.78-1.78,1.78-4.67,0-6.46l-9.92-9.92,23.14-23.14c11.45-11.45,11.45-30.08,0-41.53-11.45-11.45-30.08-11.45-41.53,0Zm36.04,36.55l-22.88,22.88-31.06-31.06,23.15-23.13c8.47-8.47,22.19-8.56,30.77-.28,8.85,8.54,8.72,22.89,.03,31.59Z"/><g id="LogoHeader"><path class="cls-1" d="M131.42,15.01l-26.99,26.97h0c-1.05,1.06-1.41,2.68-.76,4.15,.19,.42,.47,.8,.79,1.12l31.99,31.99c-5.05,2.69-10.9,4.41-17.32,3.8-8.94-.85-15.6-5.81-19.62-9.83l-18.4-18.4c-10.28-10.28-11.09-26.95-1.34-37.73,9.22-10.2,23.8-10.9,34.84-2.42,1.74,1.33,4.22,1.36,5.83-.13,1.98-1.85,1.81-5.01-.32-6.67-14.38-11.24-33.56-10.48-46.11,2.58-13.58,14.13-12.93,36.7,.93,50.56l18.39,18.39c7.21,7.21,15.85,11.48,24.98,12.35,5.39,.51,10.41-.2,15-1.67,3.35-1.08,6.52-2.62,9.44-4.54l10.54,10.54c1.78,1.78,4.67,1.78,6.46,0h0c1.78-1.78,1.78-4.67,0-6.46l-9.92-9.92,23.14-23.14c11.45-11.45,11.45-30.09,0-41.54-11.45-11.45-30.09-11.45-41.54,0Zm36.05,36.56l-22.89,22.89-31.07-31.07,23.15-23.14c8.47-8.47,22.19-8.56,30.78-.28,8.85,8.54,8.72,22.9,.03,31.59Z"/></g></g></g></svg>