<?xml version="1.0" encoding="UTF-8"?><svg id="Layer_2" xmlns="http://www.w3.org/2000/svg" viewBox="0 0 117.34 97.38"><g id="Home"><path d="M67.22,15l-26.99,26.96h0c-1.05,1.06-1.41,2.68-.76,4.15,.19,.42,.47,.8,.79,1.12l31.98,31.98c-5.04,2.69-10.89,4.41-17.31,3.8-8.94-.85-15.6-5.81-19.62-9.83l-18.39-18.39c-10.27-10.27-11.08-26.94-1.34-37.72,9.22-10.2,23.8-10.9,34.83-2.42,1.74,1.33,4.22,1.36,5.82-.13,1.98-1.85,1.81-5.01-.32-6.67C41.55-3.37,22.37-2.61,9.83,10.44c-13.58,14.13-12.93,36.69,.93,50.55l18.38,18.38c7.21,7.21,15.85,11.48,24.97,12.35,5.39,.51,10.41-.2,14.99-1.67,3.35-1.08,6.51-2.62,9.44-4.54l10.54,10.54c1.78,1.78,4.67,1.78,6.46,0h0c1.78-1.78,1.78-4.67,0-6.46l-9.92-9.92,23.14-23.14c11.45-11.45,11.45-30.08,0-41.53-11.45-11.45-30.08-11.45-41.53,0Zm36.04,36.55l-22.88,22.88-31.06-31.06,23.15-23.13c8.47-8.47,22.19-8.56,30.77-.28,8.85,8.54,8.72,22.89,.03,31.59Z"/></g></svg>