<?xml version="1.0" encoding="UTF-8"?><svg id="Layer_2" xmlns="http://www.w3.org/2000/svg" xmlns:xlink="http://www.w3.org/1999/xlink" viewBox="0 0 117.37 97.41"><defs><style>.cls-1{fill:url(#linear-gradient);}</style><linearGradient id="linear-gradient" x1="0" y1="48.7" x2="117.37" y2="48.7" gradientUnits="userSpaceOnUse"><stop offset="0" stop-color="#b09f61"/><stop offset=".15" stop-color="#b09f61"/><stop offset=".44" stop-color="#cec28c"/><stop offset=".66" stop-color="#efe497"/><stop offset=".77" stop-color="#d9cf9b"/><stop offset="1" stop-color="#b09f61"/></linearGradient></defs><g id="Home"><g id="LogoHeader"><path class="cls-1" d="M67.24,15l-26.99,26.97h0c-1.05,1.06-1.41,2.68-.76,4.15,.19,.42,.47,.8,.79,1.12l31.99,31.99c-5.05,2.69-10.9,4.41-17.32,3.8-8.94-.85-15.6-5.81-19.62-9.83l-18.4-18.4c-10.28-10.28-11.09-26.95-1.34-37.73,9.22-10.2,23.8-10.9,34.84-2.42,1.74,1.33,4.22,1.36,5.83-.13,1.98-1.85,1.81-5.01-.32-6.67C41.57-3.37,22.38-2.61,9.83,10.44c-13.58,14.13-12.93,36.7,.93,50.56l18.39,18.39c7.21,7.21,15.85,11.48,24.98,12.35,5.39,.51,10.41-.2,15-1.67,3.35-1.08,6.52-2.62,9.44-4.54l10.54,10.54c1.78,1.78,4.67,1.78,6.46,0h0c1.78-1.78,1.78-4.67,0-6.46l-9.92-9.92,23.14-23.14c11.45-11.45,11.45-30.09,0-41.54-11.45-11.45-30.09-11.45-41.54,0Zm36.05,36.56l-22.89,22.89-31.07-31.07,23.15-23.14c8.47-8.47,22.19-8.56,30.78-.28,8.85,8.54,8.72,22.9,.03,31.59Z"/></g></g></svg>