<?xml version="1.0" encoding="UTF-8"?><svg id="Layer_2" xmlns="http://www.w3.org/2000/svg" xmlns:xlink="http://www.w3.org/1999/xlink" viewBox="0 0 478.82 298.13"><defs><style>.cls-1{fill:url(#linear-gradient);}.cls-2{letter-spacing:0em;}.cls-2,.cls-3{font-family:BaiJamjuree-Bold, 'Bai Jamjuree';}.cls-4,.cls-3{fill:#58595b;font-size:61.1px;}.cls-5{letter-spacing:-.02em;}.cls-5,.cls-6{font-family:BaiJamjuree-Light, 'Bai Jamjuree';}.cls-7{letter-spacing:0em;}.cls-8{fill:none;stroke:#86898a;stroke-miterlimit:10;stroke-width:.75px;}.cls-9{letter-spacing:-.02em;}</style><linearGradient id="linear-gradient" x1="120.19" y1="91.66" x2="340.19" y2="91.66" gradientUnits="userSpaceOnUse"><stop offset="0" stop-color="#bf9f55"/><stop offset=".15" stop-color="#bf9f55"/><stop offset=".44" stop-color="#d8c183"/><stop offset=".66" stop-color="#fae38a"/><stop offset=".77" stop-color="#e1ce93"/><stop offset="1" stop-color="#bf9f55"/></linearGradient></defs><g id="Billetera"><g><g><text class="cls-3" transform="translate(0 263.85)"><tspan x="0" y="0">Cri</tspan><tspan class="cls-7" x="83.03" y="0">p</tspan><tspan class="cls-9" x="119.57" y="0">t</tspan><tspan x="143.64" y="0">o</tspan></text><text class="cls-4" transform="translate(178.28 263.85)"><tspan class="cls-6" x="0" y="0">P</tspan><tspan class="cls-5" x="37.7" y="0">r</tspan><tspan class="cls-6" x="57.98" y="0">og</tspan><tspan class="cls-5" x="127.26" y="0">r</tspan><tspan class="cls-6" x="147.55" y="0">am</tspan><tspan class="cls-2" x="231.98" y="0">.io</tspan></text></g><path class="cls-1" d="M246.22,28.49l-50.59,50.55h0c-1.98,1.98-2.64,5.02-1.43,7.78,.35,.79,.87,1.5,1.48,2.11l59.96,59.96c-9.46,5.05-20.42,8.27-32.46,7.13-16.76-1.59-29.25-10.89-36.78-18.42l-34.48-34.48c-19.26-19.26-20.78-50.51-2.51-70.71,17.29-19.12,44.62-20.44,65.31-4.54,3.26,2.5,7.92,2.56,10.92-.24,3.71-3.46,3.39-9.39-.6-12.5-26.95-21.06-62.91-19.64-86.42,4.84-25.46,26.49-24.24,68.8,1.74,94.78l34.46,34.46c13.52,13.52,29.71,21.53,46.82,23.15,10.11,.96,19.52-.38,28.11-3.14,6.28-2.02,12.21-4.91,17.7-8.5l19.75,19.75c3.34,3.34,8.76,3.34,12.1,0h0c3.34-3.34,3.34-8.76,0-12.1l-18.59-18.59,43.38-43.38c21.47-21.47,21.47-56.4,0-77.87-21.47-21.47-56.4-21.47-77.87,0Zm67.56,68.53l-42.9,42.9-58.24-58.24,43.39-43.36c15.88-15.88,41.6-16.05,57.69-.52,16.59,16.01,16.35,42.92,.05,59.22Z"/><path class="cls-8" d="M246.22,28.49l-50.59,50.55h0c-1.98,1.98-2.64,5.02-1.43,7.78,.35,.79,.87,1.5,1.48,2.11l59.96,59.96c-9.46,5.05-20.42,8.27-32.46,7.13-16.76-1.59-29.25-10.89-36.78-18.42l-34.48-34.48c-19.26-19.26-20.78-50.51-2.51-70.71,17.29-19.12,44.62-20.44,65.31-4.54,3.26,2.5,7.92,2.56,10.92-.24,3.71-3.46,3.39-9.39-.6-12.5-26.95-21.06-62.91-19.64-86.42,4.84-25.46,26.49-24.24,68.8,1.74,94.78l34.46,34.46c13.52,13.52,29.71,21.53,46.82,23.15,10.11,.96,19.52-.38,28.11-3.14,6.28-2.02,12.21-4.91,17.7-8.5l19.75,19.75c3.34,3.34,8.76,3.34,12.1,0h0c3.34-3.34,3.34-8.76,0-12.1l-18.59-18.59,43.38-43.38c21.47-21.47,21.47-56.4,0-77.87-21.47-21.47-56.4-21.47-77.87,0Zm67.56,68.53l-42.9,42.9-58.24-58.24,43.39-43.36c15.88-15.88,41.6-16.05,57.69-.52,16.59,16.01,16.35,42.92,.05,59.22Z"/></g></g></svg>