<?xml version="1.0" encoding="UTF-8"?><svg id="Layer_2" xmlns="http://www.w3.org/2000/svg" viewBox="0 0 62.15 59.08"><defs><style>.cls-1{fill:#6a7575;}.cls-2{fill:#d08e3e;}.cls-3{fill:#d08b3d;}</style></defs><g id="Home"><g id="Logo_WAL"><path class="cls-2" d="M3.84,20.42h3.83s7.43,20.4,7.43,20.4h-5.19L2.46,20.43s1.06-.03,1.39-.01Z"/><circle class="cls-3" cx="60.25" cy="18.95" r="1.9"/><path class="cls-2" d="M15.2,37.67l2.98,6.36,1.68-4.71s5.33,5.62,7.68,7.38c3.3,2.48,7.6,4.06,11.18,4.55,4.19,.58,6.29,.22,9.82-2.14,2.65-1.78,4.51-6.63,4.51-6.63,0,0-1.47,3.74-4.95,5.56,0,0-3.58,1.79-6.87,1.14-2.79-.55-7.17-2.9-11.27-7.5-3.39-3.8-5.49-8.42-6.45-10.58-1.24-2.79-4.41-10.26-4.41-10.26l-3.88,16.82Z"/><polygon class="cls-2" points="25.49 31.34 28.53 37.07 34.82 20.41 29.6 20.41 25.49 31.34"/><path class="cls-2" d="M57.59,58.33v.04c0,.34-.27,.63-.61,.66-.07,0-.14,0-.2,0-.83,0-1.5-.28-2.02-.85-.52-.56-.77-1.31-.77-2.23,0-.85,.26-1.56,.78-2.11,.52-.56,1.18-.83,1.97-.83,.07,0,.14,0,.2,0,.36,.02,.65,.31,.65,.66v.02c0,.38-.33,.67-.71,.66-.02,0-.04,0-.06,0-.37,0-.68,.15-.93,.46-.25,.31-.37,.7-.37,1.18,0,.51,.12,.92,.37,1.22,.25,.3,.58,.45,.99,.45,0,0,0,0,.01,0,.38,0,.7,.29,.7,.66Z"/><path class="cls-2" d="M42.33,53.06h1.32c.07,0,.13,.06,.13,.13v4.37c0,.07,.06,.13,.13,.13h.99c.07,0,.13,.06,.13,.13v1.13c0,.07-.06,.13-.13,.13h-2.57c-.07,0-.13-.06-.13-.13v-5.76c0-.07,.06-.13,.13-.13Z"/><path class="cls-2" d="M48.47,53.01h1.32c.07,0,.13,.06,.13,.13v4.37c0,.07,.06,.13,.13,.13h.99c.07,0,.13,.06,.13,.13v1.13c0,.07-.06,.13-.13,.13h-2.57c-.07,0-.13-.06-.13-.13v-5.76c0-.07,.06-.13,.13-.13Z"/><g><g><path class="cls-1" d="M3.45,53.01h1.32c.07,0,.13,.06,.13,.13v4.37c0,.07,.06,.13,.13,.13h.99c.07,0,.13,.06,.13,.13v1.13c0,.07-.06,.13-.13,.13H3.45c-.07,0-.13-.06-.13-.13v-5.76c0-.07,.06-.13,.13-.13Z"/><path class="cls-1" d="M9.66,53.01h1.32c.07,0,.13,.06,.13,.13v5.76c0,.07-.06,.13-.13,.13h-1.32c-.07,0-.13-.06-.13-.13v-5.76c0-.07,.06-.13,.13-.13Z"/><path class="cls-1" d="M14.38,53.14c0-.07,.06-.13,.13-.13h1.47c.93,0,1.61,.16,2.02,.48,.41,.32,.61,.72,.61,1.21,0,.46-.23,.84-.68,1.15-.08,.06-.07,.18,.02,.23,.52,.25,.78,.66,.78,1.23,0,.52-.21,.94-.63,1.26-.42,.32-.97,.48-1.66,.48h-1.93c-.07,0-.13-.06-.13-.13v-5.76Zm1.58,1.16v1.03c0,.08,.06,.13,.14,.13,.61-.04,.92-.25,.92-.63,0-.24-.08-.41-.25-.51-.15-.08-.37-.13-.67-.15-.07,0-.14,.06-.14,.13Zm0,2.39v1.04c0,.07,.06,.13,.14,.13,.33-.02,.59-.07,.76-.16,.2-.1,.3-.27,.3-.5,0-.43-.36-.64-1.07-.64h0c-.07,0-.13,.06-.13,.13Z"/><path class="cls-1" d="M22.04,53.14c0-.07,.06-.13,.13-.13h1.71c.74,0,1.33,.17,1.76,.5,.43,.33,.65,.78,.65,1.35,0,.29-.08,.57-.24,.85-.14,.24-.34,.43-.6,.56-.06,.03-.09,.11-.06,.17l1.12,2.41c.04,.09-.02,.18-.12,.18h-1.38c-.05,0-.1-.03-.12-.08l-1.24-2.67h-.03v2.61c0,.07-.06,.13-.13,.13h-1.32c-.07,0-.13-.06-.13-.13v-5.76Zm1.58,1.17v1.16c0,.08,.06,.13,.14,.13,.61-.04,.91-.25,.91-.63,0-.28-.08-.48-.24-.6-.14-.1-.36-.17-.66-.19-.08,0-.14,.05-.14,.13Z"/><path class="cls-1" d="M30.12,53.01h2.93c.07,0,.13,.06,.13,.13v1.02c0,.07-.06,.13-.13,.13h-1.35c-.07,0-.13,.06-.13,.13v.85c0,.07,.06,.13,.13,.13h1.14c.07,0,.13,.06,.13,.13v.99c0,.07-.06,.13-.13,.13h-1.14c-.07,0-.13,.06-.13,.13v.84c0,.07,.06,.13,.13,.13h1.36c.07,0,.13,.06,.13,.13v1.03c0,.07-.06,.13-.13,.13h-2.94c-.07,0-.13-.06-.13-.13v-5.76c0-.07,.06-.13,.13-.13Z"/></g><path class="cls-1" d="M47.82,0c2.69-.05,4.07,.21,5.92,.98,5.45,2.27,2.89,11.61,2.07,17.18-.61,4.18-2.86,14.44-3.94,19.32-.24,.18-.56,.3-.82,.46-.04,.02-.08,.05-.12,.07,0-.24,.01-.47,.06-.68,.03-.14,.11-.59,.22-1.29,.72-4.49,2.84-19.03,3.02-23.04,.21-4.63-.68-7.22-1.75-8.54-.77-.96-2.18-1.76-4.66-1.67-9.82,.35-29.73,9.1-43.75,22.04l-1.08-2.96S24.91,1.87,47.82,0Z"/><path class="cls-1" d="M58.35,14.63s-6.72,3.12-7.66,4.08-.94,2.55-.94,2.55c0,0,4.8-1.61,8.6-6.63Z"/><path class="cls-1" d="M41.43,20.42h5.76l4.98,12.27,.44,1.42-.91,4.01-14.53-.25-1.41,2.95h-5.36l11.01-20.4Zm2.44,5.05l-4.75,8.67h9.29l-4.53-8.67Z"/><path class="cls-1" d="M51.74,40.74s.58-1.13,.78-2.47c.2-1.34,.43-4.13,.43-4.13l3.41,6.6h-4.62Z"/><path class="cls-1" d="M53.6,19.19s-2.8,18.13-3.38,19.56-1.29,2.45-2.81,3.57-3.39,1.65-4.24,1.7-3.48,0-3.48,0c0,0,2.54,.67,4.95,.22s4.2-1.87,5-2.54c.8-.67,1.74-2.52,1.96-3.19s4.35-21.22,4.35-21.22l-2.36,1.9Z"/><path class="cls-1" d="M3.34,30.35c-1.1-.53-1.92-1.4-1.06-3.11,.48-.97,1.79-2.41,1.79-2.41,0,0-.47-1.37-.85-2.35,0,0,0,0,0,0l-.13-.35C-1.6,27.31,.44,29.81,.44,29.81c0,0,0,0,0,0,.63,.91,1.7,1.62,3.22,1.76,3.08,.28,5.38-.71,5.38-.71,0,0-4.64,0-5.71-.51Z"/></g></g></g></svg>