<svg xmlns="http://www.w3.org/2000/svg" width="227.762" height="250.234" viewBox="0 0 227.762 250.234"><g transform="translate(0.011 -0.002)" opacity="0.7"><g transform="translate(-0.011 0.002)"><g transform="translate(78.04 5.032)"><path d="M102.9,39.094l55.5-32.14a3.055,3.055,0,0,1,3.029-.316c.72.4,3.306,1.866,4.025,2.262a2.962,2.962,0,0,1,1.281,2.744l1.012,150.789a9.338,9.338,0,0,1-4.231,7.363l-55.493,32.132a3.055,3.055,0,0,1-3.029.316c-.72-.4-3.322-1.858-4.049-2.278a2.969,2.969,0,0,1-1.265-2.728L98.67,46.449a9.338,9.338,0,0,1,4.231-7.363Z" transform="translate(-98.67 -6.365)" fill="#263238"/><g transform="translate(49.04 158.748)"><path d="M168.683,207.1l4.033,2.27.087,12.543a2.343,2.343,0,0,1-1.06,1.843l-1.866,1.083a2.4,2.4,0,0,1-2.143.016l-1.882-1.06a3.828,3.828,0,0,1-1.487-1.756L160.68,211.75l8-4.642Z" transform="translate(-160.68 -207.1)" fill="#263238"/><path d="M173.87,222.513a2.343,2.343,0,0,1-1.06,1.843l-1.866,1.083a.987.987,0,0,1-1.479-.538l-3.685-10.289,8-4.642.087,12.543Z" transform="translate(-161.747 -207.7)" fill="#37474f"/></g><g transform="translate(9.024 181.904)"><path d="M118.083,236.38l4.033,2.27.087,12.543a2.343,2.343,0,0,1-1.06,1.843l-1.866,1.083a2.4,2.4,0,0,1-2.143.016l-1.882-1.06a3.828,3.828,0,0,1-1.487-1.756L110.08,241.03l8-4.642Z" transform="translate(-110.08 -236.38)" fill="#263238"/><path d="M123.27,251.783a2.343,2.343,0,0,1-1.06,1.843l-1.866,1.083a.987.987,0,0,1-1.479-.538l-3.685-10.289,8-4.642.087,12.543Z" transform="translate(-111.147 -236.978)" fill="#37474f"/></g><path d="M163.144,9.924,107.651,42.055a9.329,9.329,0,0,0-4.231,7.363l1.012,150.789a2.978,2.978,0,0,0,1.273,2.736,3.056,3.056,0,0,0,3.029-.316L164.227,170.5a9.329,9.329,0,0,0,4.231-7.363L167.446,12.344A2.962,2.962,0,0,0,166.165,9.6a3.05,3.05,0,0,0-3.013.324Z" transform="translate(-99.663 -6.986)" fill="#37474f"/></g><g transform="translate(79.069 163.678)"><path d="M244.707,256.9l-60.025,34.8L100,244.092l4-2.317,60.025-34.8,80.65,45.347Z" transform="translate(-99.976 -206.97)" fill="#455a64"/><path d="M184.677,300.313l-.032-4.587L99.97,248.11l.024,4.587Z" transform="translate(-99.97 -215.575)" fill="#263238"/></g><g transform="translate(127.895 189.886)"><path d="M201.546,291.76c-11.38-16.789-10.953-46.612-10.02-51.65,0,0-4.539,31.547-10.336,40.586" transform="translate(-165.785 -240.11)" fill="none" stroke="#fafafa" stroke-miterlimit="10" stroke-width="0.74"/><path d="M185.522,254.61c-1.874,9.2-23.812,15.833-23.812,15.833" transform="translate(-161.71 -243.143)" fill="none" stroke="#fafafa" stroke-miterlimit="10" stroke-width="0.74"/><path d="M192.743,265.447a2.327,2.327,0,0,0-4.255.751s-.38-4.46-2.918-3.179" transform="translate(-166.701 -244.853)" fill="none" stroke="#fafafa" stroke-miterlimit="10" stroke-width="0.74"/><path d="M192.023,272.918c-1.147-2.388-5.322-3.677-7.118,2.017,0,0-.348-10.17-7.125-7.07" transform="translate(-165.071 -245.792)" fill="none" stroke="#fafafa" stroke-miterlimit="10" stroke-width="0.74"/><path d="M191.972,282.764c-2.412-4.524-8.968-6.3-10.621-2.1-.071-5.172-6.1-11.649-13.381-8.462" transform="translate(-163.019 -246.646)" fill="none" stroke="#fafafa" stroke-miterlimit="10" stroke-width="0.74"/><path d="M199.362,296.6c-2.831-5.014-9.759-14.045-15.722-10.352" transform="translate(-166.297 -249.58)" fill="none" stroke="#fafafa" stroke-miterlimit="10" stroke-width="0.74"/></g><g transform="translate(86.795 115.476)"><path d="M109.74,180.825l.024,4.587L186.38,228.5l60.025-34.8-.024-4.587L169.757,146.02Z" transform="translate(-109.74 -146.02)" fill="#263238"/><path d="M109.74,180.825l76.608,43.085,60.032-34.8L169.757,146.02Z" transform="translate(-109.74 -146.02)" fill="#455a64"/></g><g transform="translate(86.455 65.005)"><path d="M109.31,117l.024,4.587,76.624,43.085,60.017-34.8-.024-4.587L169.327,82.2Z" transform="translate(-109.31 -82.2)" fill="#263238"/><path d="M109.31,117l76.616,43.085,60.025-34.8L169.327,82.2Z" transform="translate(-109.31 -82.2)" fill="#455a64"/></g><g transform="translate(78.025 44.807)"><path d="M204.879,96.366l55.493-32.132a3.055,3.055,0,0,1,3.029-.316c.72.4,3.306,1.866,4.025,2.262a2.962,2.962,0,0,1,1.281,2.744l1.012,150.789a9.338,9.338,0,0,1-4.231,7.363L210,259.207a3.055,3.055,0,0,1-3.029.316c-.72-.4-3.322-1.858-4.049-2.278a2.969,2.969,0,0,1-1.265-2.728L200.64,103.729a9.338,9.338,0,0,1,4.231-7.363Z" transform="translate(-119.983 -58.121)" fill="#263238"/><path d="M204.778,130.046l-4.033-2.27L200.65,114l4.049,2.278Z" transform="translate(-119.985 -68.653)" opacity="0.2"/><path d="M102.786,72.706l-4.041-2.27L98.65,56.66l4.057,2.278Z" transform="translate(-98.65 -56.66)" opacity="0.2"/><g transform="translate(129.705 164.273)"><path d="M270.663,264.38l4.033,2.27.087,12.543a2.343,2.343,0,0,1-1.06,1.843l-1.866,1.083a2.4,2.4,0,0,1-2.143.016l-1.882-1.06a3.828,3.828,0,0,1-1.487-1.756L262.66,269.03l8-4.642Z" transform="translate(-262.66 -264.38)" fill="#263238"/><path d="M275.85,279.783a2.343,2.343,0,0,1-1.06,1.843l-1.866,1.083a.987.987,0,0,1-1.479-.538l-3.685-10.289,8-4.642.087,12.543Z" transform="translate(-263.727 -264.978)" fill="#37474f"/></g><g transform="translate(89.689 187.428)"><path d="M220.063,293.66l4.033,2.27.087,12.543a2.343,2.343,0,0,1-1.06,1.843l-1.866,1.083a2.4,2.4,0,0,1-2.143.016l-1.882-1.06a3.828,3.828,0,0,1-1.487-1.756L212.06,298.31l8-4.642Z" transform="translate(-212.06 -293.66)" fill="#263238"/><path d="M225.25,309.063a2.343,2.343,0,0,1-1.06,1.843l-1.866,1.083a.987.987,0,0,1-1.479-.538l-3.685-10.289,8-4.642.087,12.543Z" transform="translate(-213.127 -294.258)" fill="#37474f"/></g><path d="M209.989,99.245l55.493-32.132a3.05,3.05,0,0,1,3.013-.324,2.962,2.962,0,0,1,1.281,2.744l.087,13.46-64.026,37.13-.087-13.507a9.338,9.338,0,0,1,4.231-7.363Z" transform="translate(-121.051 -58.723)" opacity="0.2"/><path d="M265.484,66.511,209.991,98.643a9.329,9.329,0,0,0-4.231,7.363l1.012,150.789c.008,1.352.032,4.935.032,4.935s3.092-1.835,4.263-2.523l55.493-32.132a9.329,9.329,0,0,0,4.231-7.363L269.778,68.923c-.008-1.36-.49-5.243-.49-5.243a47.27,47.27,0,0,1-3.812,2.831Z" transform="translate(-121.053 -58.128)" fill="#37474f"/></g><g transform="translate(90.164 53.91)"><path d="M158.35,93.113,114,68.17l.308,45.876" transform="translate(-114 -68.17)" fill="none" stroke="#fafafa" stroke-linecap="round" stroke-linejoin="round" stroke-width="0.74"/><path d="M122.264,102.524,114,68.17l16.252,27.418" transform="translate(-114 -68.17)" fill="none" stroke="#fafafa" stroke-linecap="round" stroke-linejoin="round" stroke-width="0.74"/><line x2="24.255" y2="22.776" fill="none" stroke="#fafafa" stroke-linecap="round" stroke-linejoin="round" stroke-width="0.74"/><path d="M114.32,109.562c-.055-6.429,7.371-6.841,7.371-6.841a7.461,7.461,0,0,1,2.388-7.118c2.38-2.04,4.01-.941,4.5-.111,0,0-.546-5.908,4.626-6.516,0,0-3.472-6.232-.047-7.236" transform="translate(-114.067 -71.008)" fill="none" stroke="#fafafa" stroke-linecap="round" stroke-linejoin="round" stroke-width="0.74"/><path d="M114.24,98.6c.237-3.29,2.76-7.5,5.386-5.5,0,0-.735-7.181,4.445-6.271,0,0-2.475-6.643,2.626-5.03,0,0-3.7-4.563-.862-5.251" transform="translate(-114.05 -69.923)" fill="none" stroke="#fafafa" stroke-linecap="round" stroke-linejoin="round" stroke-width="0.74"/></g><g transform="translate(94.332 133.254)"><path d="M119.27,187.1s4.571-11.783,5.915-18.6c0,0,44.358,15.524,52.179,18.015,0,0-4.618,23.251-4.239,30.1,0,0-49.823-28.85-53.856-29.506Z" transform="translate(-119.27 -168.5)" fill="#f6f6e8"/><g transform="translate(16.481 17.343)"><path d="M140.11,202.52Z" transform="translate(-140.11 -192.959)" fill="#f6eddd"/><path d="M182.908,191.094c-.506-.158-1.218-.388-2.119-.664,0,0-10.479,21.3-16.489,20.4-3.7-.554-13.073-5.4-18.529-8.351,14.7,8.193,32.891,18.727,32.891,18.727-.372-6.849,4.239-30.1,4.239-30.1Z" transform="translate(-141.294 -190.43)" fill="#f6eddd"/></g><g transform="translate(9.854 9.735)"><path d="M137.408,183.784l-2.025-.886-.38,1.281,1.811.815-.388,1.479-1.851-.854-.451,1.518,2.309,1.091-.435,1.7-4.271-2.08,2.325-7.038,3.891,1.661Z" transform="translate(-131.73 -180.81)" fill="#e42956"/><path d="M145.533,194.495l-2.191-1.068.427-3.148a29.919,29.919,0,0,1,.569-3.219l-1.692,5.053-1.993-.957.229-5.615a27.738,27.738,0,0,1-.538,3.14l-.68,2.958-2.025-.989,2.3-7.331,2.286.973-.158,5.22,1.566-4.618,2.42,1.036-.514,8.565Z" transform="translate(-132.966 -181.335)" fill="#e42956"/><path d="M154.923,192.394c-.032,2.1-1.36,2.61-3.2,1.748l-.751-.348-.221,2.958-2.317-1.131.925-8.43,2.5,1.068c1.914.815,3.1,2.238,3.068,4.136Zm-2.278-1.012a1.428,1.428,0,0,0-.933-1.518l-.435-.19-.174,2.278.514.229C152.242,192.465,152.6,192.212,152.645,191.381Z" transform="translate(-135.223 -182.144)" fill="#e42956"/><path d="M162.595,194.645l-1.827-.8.348,7.75-2.586-1.257-.079-7.505-1.851-.815.032-1.819,6.066,2.594-.095,1.858Z" transform="translate(-136.932 -182.774)" fill="#e42956"/><path d="M169.933,201.81l.609,4.278-2.855-1.392-.451-4.12-3.227-7.236,2.594,1.107,1.708,4.421.751-3.369,2.681,1.147-1.819,5.164Z" transform="translate(-138.482 -183.431)" fill="#e42956"/></g></g><g transform="translate(82.113 51.664)"><path d="M103.82,65.33l28.344,34.227,48.383,27.213.127-21.368Z" transform="translate(-103.82 -65.33)" opacity="0.1"/><path d="M109.34,132.01l24.318,31.958,48.383,27.221-.119-18.363Z" transform="translate(-104.975 -79.277)" opacity="0.1"/><path d="M109.77,195.83l24.318,31.958L182.472,255l-.119-18.355Z" transform="translate(-105.065 -92.626)" opacity="0.1"/></g><path d="M13.837,86.95,71.995,53.276a3.173,3.173,0,0,1,3.171-.332c.759.427,3.464,1.953,4.223,2.373a3.1,3.1,0,0,1,1.344,2.871l1.06,155.059a9.8,9.8,0,0,1-4.437,7.719L19.2,254.639a3.173,3.173,0,0,1-3.171.332l-4.239-2.38a3.1,3.1,0,0,1-1.329-2.863L9.4,94.668A9.8,9.8,0,0,1,13.837,86.95Z" transform="translate(-1.957 -11.015)" fill="#263238"/><path d="M16.918,124.016l-6.967-2.831L9.84,104.972a.711.711,0,0,1,.981-.656l4.887,1.985a1.806,1.806,0,0,1,1.123,1.645l.087,16.078Z" transform="translate(-2.049 -21.81)" opacity="0.2"/><path d="M78.414,62.064,22.921,94.2a9.329,9.329,0,0,0-4.231,7.363L19.7,252.347v.514a2.561,2.561,0,0,0,3.859,2.159c.166-.095.308-.182.435-.253l55.493-32.132a9.329,9.329,0,0,0,4.231-7.363L82.708,64.484a2.962,2.962,0,0,0-1.281-2.744,3.05,3.05,0,0,0-3.013.324Z" transform="translate(-3.9 -12.86)" fill="#37474f"/><path d="M22.921,94.2,78.414,62.064a3.05,3.05,0,0,1,3.013-.324,2.962,2.962,0,0,1,1.281,2.744l.087,13.46L18.777,115.066l-.087-13.507A9.338,9.338,0,0,1,22.921,94.2Z" transform="translate(-3.9 -12.86)" opacity="0.2"/><g transform="translate(68.462)"><path d="M86.57,38a2.951,2.951,0,0,1,1.748-2.46l59.495-34.5a9.548,9.548,0,0,1,8.565-.055l86.2,45.908a2.96,2.96,0,0,1,1.779,2.436c0,.822.016,3.764.032,4.587a2.951,2.951,0,0,1-1.748,2.46l-59.495,34.5a9.548,9.548,0,0,1-8.565.055l-86.2-45.908A2.96,2.96,0,0,1,86.6,42.587C86.6,41.765,86.586,38.823,86.57,38Z" transform="translate(-86.56 -0.002)" fill="#37474f"/><path d="M183.113,86.281l59.495-34.5c2.357-1.368,2.341-3.559-.032-4.887L156.375.989a9.548,9.548,0,0,0-8.565.055l-59.495,34.5c-2.357,1.368-2.341,3.559.032,4.887l86.2,45.908a9.548,9.548,0,0,0,8.565-.055Z" transform="translate(-86.557 -0.002)" fill="#455a64"/></g><g transform="translate(0 102.89)"><path d="M3.549,130.133c2.594-.34,5.251,2.515,5.931,6.35.672,3.8-.846,7.118-3.4,7.45S.891,141.481.172,137.7c-.728-3.82.783-7.22,3.369-7.568Z" transform="translate(0.011 -130.105)" fill="#98c7e0"/><path d="M10.595,136.488c-.625-3.511-2.9-6.192-5.275-6.358h0l5.821.585h0c1.843.3,3.559,2.436,4.033,5.18.467,2.728-.443,5.164-2.088,5.908h0L7.819,143.8h0c2.167-.751,3.393-3.828,2.776-7.3Z" transform="translate(-1.104 -130.11)" fill="#c2eaff"/></g><g transform="translate(0.435 129.13)"><path d="M4.1,163.313c2.594-.34,5.251,2.515,5.931,6.35.672,3.8-.846,7.118-3.4,7.45s-5.188-2.452-5.908-6.232c-.728-3.82.783-7.22,3.369-7.568Z" transform="translate(-0.539 -163.285)" fill="#98c7e0"/><path d="M11.145,169.668c-.625-3.511-2.9-6.192-5.275-6.358h0l5.821.585h0c1.843.3,3.559,2.436,4.033,5.18.467,2.728-.443,5.164-2.088,5.908h0l-5.267,1.993h0c2.167-.751,3.393-3.828,2.776-7.3Z" transform="translate(-1.654 -163.29)" fill="#c2eaff"/></g><g transform="translate(0.435 157.007)"><path d="M4.1,198.563c2.594-.34,5.251,2.515,5.931,6.35.672,3.8-.846,7.118-3.4,7.45s-5.188-2.452-5.908-6.232c-.728-3.82.783-7.22,3.369-7.568Z" transform="translate(-0.539 -198.535)" fill="#98c7e0"/><path d="M11.145,204.918c-.625-3.511-2.9-6.192-5.275-6.358h0l5.821.585h0c1.843.3,3.559,2.436,4.033,5.18.467,2.728-.443,5.164-2.088,5.908h0l-5.267,1.993h0c2.167-.751,3.393-3.828,2.776-7.3Z" transform="translate(-1.654 -198.54)" fill="#c2eaff"/></g><g transform="translate(0.435 186.735)"><path d="M4.1,236.153c2.594-.34,5.251,2.515,5.931,6.35.672,3.8-.846,7.118-3.4,7.45S1.441,247.5.722,243.721c-.728-3.82.783-7.22,3.369-7.568Z" transform="translate(-0.539 -236.125)" fill="#98c7e0"/><path d="M11.145,242.508c-.625-3.511-2.9-6.192-5.275-6.358h0l5.821.585h0c1.843.3,3.559,2.436,4.033,5.18.467,2.728-.443,5.164-2.088,5.908h0l-5.267,1.993h0c2.167-.751,3.393-3.828,2.776-7.3Z" transform="translate(-1.654 -236.13)" fill="#c2eaff"/></g><g transform="translate(0.435 213.497)"><path d="M4.1,269.993c2.594-.34,5.251,2.515,5.931,6.35.672,3.8-.846,7.118-3.4,7.45s-5.188-2.452-5.908-6.232c-.728-3.82.783-7.22,3.369-7.568Z" transform="translate(-0.539 -269.965)" fill="#98c7e0"/><path d="M11.145,276.348c-.625-3.511-2.9-6.192-5.275-6.358h0l5.821.585h0c1.843.3,3.559,2.436,4.033,5.18.467,2.728-.443,5.164-2.088,5.908h0l-5.267,1.993h0c2.167-.751,3.393-3.828,2.776-7.3Z" transform="translate(-1.654 -269.97)" fill="#c2eaff"/></g><g transform="translate(26.384 115.329)"><path d="M124.018,204.955c-2.57,7.181-8.715,13-15.659,16.094A29.278,29.278,0,0,1,98.1,223.579a20.791,20.791,0,0,1-9.8-1.455c-5.117-2.4-7.323-7.964-6.944-13.318a17.6,17.6,0,0,1,2.365-7.711A13.6,13.6,0,0,1,90,195.56a8.415,8.415,0,0,1,4.6-.957,2.5,2.5,0,0,1,2.064,2.665,7.209,7.209,0,0,1-2.032,4.223,14.721,14.721,0,0,1-4.4,3.448,30.959,30.959,0,0,1-11.4,3.361,21.5,21.5,0,0,1-9.885-1.922,18.406,18.406,0,0,1-8.154-6.184,16.4,16.4,0,0,1-2.317-10.289,23.306,23.306,0,0,1,3.116-10.241,11.352,11.352,0,0,1,3.021-3.575c.957-.68,2.452-1.376,3.654-.783,1.344.656,1.4,2.546.989,3.772A9.244,9.244,0,0,1,65.6,183.42a21.4,21.4,0,0,1-5.639,2.7,8.894,8.894,0,0,1-4.484.261c-6.216-1.352-8.873-8.952-8.936-14.52a15.644,15.644,0,0,1,.593-4.444c.134-.49.862-.032.751.364a16.257,16.257,0,0,0,.245,8.549,14.13,14.13,0,0,0,4.223,7.11A7.674,7.674,0,0,0,60,184.7a20.8,20.8,0,0,0,5.251-2.626c1.3-.949,2.871-2.444,3.084-4.12a1.429,1.429,0,0,0-.554-1.439,2.2,2.2,0,0,0-1.9.229,8.256,8.256,0,0,0-2.728,2.728,20.654,20.654,0,0,0-3.385,8.921,16.718,16.718,0,0,0,1.131,9.664,14.673,14.673,0,0,0,6.627,6.216,22.885,22.885,0,0,0,9.166,2.689,24.572,24.572,0,0,0,9.577-1.779c3.361-1.21,6.675-2.9,8.573-6.05.467-.775,1.265-2.436.095-3.013-1.147-.569-2.863.087-3.938.514a12.652,12.652,0,0,0-5.963,4.705,15.955,15.955,0,0,0-2.507,6.872c-.569,4.642.909,9.767,5.188,12.266a17.226,17.226,0,0,0,8.407,1.906,27.908,27.908,0,0,0,9.332-1.511A31.558,31.558,0,0,0,121.084,208.9c.925-1.313,1.748-2.7,2.546-4.1.087-.142.467,0,.4.166h0Z" transform="translate(-36.11 -150.304)" fill="#e0e0e0"/><path d="M42.152,152.806c.514-3.994,4.666-8.691,6.548-6.343s-2.8,6.69-2.8,6.69,4.666.419,4.848,2.175-4.611,3.092-7.07.933a5.145,5.145,0,0,1-1.605,4.705c-2.222,2-3.369-.807-2.4-4.065,0,0-8.312.83-5.868-3.669,1.21-2.222,4.223-2.515,8.359-.427Z" transform="translate(-33.351 -145.834)" fill="#27debf"/><path d="M42.152,152.806c.514-3.994,4.666-8.691,6.548-6.343s-2.8,6.69-2.8,6.69,4.666.419,4.848,2.175-4.611,3.092-7.07.933a5.145,5.145,0,0,1-1.605,4.705c-2.222,2-3.369-.807-2.4-4.065,0,0-8.312.83-5.868-3.669,1.21-2.222,4.223-2.515,8.359-.427Z" transform="translate(-33.351 -145.834)" fill="#fff" opacity="0.65"/><path d="M45.226,158.241a6.144,6.144,0,0,1-.459-.8c-.2-.4-.38-.8-.561-1.194a9.156,9.156,0,0,1-.451-1.17c-.071-.229-.134-.467-.19-.7a1.757,1.757,0,0,1,.047-1.028.507.507,0,0,1,.846-.237,2.5,2.5,0,0,1,.443,1.147c.055.2.119.388.19.585.142.4.324.775.5,1.155s.34.767.53,1.147A6.5,6.5,0,0,1,46.808,159a.194.194,0,0,1-.063.166c-.482.332-1.265-.577-1.5-.917Z" transform="translate(-35.476 -147.323)" fill="#455a64"/></g></g></g></svg>