<svg xmlns="http://www.w3.org/2000/svg" xmlns:xlink="http://www.w3.org/1999/xlink" width="388.499" height="245.995" viewBox="0 0 388.499 245.995"><defs><linearGradient id="a" x1="-1.07" y1="-1296.416" x2="0.509" y2="5.13" gradientUnits="objectBoundingBox"><stop offset="0.08" stop-color="#4c659e"/><stop offset="0.09" stop-color="#4a629a"/><stop offset="0.16" stop-color="#3e5280"/><stop offset="0.23" stop-color="#35456b"/><stop offset="0.32" stop-color="#2e3c5d"/><stop offset="0.42" stop-color="#2b3754"/><stop offset="0.58" stop-color="#2a3652"/><stop offset="1" stop-color="#4c659e"/></linearGradient><linearGradient id="b" x1="-0.03" y1="-552.806" x2="0.503" y2="1.593" xlink:href="#a"/><linearGradient id="c" x1="-0.75" y1="-1759.332" x2="0.5" y2="1.588" xlink:href="#a"/><linearGradient id="d" x1="-0.4" y1="-521.151" x2="0.5" y2="4.07" xlink:href="#a"/><linearGradient id="e" x1="-0.289" y1="-551.195" x2="0.491" y2="3.185" xlink:href="#a"/><linearGradient id="f" x1="-0.585" y1="-447.77" x2="0.512" y2="5.818" xlink:href="#a"/><linearGradient id="g" x1="-0.511" y1="-493.912" x2="0.5" y2="5.033" xlink:href="#a"/><linearGradient id="h" x1="0.222" y1="-21.075" x2="0.511" y2="1.503" xlink:href="#a"/><linearGradient id="i" x1="0.49" y1="-0.01" x2="0.596" y2="1.084" xlink:href="#a"/><linearGradient id="j" x1="-0.726" y1="-433.416" x2="0.507" y2="6.838" xlink:href="#a"/><linearGradient id="k" x1="-0.703" y1="-362.717" x2="0.5" y2="6.889" xlink:href="#a"/><linearGradient id="l" x1="-5.856" y1="-9977.072" x2="-0.643" y2="-1781.739" xlink:href="#a"/><linearGradient id="m" x1="-0.783" y1="-328.95" x2="0.522" y2="7.416" xlink:href="#a"/><linearGradient id="n" x1="0.497" y1="-0.428" x2="0.55" y2="17.966" gradientUnits="objectBoundingBox"><stop offset="0.02" stop-color="#12151c"/><stop offset="0.03" stop-color="#131720"/><stop offset="0.04" stop-color="#191f2d"/><stop offset="0.05" stop-color="#232d43"/><stop offset="0.06" stop-color="#313f61"/><stop offset="0.08" stop-color="#425788"/><stop offset="0.08" stop-color="#4c659e"/><stop offset="0.09" stop-color="#435888"/><stop offset="0.1" stop-color="#39496e"/><stop offset="0.11" stop-color="#313d59"/><stop offset="0.12" stop-color="#2c354b"/><stop offset="0.14" stop-color="#283042"/><stop offset="0.16" stop-color="#282f40"/><stop offset="0.56" stop-color="#262d3d"/><stop offset="0.73" stop-color="#222836"/><stop offset="0.86" stop-color="#1a1f2a"/><stop offset="0.94" stop-color="#12151c"/><stop offset="1" stop-color="#12151c"/></linearGradient><linearGradient id="o" x1="0.498" y1="-0.002" x2="0.55" y2="17.957" xlink:href="#a"/><linearGradient id="p" x1="0.058" y1="-0.105" x2="0.942" y2="1.09" xlink:href="#n"/><linearGradient id="q" x1="0.077" y1="-0.077" x2="0.942" y2="1.09" xlink:href="#a"/><linearGradient id="r" x1="0.438" y1="-14.405" x2="0.501" y2="1.012" xlink:href="#n"/><linearGradient id="s" x1="0.439" y1="-14.047" x2="0.501" y2="1.004" xlink:href="#a"/><linearGradient id="t" x1="-4.316" y1="-7659.114" x2="0.316" y2="-281.44" xlink:href="#n"/><linearGradient id="u" x1="-4.211" y1="-7481.402" x2="0.421" y2="-103.728" xlink:href="#a"/><linearGradient id="v" x1="0.49" y1="-5.886" x2="0.604" y2="69.827" xlink:href="#n"/><linearGradient id="w" x1="0.499" y1="-0.002" x2="0.5" y2="1.002" gradientUnits="objectBoundingBox"><stop offset="0" stop-color="#12151c"/><stop offset="0.13" stop-color="#12151c"/><stop offset="0.49" stop-color="#12151c"/></linearGradient><linearGradient id="x" x1="-6.992" y1="-15.673" x2="84.918" y2="173.611" xlink:href="#n"/><linearGradient id="y" x1="0.001" y1="-1.068" x2="1" y2="1" xlink:href="#w"/><linearGradient id="z" x1="0.415" y1="-7.26" x2="1.394" y2="86.514" xlink:href="#n"/><linearGradient id="aa" x1="0.436" y1="-5.086" x2="1.394" y2="86.468" xlink:href="#a"/><linearGradient id="ab" x1="0.489" y1="-0.024" x2="0.5" y2="1" xlink:href="#w"/><linearGradient id="ac" x1="-0.419" y1="-87.737" x2="0.57" y2="7.198" xlink:href="#n"/><linearGradient id="ad" x1="-0.398" y1="-85.536" x2="0.57" y2="7.149" xlink:href="#a"/><linearGradient id="ae" x1="0.495" y1="-0.025" x2="0.505" y2="1" xlink:href="#w"/><linearGradient id="af" x1="-2.3" y1="-1153.599" x2="6.9" y2="2679.439" xlink:href="#n"/><linearGradient id="ag" x1="-1.333" y1="-2301.447" x2="4.8" y2="5362.627" xlink:href="#n"/><linearGradient id="ah" x1="-0.667" y1="-4603.772" x2="1.708" y2="4844.313" xlink:href="#n"/><linearGradient id="ai" x1="-1.833" y1="-1536.229" x2="5.833" y2="3574.979" xlink:href="#n"/><linearGradient id="aj" x1="0.314" y1="-2.485" x2="0.84" y2="5.794" xlink:href="#n"/><linearGradient id="ak" x1="-3.001" y1="-1536.896" x2="8.501" y2="3573.146" xlink:href="#n"/><linearGradient id="al" x1="-24.879" y1="0.5" x2="7.876" y2="0.5" gradientUnits="objectBoundingBox"><stop offset="0.06" stop-color="#293040"/><stop offset="1" stop-color="#1a1e28"/></linearGradient><linearGradient id="am" x1="0.244" y1="-2.516" x2="0.947" y2="5.837" xlink:href="#n"/><linearGradient id="an" x1="-1" y1="0.5" x2="1" y2="0.5" xlink:href="#al"/><linearGradient id="ao" x1="-2.556" y1="-2303.447" x2="7.667" y2="5363.627" xlink:href="#n"/><linearGradient id="ap" x1="-19.779" y1="0.5" x2="9.334" y2="0.5" xlink:href="#al"/><linearGradient id="aq" x1="-2.876" y1="-4603.773" x2="4.001" y2="4667.783" xlink:href="#n"/><linearGradient id="ar" x1="-19.378" y1="0.5" x2="13.377" y2="0.5" xlink:href="#al"/><linearGradient id="as" x1="0.346" y1="-2.485" x2="0.77" y2="5.794" xlink:href="#n"/><linearGradient id="at" x1="-0.005" y1="0.5" x2="1.203" y2="0.5" xlink:href="#al"/><linearGradient id="au" x1="0.492" y1="-9.662" x2="0.77" y2="404.716" xlink:href="#n"/><linearGradient id="av" x1="0.5" y1="0" x2="3.461" y2="8587.342" xlink:href="#a"/><linearGradient id="aw" x1="0.259" y1="0.064" x2="0.741" y2="0.941" gradientUnits="objectBoundingBox"><stop offset="0" stop-color="#183e8c"/><stop offset="0.05" stop-color="#163a84"/><stop offset="0.22" stop-color="#122f6c"/><stop offset="0.37" stop-color="#0f295d"/><stop offset="0.51" stop-color="#0f2759"/><stop offset="0.57" stop-color="#112b61"/><stop offset="0.67" stop-color="#183779"/><stop offset="0.8" stop-color="#234ba1"/><stop offset="0.95" stop-color="#3266d6"/><stop offset="1" stop-color="#3871eb"/></linearGradient><linearGradient id="ax" x1="0.196" y1="-0.045" x2="0.804" y2="1.051" xlink:href="#aw"/><linearGradient id="ay" x1="-362.125" y1="-280.353" x2="-361.169" y2="-280.353" gradientUnits="objectBoundingBox"><stop offset="0" stop-color="#0e2452"/><stop offset="0.91" stop-color="#0f275a"/><stop offset="1" stop-color="#10285c"/></linearGradient><linearGradient id="az" x1="-0.02" y1="-0.468" x2="2.2" y2="3.638" xlink:href="#aw"/><linearGradient id="ba" x1="-1333.14" y1="-1049.406" x2="-1329.62" y2="-1049.406" xlink:href="#ay"/><linearGradient id="bb" x1="0.5" y1="-1.34" x2="0.5" y2="1.255" gradientUnits="objectBoundingBox"><stop offset="0.32" stop-color="#fff"/><stop offset="0.69" stop-color="#f5f0ed"/><stop offset="1" stop-color="#f0e9e4"/></linearGradient><linearGradient id="bc" x1="-2187.072" y1="-9.716" x2="-2186.796" y2="406.919" xlink:href="#n"/><linearGradient id="bd" x1="-52023.305" y1="-10031.408" x2="-52018.02" y2="-1792.073" xlink:href="#a"/><linearGradient id="be" x1="-9953.047" y1="-429.448" x2="-9951.801" y2="6.783" xlink:href="#a"/><linearGradient id="bf" x1="-10525.181" y1="-330.759" x2="-10523.876" y2="7.438" xlink:href="#a"/><linearGradient id="bg" x1="-9974.705" y1="-1768.919" x2="-9973.472" y2="1.588" xlink:href="#a"/><linearGradient id="bh" x1="-12765.007" y1="-1303.59" x2="-12763.428" y2="5.087" xlink:href="#a"/><linearGradient id="bi" x1="-4281.292" y1="-555.806" x2="-4280.757" y2="1.593" xlink:href="#a"/><linearGradient id="bj" x1="-6325.22" y1="-544.158" x2="-6324.428" y2="3.146" xlink:href="#a"/><linearGradient id="bk" x1="-9816.246" y1="-364.705" x2="-9815.017" y2="6.914" xlink:href="#a"/><linearGradient id="bl" x1="-851.009" y1="-0.01" x2="-850.904" y2="1.084" xlink:href="#a"/><linearGradient id="bm" x1="-28028.938" y1="0" x2="-28025.975" y2="8634" xlink:href="#a"/><linearGradient id="bn" x1="-2318.591" y1="-21.079" x2="-2318.303" y2="1.503" xlink:href="#a"/><linearGradient id="bo" x1="-8756.049" y1="-450.21" x2="-8754.965" y2="5.848" xlink:href="#a"/><linearGradient id="bp" x1="-7271.84" y1="-514.995" x2="-7270.93" y2="4" xlink:href="#a"/><linearGradient id="bq" x1="-8260.931" y1="-496.595" x2="-8259.908" y2="5.067" xlink:href="#a"/><linearGradient id="br" x1="-38332.734" y1="-7699.604" x2="-38328.051" y2="-303.935" xlink:href="#n"/><linearGradient id="bs" x1="-38332.629" y1="-7521.143" x2="-38327.945" y2="-125.473" xlink:href="#a"/><linearGradient id="bt" x1="-6974.895" y1="-0.105" x2="-6974" y2="1.09" xlink:href="#n"/><linearGradient id="bu" x1="-6974.866" y1="-0.077" x2="-6974" y2="1.09" xlink:href="#a"/><linearGradient id="bv" x1="-417.109" y1="-0.428" x2="-417.056" y2="17.968" xlink:href="#n"/><linearGradient id="bw" x1="-498.699" y1="-14.405" x2="-498.636" y2="1.01" xlink:href="#n"/><linearGradient id="bx" x1="-498.698" y1="-14.048" x2="-498.636" y2="1.002" xlink:href="#a"/><linearGradient id="by" x1="-896.173" y1="-5.906" x2="-896.059" y2="70.032" xlink:href="#n"/><linearGradient id="bz" x1="-896.165" y1="-0.005" x2="-896.163" y2="1.002" xlink:href="#w"/><linearGradient id="ca" x1="-725302.375" y1="-15.359" x2="-725209.375" y2="182.269" xlink:href="#n"/><linearGradient id="cb" x1="-725299.375" y1="-10.782" x2="-725209.375" y2="182.173" xlink:href="#a"/><linearGradient id="cc" x1="-725294.375" y1="0" x2="-725293.375" y2="2.622" xlink:href="#w"/><linearGradient id="cd" x1="-725300.375" y1="-15.656" x2="-725208.375" y2="173.491" xlink:href="#n"/><linearGradient id="ce" x1="-725293.375" y1="-1.067" x2="-725292.375" y2="1" xlink:href="#w"/><linearGradient id="cf" x1="-7635.412" y1="-7.252" x2="-7634.444" y2="86.459" xlink:href="#n"/><linearGradient id="cg" x1="-7635.391" y1="-5.079" x2="-7634.444" y2="86.41" xlink:href="#a"/><linearGradient id="ch" x1="-7635.338" y1="-0.024" x2="-7635.328" y2="1" xlink:href="#w"/><linearGradient id="ci" x1="-7800.245" y1="-87.402" x2="-7799.255" y2="7.172" xlink:href="#n"/><linearGradient id="cj" x1="-7800.223" y1="-85.209" x2="-7799.255" y2="7.123" xlink:href="#a"/><linearGradient id="ck" x1="-7799.331" y1="-0.021" x2="-7799.32" y2="1" xlink:href="#w"/><linearGradient id="cl" x1="-48288.168" y1="-2752.937" x2="-48281.969" y2="4955.137" xlink:href="#n"/><linearGradient id="cm" x1="-72424.266" y1="-1378.843" x2="-72415.07" y2="2475.068" xlink:href="#n"/><linearGradient id="cn" x1="-60356.723" y1="-1836.408" x2="-60348.973" y2="3301.468" xlink:href="#n"/><linearGradient id="co" x1="-28974.961" y1="-5505.424" x2="-28972.68" y2="3993.67" xlink:href="#n"/><linearGradient id="cp" x1="-4116.482" y1="-5.581" x2="-4115.959" y2="10.053" xlink:href="#n"/><linearGradient id="cq" x1="-90543.711" y1="-5502.924" x2="-90536.711" y2="3814.14" xlink:href="#n"/><linearGradient id="cr" x1="-90559.586" y1="0.5" x2="-90526.711" y2="0.5" xlink:href="#al"/><linearGradient id="cs" x1="-80478.078" y1="-2754.187" x2="-80467.852" y2="4954.637" xlink:href="#n"/><linearGradient id="ct" x1="-80494.742" y1="0.5" x2="-80465.523" y2="0.5" xlink:href="#al"/><linearGradient id="cu" x1="-90532.711" y1="-1837.741" x2="-90521.211" y2="3301.134" xlink:href="#n"/><linearGradient id="cv" x1="-90554.086" y1="0.5" x2="-90521.211" y2="0.5" xlink:href="#al"/><linearGradient id="cw" x1="-5486.478" y1="-5.693" x2="-5485.781" y2="10.207" xlink:href="#n"/><linearGradient id="cx" x1="-5487.697" y1="0.5" x2="-5485.705" y2="0.5" xlink:href="#al"/><linearGradient id="cy" x1="-3322.692" y1="-5.584" x2="-3322.27" y2="10.058" xlink:href="#n"/><linearGradient id="cz" x1="-3323.032" y1="0.5" x2="-3321.825" y2="0.5" xlink:href="#al"/><linearGradient id="da" x1="-28974.68" y1="-4407.24" x2="-28972.4" y2="5086.854" xlink:href="#n"/><linearGradient id="db" x1="-4116.448" y1="-4.47" x2="-4115.919" y2="11.164" xlink:href="#n"/><linearGradient id="dc" x1="-48287.703" y1="-2204.95" x2="-48281.57" y2="5502.874" xlink:href="#n"/><linearGradient id="dd" x1="-60356.141" y1="-1471.56" x2="-60348.391" y2="3667.482" xlink:href="#n"/><linearGradient id="de" x1="-72423.672" y1="-1104.85" x2="-72414.367" y2="2748.437" xlink:href="#n"/><linearGradient id="df" x1="-80477.297" y1="-2205.699" x2="-80467.078" y2="5500.874" xlink:href="#n"/><linearGradient id="dg" x1="-80494.742" y1="0.5" x2="-80465.523" y2="0.5" xlink:href="#al"/><linearGradient id="dh" x1="-90531.961" y1="-1472.393" x2="-90520.336" y2="3666.482" xlink:href="#n"/><linearGradient id="dj" x1="-90542.961" y1="-4410.241" x2="-90535.961" y2="4911.824" xlink:href="#n"/><linearGradient id="dk" x1="-90559.586" y1="0.5" x2="-90526.711" y2="0.5" xlink:href="#al"/><linearGradient id="dl" x1="-5486.432" y1="-4.563" x2="-5485.728" y2="11.337" xlink:href="#n"/><linearGradient id="dn" x1="-3322.665" y1="-4.472" x2="-3322.238" y2="11.17" xlink:href="#n"/><linearGradient id="dp" x1="-48287.102" y1="-1437.967" x2="-48280.902" y2="6270.106" xlink:href="#n"/><linearGradient id="dq" x1="-72422.672" y1="-721.608" x2="-72413.469" y2="3132.303" xlink:href="#n"/><linearGradient id="dr" x1="-4116.385" y1="-7.285" x2="-4115.857" y2="31.791" xlink:href="#n"/><linearGradient id="ds" x1="-28974.32" y1="-2872.934" x2="-28972.039" y2="6618.849" xlink:href="#n"/><linearGradient id="dt" x1="-60355.391" y1="-960.145" x2="-60347.641" y2="4178.571" xlink:href="#n"/><linearGradient id="du" x1="-90541.711" y1="-2875.434" x2="-90534.836" y2="6444.853" xlink:href="#n"/><linearGradient id="dv" x1="-90559.586" y1="0.5" x2="-90526.711" y2="0.5" xlink:href="#al"/><linearGradient id="dw" x1="-5486.349" y1="-7.646" x2="-5485.644" y2="33.136" xlink:href="#n"/><linearGradient id="dx" x1="-5487.697" y1="0.501" x2="-5485.705" y2="0.501" xlink:href="#al"/><linearGradient id="dy" x1="-80476.297" y1="-1438.967" x2="-80466.078" y2="6267.356" xlink:href="#n"/><linearGradient id="ea" x1="-90530.711" y1="-961.145" x2="-90519.211" y2="4177.404" xlink:href="#n"/><linearGradient id="ec" x1="-3322.614" y1="-7.293" x2="-3322.188" y2="31.832" xlink:href="#n"/><linearGradient id="ed" x1="-3323.032" y1="0.501" x2="-3321.825" y2="0.501" xlink:href="#al"/><linearGradient id="ee" x1="0.249" y1="0.078" x2="0.751" y2="0.918" xlink:href="#aw"/><linearGradient id="ef" x1="0.182" y1="-0.032" x2="0.818" y2="1.019" xlink:href="#aw"/><linearGradient id="eg" x1="-0.022" y1="0.496" x2="1.022" y2="0.496" xlink:href="#ay"/><linearGradient id="eh" x1="-1.98" y1="-0.936" x2="0.24" y2="3.17" xlink:href="#aw"/><linearGradient id="ei" x1="-911.82" y1="-567.383" x2="-908.32" y2="-567.383" xlink:href="#ay"/><linearGradient id="ej" x1="-1.46" y1="-1.809" x2="-1.46" y2="0.809" xlink:href="#bb"/></defs><g transform="translate(-603.754 -336.248)" opacity="0.8"><g transform="matrix(0.966, 0.259, -0.259, 0.966, 909.053, 337.564)" opacity="0.3"><path d="M0,.169C.138.115.276.061.414,0,.276.061.138.115,0,.169Z" transform="translate(71.262 229.031)" fill="none"/><path d="M0,.437Q.391.23.76,0,.391.23,0,.437Z" transform="translate(72.605 228.149)" fill="none"/><path d="M5.157,211.437V209L5.073,12.171v-3.4C5.1,5.825,3,2.256,0,0,3,2.264,5.088,5.832,5.073,8.772l.084,205.152a13.526,13.526,0,0,1-1.251,5.756,13.5,13.5,0,0,0,1.259-5.748v-2.494Z" transform="translate(74.193 3.183)" fill="none"/><path d="M.714.2C.476.276.238.345,0,.414A13.324,13.324,0,0,0,1.289,0C1.105.069.913.138.721.2Z" transform="translate(69.788 229.277)" fill="none"/><path d="M0,.123C.176.084.361.038.53,0,.353.046.176.084,0,.123Z" transform="translate(69.075 229.738)" fill="none"/><path d="M.56,0C.376.215.192.422,0,.622.192.422.384.215.56,0Z" transform="translate(75.736 225.647)" fill="none"/><path d="M0,.414C.3.284.583.146.867,0,.583.146.3.284,0,.414Z" transform="translate(71.707 228.609)" fill="none"/><path d="M0,.522C.192.353.376.176.552,0,.376.176.184.353,0,.522Z" transform="translate(75.091 226.353)" fill="none"/><path d="M0,.506C.215.345.43.177.629,0,.43.177.215.345,0,.506Z" transform="translate(74.354 226.975)" fill="none"/><path d="M.752.714C.668.859.591,1.005.5,1.151c-.154.261-.322.514-.5.76A12.211,12.211,0,0,0,1.12,0C1.005.246.883.483.752.721Z" transform="translate(76.964 222.892)" fill="none"/><path d="M0,.675C.184.453.361.23.522,0,.353.23.176.46,0,.675Z" transform="translate(76.396 224.864)" fill="none"/><path d="M.53,0C.353.038.177.061,0,.092L.422.023h0A.536.536,0,0,0,.53,0Z" transform="translate(68.292 229.914)" fill="none"/><path d="M.7,0C.468.031.238.061,0,.084.238.061.468.031.7,0Z" transform="translate(67.356 230.052)" fill="none"/><path d="M0,.46C.23.315.453.161.675,0,.46.161.23.315,0,.46Z" transform="translate(73.518 227.604)" fill="none"/><path d="M13.077,11.962V13l6.155.668v-1.7c.023-3.5-2.916-7.881-6.83-9.9A21.624,21.624,0,0,0,0,.213,19.052,19.052,0,0,1,6.254,2.07c3.914,2.018,6.853,6.4,6.83,9.9Z" transform="translate(66.903 0)" fill="#00272a"/><path d="M0,0V.714L.069,196.8v.023h0l6.155.645L6.155.714V.668L0,0H0ZM2.218,50.91a1.02,1.02,0,0,1,1.021-1.021h.315a.747.747,0,0,1,.184.015c.023,0,.038.015.061.015a.639.639,0,0,1,.115.031c.023.008.046.023.069.031l.092.046c.023.015.038.031.061.046a.536.536,0,0,1,.077.061h0a.987.987,0,0,1,.338.744V77.3a.975.975,0,0,1-.338.744,1,1,0,0,1-.668.261H3.231A1.02,1.02,0,0,1,2.21,77.286V50.9Z" transform="translate(79.987 15.43)" fill="#00272a"/><path d="M18.978.652,12.823.015V2.433c0,6.262-4.5,11.48-11.112,12.777a.273.273,0,0,0-.077.015c-.046.008-.092.023-.146.031H1.473c-.138.031-.284.046-.422.069-.077.015-.161.031-.238.038-.23.031-.46.061-.7.084A.593.593,0,0,0,0,15.463l4.367.061c8.457.123,14.611-5.771,14.611-13.1V.645Z" transform="translate(67.241 214.681)" fill="#00272a"/><path d="M.43.008C.292.069.154.123.015.177H0C.146.123.292.061.437,0h0Z" transform="translate(71.246 229.024)" fill="url(#a)"/><path d="M1.289,0Q.668.23,0,.414H0C.445.292.875.153,1.3,0h0Z" transform="translate(69.781 229.277)" fill="url(#b)"/><path d="M.537.008C.361.054.184.092.008.13H0C.184.092.368.046.553,0H.545Z" transform="translate(69.067 229.73)" fill="url(#c)"/><path d="M.76,0Q.391.23,0,.437H0C.261.3.514.153.767,0h0Z" transform="translate(72.612 228.149)" fill="url(#d)"/><path d="M.867,0C.583.146.3.284,0,.414H0Q.449.219.875,0h0Z" transform="translate(71.707 228.609)" fill="url(#e)"/><path d="M.629,0C.43.177.215.345,0,.506H0C.215.345.43.177.629,0Z" transform="translate(74.354 226.975)" fill="url(#f)"/><path d="M.675,0C.46.161.23.315,0,.46H0C.23.315.453.161.675,0Z" transform="translate(73.518 227.604)" fill="url(#g)"/><path d="M2.387,0h0V2.494A13.383,13.383,0,0,1,1.128,8.242a.038.038,0,0,1-.008.023A11.87,11.87,0,0,1,0,10.176H0A13.119,13.119,0,0,0,2.387,2.486V0Z" transform="translate(76.964 214.62)" fill="url(#h)"/><path d="M6.416,9.662v3.4L6.5,209.887h0L6.416,13.061v-3.4C6.439,6.293,3.7,2.11,0,0A11.971,11.971,0,0,1,1.343.89c3,2.256,5.1,5.825,5.073,8.772Z" transform="translate(72.85 2.3)" fill="url(#i)"/><path d="M.553,0C.376.176.184.353,0,.522H0C.192.353.376.176.56,0h0Z" transform="translate(75.099 226.353)" fill="url(#j)"/><path d="M.56,0h0C.376.215.192.422,0,.622H0C.2.422.384.215.568,0Z" transform="translate(75.743 225.64)" fill="url(#k)"/><path d="M.107,0,0,.023H.015A.4.4,0,0,0,.107,0h0Z" transform="translate(68.714 229.914)" fill="url(#l)"/><path d="M.522.008C.353.238.176.468,0,.683H0C.184.46.361.238.53,0h0Z" transform="translate(76.396 224.849)" fill="url(#m)"/><path d="M5.717,1.857c.146.077.284.161.43.238,3.7,2.11,6.439,6.293,6.416,9.662v.959l.714.077h0V11.757c.023-3.5-2.916-7.881-6.83-9.9A19,19,0,0,0,.192,0h0A1.634,1.634,0,0,0,0,.023,19.264,19.264,0,0,1,2.54.591,18.853,18.853,0,0,1,5.725,1.857Z" transform="translate(66.703 0.205)" fill="url(#n)"/><path d="M5.717,1.857c.146.077.284.161.43.238,3.7,2.11,6.439,6.293,6.416,9.662v.959l.714.077h0V11.757c.023-3.5-2.916-7.881-6.83-9.9A19,19,0,0,0,.192,0h0A1.634,1.634,0,0,0,0,.023,19.264,19.264,0,0,1,2.54.591,18.853,18.853,0,0,1,5.725,1.857Z" transform="translate(66.703 0.205)" fill="url(#o)"/><path d="M.084,196.833l.714.046L.721.79V.077L0,0Z" transform="translate(79.266 15.354)" fill="url(#p)"/><path d="M.084,196.833l.714.046L.721.79V.077L0,0Z" transform="translate(79.266 15.354)" fill="url(#q)"/><path d="M10.391.023V2.509A13.191,13.191,0,0,1,8,10.2c-.015.015-.023.038-.038.054-.169.23-.345.46-.53.683-.031.038-.061.069-.092.107-.184.215-.368.422-.568.622a.877.877,0,0,0-.084.084c-.177.177-.368.353-.56.522-.038.031-.077.069-.115.1-.2.176-.414.345-.629.507-.054.038-.107.084-.161.123-.223.161-.445.315-.675.46-.046.031-.1.061-.146.092-.246.154-.5.3-.767.437a.058.058,0,0,0-.031.015c-.284.146-.576.292-.875.414H2.724c-.146.061-.292.123-.437.177-.046.015-.092.038-.138.054a.058.058,0,0,0-.031.008c-.422.161-.852.292-1.3.414a1.238,1.238,0,0,1-.161.038c-.184.046-.368.092-.553.13-.038.008-.077.015-.107.023,6.607-1.3,11.112-6.515,11.112-12.777V.054h0L10.4,0Z" transform="translate(68.959 214.597)" fill="url(#r)"/><path d="M10.391.023V2.509A13.191,13.191,0,0,1,8,10.2c-.015.015-.023.038-.038.054-.169.23-.345.46-.53.683-.031.038-.061.069-.092.107-.184.215-.368.422-.568.622a.877.877,0,0,0-.084.084c-.177.177-.368.353-.56.522-.038.031-.077.069-.115.1-.2.176-.414.345-.629.507-.054.038-.107.084-.161.123-.223.161-.445.315-.675.46-.046.031-.1.061-.146.092-.246.154-.5.3-.767.437a.058.058,0,0,0-.031.015c-.284.146-.576.292-.875.414H2.724c-.146.061-.292.123-.437.177-.046.015-.092.038-.138.054a.058.058,0,0,0-.031.008c-.422.161-.852.292-1.3.414a1.238,1.238,0,0,1-.161.038c-.184.046-.368.092-.553.13-.038.008-.077.015-.107.023,6.607-1.3,11.112-6.515,11.112-12.777V.054h0L10.4,0Z" transform="translate(68.959 214.597)" fill="url(#s)"/><path d="M0,.031C.046.023.092.008.146,0A.1.1,0,0,0,.1.008.4.4,0,0,0,.008.031Z" transform="translate(68.729 229.906)" fill="url(#t)"/><path d="M0,.031C.046.023.092.008.146,0A.1.1,0,0,0,.1.008.4.4,0,0,0,.008.031Z" transform="translate(68.729 229.906)" fill="url(#u)"/><path d="M0,0H0Z" transform="translate(67.217 230.152)" fill="#555" opacity="0.37"/><path d="M.852.553C.936.537,1.013.522,1.09.514l.53-.092h0A.1.1,0,0,0,1.665.414.274.274,0,0,0,1.742.4c.038-.008.077-.015.107-.023h.008c.176-.038.361-.084.53-.123h.008A1.227,1.227,0,0,1,2.555.215h0C2.8.146,3.039.077,3.269,0A15.147,15.147,0,0,1,0,.675H0A.6.6,0,0,0,.115.66C.353.637.583.606.813.576Z" transform="translate(67.202 229.5)" fill="#555" opacity="0.37"/><path d="M70.5,229.226c.192-.061.384-.13.568-.2h0a.058.058,0,0,0,.031-.008c.046-.015.092-.038.138-.054h.015c.138-.054.284-.107.414-.169h.008c.3-.13.583-.269.867-.414h0a.058.058,0,0,0,.031-.015h0q.391-.207.76-.437h0c.046-.031.1-.061.146-.092h0c.23-.146.453-.3.675-.46h0c.054-.038.107-.084.161-.123h0c.215-.161.43-.33.629-.506h0c.038-.031.077-.069.115-.1h0c.192-.169.376-.345.553-.522h0a.829.829,0,0,0,.084-.084h0c.192-.2.384-.407.56-.622h0c.031-.038.061-.069.092-.107h0c.184-.223.361-.445.522-.675h0c.015-.015.023-.038.038-.054h0c.177-.246.345-.5.5-.76.092-.146.169-.292.253-.437.13-.238.253-.476.368-.721a.038.038,0,0,1,.008-.023,13.5,13.5,0,0,0,1.251-5.756L79.2,11.734c.023-2.939-2.072-6.508-5.073-8.772a14.028,14.028,0,0,0-1.343-.89c-.138-.084-.284-.161-.43-.238A18,18,0,0,0,69.174.568q-.38-.115-.76-.207C67.824.215,67.233.092,66.634,0c-.583.077-1.136.184-1.711.307L13.453,12.025C5.748,12.908,0,18.594,0,25.3V217.837a11.363,11.363,0,0,0,9.8,11.25,12.1,12.1,0,0,0,1.4.107l55.921.737h.046a14.7,14.7,0,0,0,3.269-.675Zm-7.828-3.2-51.486-.875a8.792,8.792,0,0,1-8.641-8.795V27.067c0-6.531,4.367-11.6,11.312-12.916l6.055-1.412c.806-.107,1.028.56,1.028,1.366l.192,3.269a2.579,2.579,0,0,0,3.154,2.517l20.106-4.574a5.123,5.123,0,0,0,3.991-5l-.054-2.763a1.613,1.613,0,0,1,1.274-1.6L63.964,2.909c6.063-1.105,10.4,3.576,10.36,9.738l.069,200.632c0,7.122-4.6,12.862-11.718,12.739Z" transform="translate(0 0.251)" fill="#013d44"/><path d="M0,.714V1.2L.008,2.44l6.162.668L6.155.714V.668L0,0Z" transform="translate(79.98 12.99)" fill="url(#v)"/><path d="M0,.714V1.2L.008,2.44l6.162.668L6.155.714V.668L0,0Z" transform="translate(79.98 12.99)" fill="url(#w)"/><path d="M0,1.2V0H0V1.2Z" transform="translate(79.98 12.99)" fill="#fff"/><path d="M0,1.2V0H0V1.2Z" transform="translate(79.98 12.99)" fill="#fff"/><path d="M0,1.2V0H0V1.2Z" transform="translate(79.98 12.99)" fill="#fff"/><path d="M.008,1.243h0L0,0,.008,1.243Z" transform="translate(79.98 14.187)" fill="url(#x)"/><path d="M.008,1.243h0L0,0,.008,1.243Z" transform="translate(79.98 14.187)" opacity="0.71" fill="url(#y)"/><path d="M.721,2.509h0L.714,1.266V.069L0,0V2.433Z" transform="translate(79.266 12.921)" fill="url(#z)"/><path d="M.721,2.509h0L.714,1.266V.069L0,0V2.433Z" transform="translate(79.266 12.921)" fill="url(#aa)"/><path d="M.721,2.509h0L.714,1.266V.069L0,0V2.433Z" transform="translate(79.266 12.921)" opacity="0.71" fill="url(#ab)"/><path d="M0,2.41H0V2.44l6.155.637h0V.645h0L0,0Z" transform="translate(80.064 212.256)"/><rect height="2.44" transform="translate(79.335 212.206) rotate(-0.08)" fill="#fff"/><rect height="2.44" transform="translate(79.335 212.206) rotate(-0.08)" fill="#fff" opacity="0.36"/><path d="M0,2.433l.714.046V.069h0V.046L0,0Z" transform="translate(79.35 212.187)" fill="url(#ac)"/><path d="M0,2.433l.714.046V.069h0V.046L0,0Z" transform="translate(79.35 212.187)" fill="url(#ad)"/><path d="M0,2.433l.714.046V.069h0V.046L0,0Z" transform="translate(79.35 212.187)" opacity="0.36" fill="url(#ae)"/><rect height="2.41" transform="translate(80.064 212.256)"/><rect height="2.41" transform="translate(80.064 212.256)" fill="#fff" opacity="0.36"/><path d="M.077.061A.84.84,0,0,1,0,0C.023.023.054.038.077.061Z" transform="translate(84.131 65.512)" fill="url(#af)"/><path d="M.077.061A.84.84,0,0,1,0,0C.023.023.054.038.077.061Z" transform="translate(84.131 65.512)" opacity="0.45"/><path d="M0,0A.894.894,0,0,1,.115.031.639.639,0,0,0,0,0Z" transform="translate(83.794 65.358)" fill="url(#ag)"/><path d="M0,0A.894.894,0,0,1,.115.031.639.639,0,0,0,0,0Z" transform="translate(83.794 65.358)" opacity="0.45"/><path d="M0,0A.748.748,0,0,1,.184.015,1.491,1.491,0,0,0,0,0Z" transform="translate(83.548 65.32)" fill="url(#ah)"/><path d="M0,0A.748.748,0,0,1,.184.015,1.491,1.491,0,0,0,0,0Z" transform="translate(83.548 65.32)" opacity="0.45"/><path d="M0,0,.092.046Z" transform="translate(83.978 65.42)" fill="url(#ai)"/><path d="M0,0,.092.046Z" transform="translate(83.978 65.42)" opacity="0.45"/><path d="M1.028,28.425h.315a1,1,0,0,1-1-.929V.921A.986.986,0,0,1,1.335,0H1.021A1.02,1.02,0,0,0,0,1.021V27.4a1.02,1.02,0,0,0,1.021,1.021Z" transform="translate(82.205 65.328)" fill="url(#aj)"/><path d="M1.028,28.425h.315a1,1,0,0,1-1-.929V.921A.986.986,0,0,1,1.335,0H1.021A1.02,1.02,0,0,0,0,1.021V27.4a1.02,1.02,0,0,0,1.021,1.021Z" transform="translate(82.205 65.328)" opacity="0.45"/><path d="M0,0S.038.031.061.046C.038.031.023.015,0,0Z" transform="translate(84.07 65.466)" fill="url(#ak)"/><path d="M0,0S.038.031.061.046C.038.031.023.015,0,0Z" transform="translate(84.07 65.466)" fill="url(#al)"/><path d="M.668,27.9a.015.015,0,0,1-.015.015L0,28.172H0a.981.981,0,0,0,.668-.261.987.987,0,0,0,.338-.744V.744A.975.975,0,0,0,.668,0h0V27.911Z" transform="translate(83.548 65.573)" fill="url(#am)"/><path d="M.668,27.9a.015.015,0,0,1-.015.015L0,28.172H0a.981.981,0,0,0,.668-.261.987.987,0,0,0,.338-.744V.744A.975.975,0,0,0,.668,0h0V27.911Z" transform="translate(83.548 65.573)" fill="url(#an)"/><path d="M0,0S.046.023.069.031C.046.023.023.008,0,0Z" transform="translate(83.909 65.389)" fill="url(#ao)"/><path d="M0,0S.046.023.069.031C.046.023.023.008,0,0Z" transform="translate(83.909 65.389)" fill="url(#ap)"/><path d="M0,0A.223.223,0,0,0,.061.015C.038.015.023,0,0,0Z" transform="translate(83.732 65.335)" fill="url(#aq)"/><path d="M0,0A.223.223,0,0,0,.061.015C.038.015.023,0,0,0Z" transform="translate(83.732 65.335)" fill="url(#ar)"/><path d="M0,.921V27.5a1,1,0,0,0,1,.929H1l.652-.253s.015-.008.015-.015V.246C1.642.223,1.612.207,1.589.184S1.55.153,1.527.138L1.435.092C1.412.084,1.389.069,1.366.061A.639.639,0,0,0,1.251.031c-.023,0-.038-.015-.061-.015A1.488,1.488,0,0,0,1.005,0,1,1,0,0,0,.3.292.942.942,0,0,0,.015.921Z" transform="translate(82.55 65.328)" fill="url(#as)"/><path d="M0,.921V27.5a1,1,0,0,0,1,.929H1l.652-.253s.015-.008.015-.015V.246C1.642.223,1.612.207,1.589.184S1.55.153,1.527.138L1.435.092C1.412.084,1.389.069,1.366.061A.639.639,0,0,0,1.251.031c-.023,0-.038-.015-.061-.015A1.488,1.488,0,0,0,1.005,0,1,1,0,0,0,.3.292.942.942,0,0,0,.015.921Z" transform="translate(82.55 65.328)" opacity="0.45"/><path d="M0,.921V27.5a1,1,0,0,0,1,.929H1l.652-.253s.015-.008.015-.015V.246C1.642.223,1.612.207,1.589.184S1.55.153,1.527.138L1.435.092C1.412.084,1.389.069,1.366.061A.639.639,0,0,0,1.251.031c-.023,0-.038-.015-.061-.015A1.488,1.488,0,0,0,1.005,0,1,1,0,0,0,.3.292.942.942,0,0,0,.015.921Z" transform="translate(82.55 65.328)" fill="url(#at)"/><path d="M0,0H0C.6.092,1.2.215,1.78.361q.38.092.76.207A19.262,19.262,0,0,0,0,0Z" transform="translate(64.393 0.228)" opacity="0.5" fill="url(#au)"/><path d="M.2,0h0A1.765,1.765,0,0,0,0,.023H0A.819.819,0,0,1,.192,0h0Z" transform="translate(64.393 0.197)" opacity="0.5" fill="url(#av)"/><g transform="translate(23.613 14.885)" opacity="0.5"><path d="M0,.844a.867.867,0,0,0,.89.844A.867.867,0,0,0,1.78.844.867.867,0,0,0,.89,0,.867.867,0,0,0,0,.844Zm1.6,0a.693.693,0,0,1-.706.675A.688.688,0,0,1,.184.844.688.688,0,0,1,.89.169.688.688,0,0,1,1.6.844Z"/><path d="M0,.844a.867.867,0,0,0,.89.844A.867.867,0,0,0,1.78.844.867.867,0,0,0,.89,0,.867.867,0,0,0,0,.844Zm1.6,0a.693.693,0,0,1-.706.675A.688.688,0,0,1,.184.844.688.688,0,0,1,.89.169.688.688,0,0,1,1.6.844Z" fill="url(#aw)"/><path d="M0,.675a.693.693,0,0,0,.706.675A.688.688,0,0,0,1.412.675.688.688,0,0,0,.706,0,.688.688,0,0,0,0,.675ZM.583.422a.1.1,0,0,1-.1.1H.307a.1.1,0,0,1-.1-.1V.261a.1.1,0,0,1,.1-.1H.483a.1.1,0,0,1,.1.1Z" transform="translate(0.184 0.169)"/><path d="M0,.675a.693.693,0,0,0,.706.675A.688.688,0,0,0,1.412.675.688.688,0,0,0,.706,0,.688.688,0,0,0,0,.675ZM.583.422a.1.1,0,0,1-.1.1H.307a.1.1,0,0,1-.1-.1V.261a.1.1,0,0,1,.1-.1H.483a.1.1,0,0,1,.1.1Z" transform="translate(0.184 0.169)" fill="url(#ax)"/><path d="M0,.675a.693.693,0,0,0,.706.675A.688.688,0,0,0,1.412.675.688.688,0,0,0,.706,0,.688.688,0,0,0,0,.675ZM.583.422a.1.1,0,0,1-.1.1H.307a.1.1,0,0,1-.1-.1V.261a.1.1,0,0,1,.1-.1H.483a.1.1,0,0,1,.1.1Z" transform="translate(0.184 0.169)" fill="url(#ay)"/><rect width="0.384" height="0.361" rx="0.13" transform="translate(0.376 0.33)"/><rect width="0.384" height="0.361" rx="0.13" transform="translate(0.376 0.33)" fill="url(#az)"/><rect width="0.384" height="0.361" rx="0.13" transform="translate(0.376 0.33)" fill="url(#ba)"/><rect width="0.384" height="0.361" rx="0.13" transform="translate(0.376 0.33)" opacity="0.48" fill="url(#bb)"/></g><g transform="translate(51.455 4.888)" opacity="0.5"><g transform="translate(7.955 0)"><path d="M4.208.274A.331.331,0,0,1,4.63.489l.253,1.2a.337.337,0,0,1-.292.376l-3.684.8a.318.318,0,0,1-.384-.215L.287,1.518a.329.329,0,0,1,.261-.361L4.208.274M4.154.021.494.911a.593.593,0,0,0-.483.668L.248,2.707a.574.574,0,0,0,.706.4l3.684-.783a.639.639,0,0,0,.553-.7L4.937.42a.62.62,0,0,0-.783-.4h0Z" opacity="0.32"/><path d="M.619,1.48.565,1.5A.291.291,0,0,1,.2,1.3L.005.368A.3.3,0,0,1,.251.03L.3.015A.457.457,0,0,1,.872.322l.138.637a.463.463,0,0,1-.391.522Z" transform="translate(0.458 1.211)"/><path d="M.285.757H.254A.092.092,0,0,1,.124.7L0,.135A.115.115,0,0,1,.093.013H.124A.287.287,0,0,1,.492.189L.546.427a.3.3,0,0,1-.253.33Z" transform="translate(5.251 0.546)" opacity="0.32"/></g><g transform="translate(3.691 1.671)"><path d="M1.067.276,1.005,0,.3.169,0,.238.061.514.146.9.2,1.174l.084.384.054.269.3-.061.714-.153-.061-.276-.706.153L.5,1.105,1.2.944,1.143.668l-.7.161L.361.445Z" transform="translate(2.195)"/><path d="M0,.276.054.545l.43-.1.276,1.3.292-.069L.775.376,1.212.269,1.151,0Z" transform="translate(0.798 0.299)"/><path d="M.276,0,0,.069.269,1.343.322,1.6l.284-.061.66-.138-.054-.269-.66.146Z" transform="translate(0 0.698)"/></g><g transform="translate(0 2.392)"><path d="M.691.706.146.821,0,.115.537,0Z" transform="translate(0 1.765)"/><path d="M.767,1.013l-.553.115L0,.123.553,0Z" transform="translate(0.714 1.289)"/><path d="M.89,1.5l-.576.123L0,.138.568,0Z" transform="translate(1.412 0.629)"/><path d="M1,1.949l-.591.13L0,.146.576,0Z" transform="translate(2.141)" opacity="0.32"/></g><path d="M9.284.535.3,2.178a.256.256,0,0,1-.292-.192h0A.226.226,0,0,1,.2,1.71L9.169.006a.31.31,0,0,1,.368.207h0a.288.288,0,0,1-.253.322Z" transform="translate(1.835 4.328)" opacity="0.31"/></g></g><g transform="translate(828.929 464.841) rotate(166)"><path d="M21.534,15.1,0,26.092V22.708l19.339-9.57v-.1L.046,3.384V0L21.572,11.1a2.233,2.233,0,0,1,1.2,1.98h0a2.266,2.266,0,0,1-1.243,2.018Z" transform="translate(12.502 7.896)" fill="#f4e378"/><path d="M.023,0,12.294,5.694,0,11.327Z" transform="translate(12.263 15.095)" fill="#f4e378"/><circle cx="21.487" cy="21.487" r="21.487" transform="translate(0 0)" fill="none" stroke="#76b59d" stroke-miterlimit="10" stroke-width="1"/></g><g transform="matrix(0.966, -0.259, 0.259, 0.966, 603.672, 358.426)" opacity="0.8"><g transform="translate(0 0)"><path d="M.084,8.825V12.24L0,210.14v4.95a13.5,13.5,0,0,0,1.266,5.779,13.53,13.53,0,0,1-1.259-5.786L.092,8.818C.069,5.863,2.172,2.279,5.18,0,2.164,2.272.061,5.855.084,8.818Z" transform="translate(6.907 3.212)" fill="none"/><path d="M0,0C.138.061.276.115.422.169.284.115.138.061,0,0Z" transform="translate(14.619 230.296)" fill="none"/><path d="M.576.2C.376.138.192.069,0,0,.414.154.852.292,1.3.414,1.051.345.813.276.576.2Z" transform="translate(15.225 230.542)" fill="none"/><path d="M0,0C.177.046.353.084.537.13.353.092.177.046,0,0Z" transform="translate(16.707 231.002)" fill="none"/><path d="M.092.023H.107C.246.054.391.069.53.092L0,0A.536.536,0,0,1,.107.023H.092Z" transform="translate(17.489 231.179)" fill="none"/><path d="M0,0C.23.031.468.061.706.084.468.061.238.031,0,0Z" transform="translate(18.264 231.317)" fill="none"/><path d="M0,0C.223.161.445.315.675.46.445.315.215.161,0,0Z" transform="translate(12.094 228.854)" fill="none"/><path d="M0,0C.246.153.506.3.767.437.506.3.253.153,0,0Z" transform="translate(12.923 229.406)" fill="none"/><path d="M.622,1.159C.53,1.013.453.867.368.721.238.483.115.246,0,0A13.038,13.038,0,0,0,1.128,1.926c-.177-.246-.345-.5-.5-.76Z" transform="translate(8.181 224.111)" fill="none"/><path d="M0,0C.177.184.368.353.56.53.368.361.184.184,0,0Z" transform="translate(10.629 227.595)" fill="none"/><path d="M.568.622C.368.422.184.215,0,0,.184.215.368.422.568.622Z" transform="translate(9.969 226.889)" fill="none"/><path d="M0,0C.169.23.345.46.53.683.345.46.169.238,0,0Z" transform="translate(9.355 226.099)" fill="none"/><path d="M0,0Q.426.219.875.414.426.219,0,0Z" transform="translate(13.721 229.867)" fill="none"/><path d="M0,0C.207.176.414.345.629.507.414.345.2.176,0,0Z" transform="translate(11.304 228.224)" fill="none"/><path d="M.76.361C1.351.215,1.949.092,2.555,0h0A19.485,19.485,0,0,0,0,.568Q.38.453.76.361Z" transform="translate(17.075 0.242)" fill="url(#bc)"/><path d="M18.264,15.433c-.084-.015-.161-.031-.238-.038l-.422-.069h-.015c-.046-.008-.092-.023-.146-.031a.273.273,0,0,1-.077-.015C10.728,13.975,6.193,8.733,6.193,2.433V0L0,.637V2.425C0,9.792,6.185,15.717,14.7,15.594l4.39-.061a.593.593,0,0,1-.115-.015C18.732,15.494,18.5,15.463,18.264,15.433Z" transform="translate(0 215.884)" fill="#00272a"/><path d="M6.193,197.9v-.023L6.262.721V0h0L.077.668V.714L0,198.544l6.193-.645h0ZM4.037,77.716a1.028,1.028,0,0,1-1.028,1.028H2.694a1.015,1.015,0,0,1-.675-.261,1,1,0,0,1-.338-.752V64.616a1,1,0,0,1,.338-.752h0c.023-.023.054-.038.077-.061s.038-.031.061-.046l.092-.046c.023-.008.046-.023.069-.031a.639.639,0,0,1,.115-.031c.023,0,.038-.015.061-.015a.778.778,0,0,1,.192-.015H3a1.028,1.028,0,0,1,1.028,1.028V77.723Zm0-16.814A1.028,1.028,0,0,1,3.008,61.93H2.694a1.015,1.015,0,0,1-.675-.261,1,1,0,0,1-.338-.752V47.8a1,1,0,0,1,.338-.752h0c.023-.023.054-.038.077-.061s.038-.031.061-.046l.092-.046c.023-.008.046-.023.069-.031a.64.64,0,0,1,.115-.031c.023,0,.038-.015.061-.015a.778.778,0,0,1,.192-.015H3a1.028,1.028,0,0,1,1.028,1.028V60.909ZM3.008,29.307H2.694a1.015,1.015,0,0,1-.675-.261,1,1,0,0,1-.338-.752V24.258a1,1,0,0,1,.338-.752h0c.023-.023.054-.038.077-.061s.038-.031.061-.046l.092-.046c.023-.008.046-.023.069-.031a.64.64,0,0,1,.115-.031c.023,0,.038-.015.061-.015a.779.779,0,0,1,.192-.015H3a1.028,1.028,0,0,1,1.028,1.028v4A1.028,1.028,0,0,1,3,29.315Z" transform="translate(0 15.529)" fill="#00272a"/><path d="M6.193,12.037C6.17,8.522,9.125,4.11,13.061,2.084A19.189,19.189,0,0,1,19.347.211,21.8,21.8,0,0,0,6.876,2.084C2.939,4.118-.023,8.522,0,12.037v1.711l6.185-.668V12.045Z" transform="translate(0.084 0)" fill="#00272a"/><path d="M.107.023,0,0H0A.4.4,0,0,1,.092.023Z" transform="translate(17.497 231.187)" fill="url(#bd)"/><path d="M.56.53C.368.361.184.184,0,0H0C.184.176.368.353.56.53Z" transform="translate(10.629 227.595)" fill="url(#be)"/><path d="M.53.683C.345.46.169.238,0,0H0C.169.238.345.46.53.683Z" transform="translate(9.355 226.099)" fill="url(#bf)"/><path d="M.545.13C.361.092.184.046.008,0H0C.184.046.368.092.56.13H.553Z" transform="translate(16.691 230.995)" fill="url(#bg)"/><path d="M.422.169C.284.115.138.054,0,0H0C.146.061.292.123.437.176H.422Z" transform="translate(14.619 230.296)" fill="url(#bh)"/><path d="M1.3.414C.852.292.422.154,0,0H0A12.283,12.283,0,0,0,1.3.414h0Z" transform="translate(15.225 230.542)" fill="url(#bi)"/><path d="M.875.414Q.426.219,0,0H0C.284.153.583.292.883.422h0Z" transform="translate(13.721 229.867)" fill="url(#bj)"/><path d="M.568.622h0C.368.422.184.215,0,0H0C.184.215.368.422.568.622Z" transform="translate(9.976 226.889)" fill="url(#bk)"/><path d="M.084,9.715V13.13L0,211.03H0L.084,13.13V9.715C.061,6.753,2.164,3.169,5.18.9A12.32,12.32,0,0,1,6.546,0C2.824,2.118.061,6.323.084,9.715Z" transform="translate(6.907 2.322)" fill="url(#bl)"/><path d="M.2.023h0A1.765,1.765,0,0,0,0,0H0A1.635,1.635,0,0,1,.192.023Z" transform="translate(19.431 0.219)" fill="url(#bm)"/><path d="M0,0H0V2.5A13.2,13.2,0,0,0,2.4,10.23h0A13.038,13.038,0,0,1,1.274,8.3a.038.038,0,0,0-.008-.023A13.525,13.525,0,0,1,0,2.5Z" transform="translate(6.907 215.808)" fill="url(#bn)"/><path d="M.629.507C.414.345.2.176,0,0H0C.207.176.414.345.637.507h0Z" transform="translate(11.304 228.224)" fill="url(#bo)"/><path d="M.767.437C.506.3.253.153,0,0H0C.253.153.506.3.767.445h0Z" transform="translate(12.923 229.414)" fill="url(#bp)"/><path d="M.675.46C.445.315.215.161,0,0H0C.223.161.445.315.675.46Z" transform="translate(12.094 228.854)" fill="url(#bq)"/><path d="M.046.008A.135.135,0,0,1,0,0C.046.008.092.023.146.031A.405.405,0,0,1,.054.008Z" transform="translate(17.443 231.171)" fill="url(#br)"/><path d="M.046.008A.135.135,0,0,1,0,0C.046.008.092.023.146.031A.405.405,0,0,1,.054.008Z" transform="translate(17.443 231.171)" fill="url(#bs)"/><path d="M.8,0,.069.077V.8L0,197.946l.714-.046Z" transform="translate(6.193 15.452)" fill="url(#bt)"/><path d="M.8,0,.069.077V.8L0,197.946l.714-.046Z" transform="translate(6.193 15.452)" fill="url(#bu)"/><path d="M0,11.826v1.036H0l.721-.077v-.967C.7,8.434,3.461,4.221,7.183,2.1c.138-.077.276-.161.422-.238A18.944,18.944,0,0,1,13.361.023.82.82,0,0,0,13.169,0h0A19.006,19.006,0,0,0,6.884,1.872C2.947,3.9-.008,8.311.015,11.826Z" transform="translate(6.277 0.211)" fill="url(#bv)"/><path d="M0,11.826v1.036H0l.721-.077v-.967C.7,8.434,3.461,4.221,7.183,2.1c.138-.077.276-.161.422-.238A18.944,18.944,0,0,1,13.361.023.82.82,0,0,0,13.169,0h0A19.006,19.006,0,0,0,6.884,1.872C2.947,3.9-.008,8.311.015,11.826Z" transform="translate(6.277 0.211)" fill="#00272a"/><path d="M.721,0,0,.046V2.5C0,8.8,4.528,14.044,11.173,15.348l-.115-.023c-.184-.038-.376-.084-.56-.13a1.224,1.224,0,0,0-.161-.038c-.445-.123-.883-.261-1.3-.414A.058.058,0,0,1,9,14.734c-.046-.015-.092-.038-.138-.054-.146-.061-.292-.115-.437-.177H8.418c-.3-.13-.6-.269-.883-.422a.058.058,0,0,1-.031-.015c-.261-.138-.522-.284-.767-.445-.046-.031-.1-.061-.146-.092-.23-.146-.46-.3-.675-.46-.054-.038-.107-.084-.161-.123-.215-.161-.43-.33-.637-.507-.038-.031-.077-.069-.115-.1-.192-.169-.376-.345-.56-.53a.879.879,0,0,1-.084-.084c-.2-.2-.384-.414-.568-.622C3.76,11.066,3.73,11.035,3.7,11c-.184-.223-.361-.453-.53-.683-.015-.015-.023-.038-.038-.054a13.213,13.213,0,0,1-2.4-7.728V.031Z" transform="translate(6.185 215.808)" fill="url(#bw)"/><path d="M.721,0,0,.046V2.5C0,8.8,4.528,14.044,11.173,15.348l-.115-.023c-.184-.038-.376-.084-.56-.13a1.224,1.224,0,0,0-.161-.038c-.445-.123-.883-.261-1.3-.414A.058.058,0,0,1,9,14.734c-.046-.015-.092-.038-.138-.054-.146-.061-.292-.115-.437-.177H8.418c-.3-.13-.6-.269-.883-.422a.058.058,0,0,1-.031-.015c-.261-.138-.522-.284-.767-.445-.046-.031-.1-.061-.146-.092-.23-.146-.46-.3-.675-.46-.054-.038-.107-.084-.161-.123-.215-.161-.43-.33-.637-.507-.038-.031-.077-.069-.115-.1-.192-.169-.376-.345-.56-.53a.879.879,0,0,1-.084-.084c-.2-.2-.384-.414-.568-.622C3.76,11.066,3.73,11.035,3.7,11c-.184-.223-.361-.453-.53-.683-.015-.015-.023-.038-.038-.054a13.213,13.213,0,0,1-2.4-7.728V.031Z" transform="translate(6.185 215.808)" fill="url(#bx)"/><path d="M.023,0Z" transform="translate(19.078 231.417)" fill="#555" opacity="0.37"/><path d="M.023.015C.261.092.5.161.744.23h0A1.229,1.229,0,0,0,.906.269H.913c.177.046.353.084.537.13h.008l.115.023A.273.273,0,0,1,1.65.437.1.1,0,0,1,1.7.445h0q.265.058.53.092c.077.015.161.031.238.038.23.031.468.061.706.084a.593.593,0,0,1,.115.015h0A14.748,14.748,0,0,1,0,0Z" transform="translate(15.778 230.726)" fill="#555" opacity="0.37"/><path d="M66.174,12.094,14.427.315C13.852.192,13.292.077,12.708,0c-.606.092-1.2.215-1.788.361q-.38.092-.76.207a18.176,18.176,0,0,0-3.2,1.274c-.146.077-.284.153-.422.238a13.08,13.08,0,0,0-1.366.9C2.164,5.249.061,8.841.084,11.8L0,218.06a13.53,13.53,0,0,0,1.259,5.786.038.038,0,0,0,.008.023c.115.246.238.491.368.721.084.146.161.292.253.437.161.261.322.514.5.76h0c.015.015.023.038.038.054h0c.169.23.345.46.53.683h0c.031.038.061.069.092.107h0c.184.215.368.422.568.622h0a.877.877,0,0,1,.084.084h0c.177.184.368.353.56.53h0c.038.031.077.069.115.1h0c.207.177.414.345.629.506H5c.054.038.107.084.161.123h0c.223.161.445.315.675.46h0c.046.031.1.061.146.092h0c.246.153.506.3.767.437h0a.058.058,0,0,1,.031.015h0q.426.219.875.414h.008c.138.061.276.115.422.169H8.1c.046.015.092.038.138.054a.058.058,0,0,1,.031.008h0c.184.069.376.138.576.2a14.748,14.748,0,0,0,3.285.675h.046l56.228-.737a10.726,10.726,0,0,0,1.412-.107,11.41,11.41,0,0,0,9.854-11.312V25.447c0-6.746-5.779-12.463-13.529-13.353ZM77.209,217.569a8.841,8.841,0,0,1-8.687,8.841l-51.769.875c-7.16.123-11.78-5.648-11.78-12.808L5.042,12.754C5,6.554,9.362,1.849,15.463,2.962L29.906,6.024a1.615,1.615,0,0,1,1.282,1.612l-.054,2.778a5.155,5.155,0,0,0,4.014,5.027l20.221,4.6A2.6,2.6,0,0,0,58.538,17.5l.192-3.292c0-.813.223-1.481,1.028-1.374l6.086,1.42c6.983,1.335,11.373,6.423,11.373,12.985V217.569Z" transform="translate(6.922 0.242)" fill="#013d44"/><path d="M6.193,1.2,6.2.714V0L.008.668V.714L0,3.116l6.185-.668Z" transform="translate(0.077 13.081)" fill="url(#by)"/><path d="M6.193,1.2,6.2.714V0L.008.668V.714L0,3.116l6.185-.668Z" transform="translate(0.077 13.081)" fill="url(#bz)"/><path d="M.008,0h0V.714L0,1.2.008.714Z" transform="translate(6.27 13.081)" fill="url(#ca)"/><path d="M.008,0h0V.714L0,1.2.008.714Z" transform="translate(6.27 13.081)" fill="url(#cb)"/><path d="M.008,0h0V.714L0,1.2.008.714Z" transform="translate(6.27 13.081)" fill="url(#cc)"/><path d="M.008,0,0,1.251H0Z" transform="translate(6.262 14.278)" fill="url(#cd)"/><path d="M.008,0,0,1.251H0Z" transform="translate(6.262 14.278)" opacity="0.71" fill="url(#ce)"/><path d="M.729,0,.015.077V.79l-.008.483L0,2.525H0l.729-.077Z" transform="translate(6.262 13.004)" fill="url(#cf)"/><path d="M.729,0,.015.077V.79l-.008.483L0,2.525H0l.729-.077Z" transform="translate(6.262 13.004)" fill="url(#cg)"/><path d="M.729,0,.015.077V.79l-.008.483L0,2.525H0l.729-.077Z" transform="translate(6.262 13.004)" opacity="0.71" fill="url(#ch)"/><path d="M6.193,2.425h0V0L0,.645H0V3.093H0l6.193-.645Z" transform="translate(0 213.429)"/><rect width="2.448" transform="translate(6.907 215.793) rotate(-89.92)" fill="#fff"/><rect width="2.448" transform="translate(6.907 215.793) rotate(-89.92)" fill="#fff" opacity="0.36"/><path d="M.714,0,0,.046V.077H0V2.5l.714-.046Z" transform="translate(6.193 213.352)" fill="url(#ci)"/><path d="M.714,0,0,.046V.077H0V2.5l.714-.046Z" transform="translate(6.193 213.352)" fill="url(#cj)"/><path d="M.714,0,0,.046V.077H0V2.5l.714-.046Z" transform="translate(6.193 213.352)" opacity="0.36" fill="url(#ck)"/><rect width="2.425" transform="translate(6.192 215.832) rotate(-89.92)"/><rect width="2.425" transform="translate(6.192 215.832) rotate(-89.92)" fill="#fff" opacity="0.36"/><path d="M0,.031S.077.008.115,0A.639.639,0,0,0,0,.031Z" transform="translate(2.325 79.178)" fill="url(#cl)"/><path d="M0,.031S.077.008.115,0A.639.639,0,0,0,0,.031Z" transform="translate(2.325 79.178)" opacity="0.45"/><path d="M0,.061H0C.023.038.054.023.077,0A.537.537,0,0,0,0,.061Z" transform="translate(2.026 79.331)" fill="url(#cm)"/><path d="M0,.061H0C.023.038.054.023.077,0A.537.537,0,0,0,0,.061Z" transform="translate(2.026 79.331)" opacity="0.45"/><path d="M0,.046.092,0A1.026,1.026,0,0,0,0,.046Z" transform="translate(2.164 79.247)" fill="url(#cn)"/><path d="M0,.046.092,0A1.026,1.026,0,0,0,0,.046Z" transform="translate(2.164 79.247)" opacity="0.45"/><path d="M0,.015A.778.778,0,0,1,.192,0,.81.81,0,0,0,0,.015Z" transform="translate(2.502 79.14)" fill="url(#co)"/><path d="M0,.015A.778.778,0,0,1,.192,0,.81.81,0,0,0,0,.015Z" transform="translate(2.502 79.14)" opacity="0.45"/><path d="M.315,0H0A1.01,1.01,0,0,1,.714.3a.989.989,0,0,1,.292.637V14.2a.993.993,0,0,1-1,.929H.322a1.028,1.028,0,0,0,1.028-1.028V1.028A1.028,1.028,0,0,0,.322,0Z" transform="translate(2.694 79.14)" fill="url(#cp)"/><path d="M.315,0H0A1.01,1.01,0,0,1,.714.3a.989.989,0,0,1,.292.637V14.2a.993.993,0,0,1-1,.929H.322a1.028,1.028,0,0,0,1.028-1.028V1.028A1.028,1.028,0,0,0,.322,0Z" transform="translate(2.694 79.14)" opacity="0.45"/><path d="M0,.015A.223.223,0,0,1,.061,0C.038,0,.023.015,0,.015Z" transform="translate(2.44 79.163)" fill="url(#cq)"/><path d="M0,.015A.223.223,0,0,1,.061,0C.038,0,.023.015,0,.015Z" transform="translate(2.44 79.163)" fill="url(#cr)"/><path d="M0,.031S.046.008.069,0C.046.008.023.023,0,.031Z" transform="translate(2.256 79.209)" fill="url(#cs)"/><path d="M0,.031S.046.008.069,0C.046.008.023.023,0,.031Z" transform="translate(2.256 79.209)" fill="url(#ct)"/><path d="M0,.046S.038.015.061,0C.038.015.023.031,0,.046Z" transform="translate(2.103 79.293)" fill="url(#cu)"/><path d="M0,.046S.038.015.061,0C.038.015.023.031,0,.046Z" transform="translate(2.103 79.293)" fill="url(#cv)"/><path d="M.353,14.627s-.015-.008-.015-.015V0h0A1,1,0,0,0,0,.752V13.867A1.018,1.018,0,0,0,1.013,14.88h0l-.66-.253Z" transform="translate(1.673 79.393)" fill="url(#cw)"/><path d="M.353,14.627s-.015-.008-.015-.015V0h0A1,1,0,0,0,0,.752V13.867A1.018,1.018,0,0,0,1.013,14.88h0l-.66-.253Z" transform="translate(1.673 79.393)" fill="url(#cx)"/><path d="M1.673,14.2V.936A.986.986,0,0,0,1.381.3,1.01,1.01,0,0,0,.668,0,.81.81,0,0,0,.476.015C.453.015.437.031.414.031A.64.64,0,0,0,.3.061C.276.069.253.084.23.092A1.028,1.028,0,0,0,.138.138C.115.153.1.169.077.184S.023.223,0,.246V14.857a.015.015,0,0,0,.015.015l.66.253h0a1,1,0,0,0,1-.929Z" transform="translate(2.018 79.14)" fill="url(#cy)"/><path d="M1.673,14.2V.936A.986.986,0,0,0,1.381.3,1.01,1.01,0,0,0,.668,0,.81.81,0,0,0,.476.015C.453.015.437.031.414.031A.64.64,0,0,0,.3.061C.276.069.253.084.23.092A1.028,1.028,0,0,0,.138.138C.115.153.1.169.077.184S.023.223,0,.246V14.857a.015.015,0,0,0,.015.015l.66.253h0a1,1,0,0,0,1-.929Z" transform="translate(2.018 79.14)" opacity="0.45"/><path d="M1.673,14.2V.936A.986.986,0,0,0,1.381.3,1.01,1.01,0,0,0,.668,0,.81.81,0,0,0,.476.015C.453.015.437.031.414.031A.64.64,0,0,0,.3.061C.276.069.253.084.23.092A1.028,1.028,0,0,0,.138.138C.115.153.1.169.077.184S.023.223,0,.246V14.857a.015.015,0,0,0,.015.015l.66.253h0a1,1,0,0,0,1-.929Z" transform="translate(2.018 79.14)" fill="url(#cz)"/><path d="M0,.015A.779.779,0,0,1,.192,0,.81.81,0,0,0,0,.015Z" transform="translate(2.502 62.326)" fill="url(#da)"/><path d="M0,.015A.779.779,0,0,1,.192,0,.81.81,0,0,0,0,.015Z" transform="translate(2.502 62.326)" opacity="0.45"/><path d="M.315,0H0A1.01,1.01,0,0,1,.714.3a.989.989,0,0,1,.292.637V14.2a.993.993,0,0,1-1,.929H.322A1.028,1.028,0,0,0,1.351,14.1V1.028A1.028,1.028,0,0,0,.322,0Z" transform="translate(2.694 62.326)" fill="url(#db)"/><path d="M.315,0H0A1.01,1.01,0,0,1,.714.3a.989.989,0,0,1,.292.637V14.2a.993.993,0,0,1-1,.929H.322A1.028,1.028,0,0,0,1.351,14.1V1.028A1.028,1.028,0,0,0,.322,0Z" transform="translate(2.694 62.326)" opacity="0.45"/><path d="M0,.031S.077.008.115,0A.639.639,0,0,0,0,.031Z" transform="translate(2.325 62.364)" fill="url(#dc)"/><path d="M0,.031S.077.008.115,0A.639.639,0,0,0,0,.031Z" transform="translate(2.325 62.364)" opacity="0.45"/><path d="M0,.046.092,0A1.028,1.028,0,0,0,0,.046Z" transform="translate(2.164 62.425)" fill="url(#dd)"/><path d="M0,.046.092,0A1.028,1.028,0,0,0,0,.046Z" transform="translate(2.164 62.425)" opacity="0.45"/><path d="M0,.061H0C.023.038.054.023.077,0A.537.537,0,0,0,0,.061Z" transform="translate(2.026 62.517)" fill="url(#de)"/><path d="M0,.061H0C.023.038.054.023.077,0A.537.537,0,0,0,0,.061Z" transform="translate(2.026 62.517)" opacity="0.45"/><path d="M0,.031S.046.008.069,0C.046.008.023.023,0,.031Z" transform="translate(2.256 62.395)" fill="url(#df)"/><path d="M0,.031S.046.008.069,0C.046.008.023.023,0,.031Z" transform="translate(2.256 62.395)" fill="url(#dg)"/><path d="M0,.046S.038.015.061,0C.038.015.023.031,0,.046Z" transform="translate(2.103 62.471)" fill="url(#dh)"/><path d="M0,.046S.038.015.061,0C.038.015.023.031,0,.046Z" transform="translate(2.103 62.471)" fill="url(#cv)"/><path d="M0,.015A.223.223,0,0,1,.061,0C.038,0,.023.015,0,.015Z" transform="translate(2.44 62.349)" fill="url(#dj)"/><path d="M0,.015A.223.223,0,0,1,.061,0C.038,0,.023.015,0,.015Z" transform="translate(2.44 62.349)" fill="url(#dk)"/><path d="M.353,14.627s-.015-.008-.015-.015V0h0A1,1,0,0,0,0,.752V13.867A1.018,1.018,0,0,0,1.013,14.88h0l-.66-.253Z" transform="translate(1.673 62.579)" fill="url(#dl)"/><path d="M.353,14.627s-.015-.008-.015-.015V0h0A1,1,0,0,0,0,.752V13.867A1.018,1.018,0,0,0,1.013,14.88h0l-.66-.253Z" transform="translate(1.673 62.579)" fill="url(#cx)"/><path d="M1.673,14.2V.936A.986.986,0,0,0,1.381.3,1.01,1.01,0,0,0,.668,0,.81.81,0,0,0,.476.015C.453.015.437.031.414.031A.639.639,0,0,0,.3.061C.276.069.253.084.23.092S.161.123.138.138.1.169.077.184.023.223,0,.246V14.857a.015.015,0,0,0,.015.015l.66.253h0a1,1,0,0,0,1-.929Z" transform="translate(2.018 62.326)" fill="url(#dn)"/><path d="M1.673,14.2V.936A.986.986,0,0,0,1.381.3,1.01,1.01,0,0,0,.668,0,.81.81,0,0,0,.476.015C.453.015.437.031.414.031A.639.639,0,0,0,.3.061C.276.069.253.084.23.092S.161.123.138.138.1.169.077.184.023.223,0,.246V14.857a.015.015,0,0,0,.015.015l.66.253h0a1,1,0,0,0,1-.929Z" transform="translate(2.018 62.326)" opacity="0.45"/><path d="M1.673,14.2V.936A.986.986,0,0,0,1.381.3,1.01,1.01,0,0,0,.668,0,.81.81,0,0,0,.476.015C.453.015.437.031.414.031A.639.639,0,0,0,.3.061C.276.069.253.084.23.092S.161.123.138.138.1.169.077.184.023.223,0,.246V14.857a.015.015,0,0,0,.015.015l.66.253h0a1,1,0,0,0,1-.929Z" transform="translate(2.018 62.326)" fill="url(#cz)"/><path d="M0,.031S.077.008.115,0A.639.639,0,0,0,0,.031Z" transform="translate(2.325 38.82)" fill="url(#dp)"/><path d="M0,.031S.077.008.115,0A.639.639,0,0,0,0,.031Z" transform="translate(2.325 38.82)" opacity="0.45"/><path d="M0,.061H0C.023.038.054.023.077,0A.538.538,0,0,0,0,.061Z" transform="translate(2.026 38.981)" fill="url(#dq)"/><path d="M0,.061H0C.023.038.054.023.077,0A.538.538,0,0,0,0,.061Z" transform="translate(2.026 38.981)" opacity="0.45"/><path d="M.315,0H0A1.01,1.01,0,0,1,.714.3a.989.989,0,0,1,.292.637v4.19a.993.993,0,0,1-1,.929H.322A1.028,1.028,0,0,0,1.351,5.027v-4A1.028,1.028,0,0,0,.322,0Z" transform="translate(2.694 38.789)" fill="url(#dr)"/><path d="M.315,0H0A1.01,1.01,0,0,1,.714.3a.989.989,0,0,1,.292.637v4.19a.993.993,0,0,1-1,.929H.322A1.028,1.028,0,0,0,1.351,5.027v-4A1.028,1.028,0,0,0,.322,0Z" transform="translate(2.694 38.789)" opacity="0.45"/><path d="M0,.015A.778.778,0,0,1,.192,0,.81.81,0,0,0,0,.015Z" transform="translate(2.502 38.789)" fill="url(#ds)"/><path d="M0,.015A.778.778,0,0,1,.192,0,.81.81,0,0,0,0,.015Z" transform="translate(2.502 38.789)" opacity="0.45"/><path d="M0,.046.092,0A1.028,1.028,0,0,0,0,.046Z" transform="translate(2.164 38.889)" fill="url(#dt)"/><path d="M0,.046.092,0A1.028,1.028,0,0,0,0,.046Z" transform="translate(2.164 38.889)" opacity="0.45"/><path d="M0,.015A.224.224,0,0,1,.061,0C.038,0,.023.015,0,.015Z" transform="translate(2.44 38.805)" fill="url(#du)"/><path d="M0,.015A.224.224,0,0,1,.061,0C.038,0,.023.015,0,.015Z" transform="translate(2.44 38.805)" fill="url(#dv)"/><path d="M.353,5.548S.338,5.541.338,5.533V0h0A1,1,0,0,0,0,.752V4.789A1.018,1.018,0,0,0,1.013,5.8h0l-.66-.253Z" transform="translate(1.673 39.035)" fill="url(#dw)"/><path d="M.353,5.548S.338,5.541.338,5.533V0h0A1,1,0,0,0,0,.752V4.789A1.018,1.018,0,0,0,1.013,5.8h0l-.66-.253Z" transform="translate(1.673 39.035)" fill="url(#dx)"/><path d="M0,.031S.046.008.069,0C.046.008.023.023,0,.031Z" transform="translate(2.256 38.858)" fill="url(#dy)"/><path d="M0,.031S.046.008.069,0C.046.008.023.023,0,.031Z" transform="translate(2.256 38.858)" fill="url(#dg)"/><path d="M0,.046S.038.015.061,0C.038.015.023.031,0,.046Z" transform="translate(2.103 38.935)" fill="url(#ea)"/><path d="M0,.046S.038.015.061,0C.038.015.023.031,0,.046Z" transform="translate(2.103 38.935)" fill="url(#cv)"/><path d="M1.673,5.126V.936A.986.986,0,0,0,1.381.3,1.01,1.01,0,0,0,.668,0,.81.81,0,0,0,.476.015C.453.015.437.031.414.031A.639.639,0,0,0,.3.061C.276.069.253.084.23.092A1.027,1.027,0,0,0,.138.138C.115.153.1.169.077.184S.023.223,0,.246V5.779a.015.015,0,0,0,.015.015l.66.253h0a1,1,0,0,0,1-.929Z" transform="translate(2.018 38.781)" fill="url(#ec)"/><path d="M1.673,5.126V.936A.986.986,0,0,0,1.381.3,1.01,1.01,0,0,0,.668,0,.81.81,0,0,0,.476.015C.453.015.437.031.414.031A.639.639,0,0,0,.3.061C.276.069.253.084.23.092A1.027,1.027,0,0,0,.138.138C.115.153.1.169.077.184S.023.223,0,.246V5.779a.015.015,0,0,0,.015.015l.66.253h0a1,1,0,0,0,1-.929Z" transform="translate(2.018 38.781)" opacity="0.45"/><path d="M1.673,5.126V.936A.986.986,0,0,0,1.381.3,1.01,1.01,0,0,0,.668,0,.81.81,0,0,0,.476.015C.453.015.437.031.414.031A.639.639,0,0,0,.3.061C.276.069.253.084.23.092A1.027,1.027,0,0,0,.138.138C.115.153.1.169.077.184S.023.223,0,.246V5.779a.015.015,0,0,0,.015.015l.66.253h0a1,1,0,0,0,1-.929Z" transform="translate(2.018 38.781)" fill="url(#ed)"/></g><g transform="translate(42.167 10.596)"><path d="M1.192.061a.872.872,0,0,0-1.12.5A.866.866,0,0,0,.517,1.7a.872.872,0,0,0,1.12-.5A.866.866,0,0,0,1.192.061ZM.586,1.534A.694.694,0,0,1,.233.621a.692.692,0,0,1,.89-.4.694.694,0,0,1,.353.913.692.692,0,0,1-.89.4Z"/><path d="M1.192.061a.872.872,0,0,0-1.12.5A.866.866,0,0,0,.517,1.7a.872.872,0,0,0,1.12-.5A.866.866,0,0,0,1.192.061ZM.586,1.534A.694.694,0,0,1,.233.621a.692.692,0,0,1,.89-.4.694.694,0,0,1,.353.913.692.692,0,0,1-.89.4Z" fill="url(#ee)"/><path d="M.945.047a.692.692,0,0,0-.89.4.7.7,0,0,0,.353.913A.685.685,0,0,0,1.3.96.7.7,0,0,0,.945.047ZM.96.684A.1.1,0,0,1,.907.553L.976.385a.1.1,0,0,1,.13-.054l.146.061a.1.1,0,0,1,.054.13L1.237.692a.1.1,0,0,1-.13.054Z" transform="translate(0.178 0.182)"/><path d="M.945.047a.692.692,0,0,0-.89.4.7.7,0,0,0,.353.913A.685.685,0,0,0,1.3.96.7.7,0,0,0,.945.047ZM.96.684A.1.1,0,0,1,.907.553L.976.385a.1.1,0,0,1,.13-.054l.146.061a.1.1,0,0,1,.054.13L1.237.692a.1.1,0,0,1-.13.054Z" transform="translate(0.178 0.182)" fill="url(#ef)"/><path d="M.945.047a.692.692,0,0,0-.89.4.7.7,0,0,0,.353.913A.685.685,0,0,0,1.3.96.7.7,0,0,0,.945.047ZM.96.684A.1.1,0,0,1,.907.553L.976.385a.1.1,0,0,1,.13-.054l.146.061a.1.1,0,0,1,.054.13L1.237.692a.1.1,0,0,1-.13.054Z" transform="translate(0.178 0.182)" fill="url(#eg)"/><rect width="0.384" height="0.361" rx="0.13" transform="translate(1.044 0.824) rotate(-67.65)"/><rect width="0.384" height="0.361" rx="0.13" transform="translate(1.044 0.824) rotate(-67.65)" fill="url(#eh)"/><rect width="0.384" height="0.361" rx="0.13" transform="translate(1.044 0.824) rotate(-67.65)" fill="url(#ei)"/><rect width="0.384" height="0.361" rx="0.13" transform="translate(1.044 0.824) rotate(-67.65)" opacity="0.48" fill="url(#ej)"/></g><g transform="translate(66.726 16.802)"><g transform="translate(7.373 0.906)"><path d="M2.634.567A.2.2,0,0,1,2.8.782l-.084.729a.178.178,0,0,1-.207.153L.371,1.327A.212.212,0,0,1,.186,1.1L.279.322A.186.186,0,0,1,.509.168l2.126.4M2.65.414.524.007A.347.347,0,0,0,.094.3L0,1.081A.4.4,0,0,0,.348,1.5l2.133.322a.329.329,0,0,0,.384-.284L2.949.82a.37.37,0,0,0-.3-.4h0Z" opacity="0.32"/><path d="M.215,1.01H.177A.215.215,0,0,1,0,.787L.077.15A.175.175,0,0,1,.292,0H.323A.33.33,0,0,1,.591.35L.545.772A.274.274,0,0,1,.215,1Z" transform="translate(0.293 0.256)"/><path d="M.062.454H.047S-.007.415,0,.384L.039.047S.07-.007.1,0H.116a.163.163,0,0,1,.13.184L.231.323A.139.139,0,0,1,.062.446Z" transform="translate(3.017 0.981)" opacity="0.32"/></g><g transform="translate(4.06 0.483)"><path d="M.852.338l.023-.2L.361.038.138,0,.115.2.084.483l-.031.2L.023.975,0,1.174l.23.038.514.077.023-.2L.253,1.005.284.721.8.813l.023-.2L.307.522.338.238Z" transform="translate(1.819 0.338)"/><path d="M.023,0,0,.207.353.276l-.107.99.23.038L.591.315.936.384.959.177Z" transform="translate(0.806 0.123)"/><path d="M.384.046.138,0,.023,1.013,0,1.228l.246.038.568.084.023-.2L.269,1.059Z"/></g><path d="M.637.76,0,.66.069,0,.714.107Z" transform="translate(0 0.576)"/><path d="M.614,1,0,.906.1,0,.714.107Z" transform="translate(0.913 0.468)"/><path d="M.591,1.381,0,1.289.146,0,.737.107Z" transform="translate(1.788 0.215)"/><path d="M.568,1.719,0,1.635.184,0,.752.107Z" transform="translate(2.632)" opacity="0.32"/><path d="M7.261,1.222.232.416A.236.236,0,0,1,0,.178H0A.236.236,0,0,1,.278,0L7.3.877a.184.184,0,0,1,.161.192h0a.181.181,0,0,1-.2.153Z" transform="translate(1.38 2.722)" opacity="0.31"/></g><path d="M.188,57.824,10.387,0,23.894,2.586,21.108,60.365c-.338,6.393-12.532,4.681-12.532,4.681-5.725-1.1-9.478-1.5-8.388-7.221Z" transform="translate(14.439 97.443)" fill="#f4e378" fill-rule="evenodd"/><path d="M11.1,0,1.558.368C0,.591,0,1.358,0,5.2V24.381c.092,2.494.169,4.758,2.663,4.666l9.547-.368L11.1,0h0Z" transform="translate(11.826 70.015)" fill="#f4e378" fill-rule="evenodd"/><path d="M15.476.095c7.421.936,12.6,8.457,11.55,16.791S19.1,31.229,11.678,30.292-.916,21.835.136,13.5,8.063-.834,15.484.095h0Z" transform="translate(82.906 67.051)" fill="#013d44" fill-rule="evenodd"/><path d="M64.179,0l2.54,66.143L0,52.153,4.551,17.274,64.179,0Z" transform="translate(32.745 48.404)" fill="#f4e378" fill-rule="evenodd"/><rect width="19.899" height="36.252" rx="3.19" transform="translate(19.868 66.353) rotate(-2.2)" fill="#76b59d"/><path d="M5.866,72.677h0a2.11,2.11,0,0,1-2.218-2L0,2.221A2.11,2.11,0,0,1,2,0H2A2.11,2.11,0,0,1,4.216,2L7.861,70.459A2.11,2.11,0,0,1,5.866,72.677Z" transform="translate(93.683 46.046)" fill="#76b59d" fill-rule="evenodd"/><path d="M.289,8.293a.288.288,0,0,1-.276-.2A.28.28,0,0,1,.2,7.74L25.552.013A.28.28,0,0,1,25.9.2a.28.28,0,0,1-.192.353L.366,8.285A.417.417,0,0,1,.281,8.3Z" transform="translate(67.666 54.278)" fill="#8ed5eb"/><path d="M.289,3.88a.288.288,0,0,1-.276-.2A.28.28,0,0,1,.2,3.328L11.01.013A.28.28,0,0,1,11.363.2a.28.28,0,0,1-.192.353L.366,3.873a.417.417,0,0,1-.084.015Z" transform="translate(81.786 58.146)" fill="#8ed5eb"/><path d="M1.4,29.63a.287.287,0,0,1-.284-.276L0,.3A.29.29,0,0,1,.276,0a.3.3,0,0,1,.3.276L1.7,29.33a.29.29,0,0,1-.276.3H1.412Z" transform="translate(19.722 69.716)" fill="#8ed5eb"/><path d="M2,33.736a.28.28,0,0,1-.284-.269L0,.3A.284.284,0,1,1,.568.269L2.287,33.436a.284.284,0,0,1-.269.3Z" transform="translate(39.046 66.354)" fill="#8ed5eb"/><path d="M.581,6.608a.289.289,0,0,1-.269-.184A5.113,5.113,0,0,1,.4,2.671,5.074,5.074,0,0,1,3.067.024a.281.281,0,0,1,.376.153A.281.281,0,0,1,3.29.553,4.473,4.473,0,0,0,.842,6.232.29.29,0,0,1,.673,6.6a.227.227,0,0,1-.1.015Z" transform="translate(22.825 67.905)" fill="#8ed5eb"/><path d="M.285,4.169a.27.27,0,0,1-.092-.015.286.286,0,0,1-.177-.361A6.234,6.234,0,0,1,3.861.017a.288.288,0,0,1,.368.177.285.285,0,0,1-.177.368A5.716,5.716,0,0,0,.561,3.985a.278.278,0,0,1-.269.192Z" transform="translate(24.61 69.73)" fill="#8ed5eb"/><path d="M3.377,6.285s2.686-3.361,3-3.975L.468,4.159,0,3.054,8.71,0,8.9,1.128,5.756,5.41,10.69,4.344,11.243,6,3.776,7.528,3.369,6.285Z" transform="translate(103.055 43.079)" fill="#8ed5eb"/><path d="M3.377,6.285s2.686-3.361,3-3.975L.468,4.159,0,3.054,8.71,0,8.9,1.128,5.756,5.41,10.69,4.344,11.243,6,3.776,7.528,3.369,6.285Z" transform="translate(103.823 43.079)" fill="#76b59d"/><path d="M3.377,6.285s2.686-3.361,3-3.975L.468,4.159,0,3.054,8.71,0,8.9,1.128,5.756,5.41,10.69,4.344,11.243,6,3.776,7.528,3.369,6.285Z" transform="translate(117.606 53.393)" fill="#8ed5eb"/><path d="M3.377,6.285s2.686-3.361,3-3.975L.468,4.159,0,3.054,8.71,0,8.9,1.128,5.756,5.41,10.69,4.344,11.243,6,3.776,7.528,3.369,6.285Z" transform="translate(117.606 52.626)" fill="#76b59d"/><path d="M2.717,5.18s3.269-2.8,3.691-3.346L.253,2.54,0,1.366,9.132,0,9.109,1.143,5.218,4.758l5.042-.123L10.5,6.362l-7.62.107-.169-1.3Z" transform="translate(115.672 69.608)" fill="#8ed5eb"/><path d="M2.717,5.18s3.269-2.8,3.691-3.346L.253,2.54,0,1.366,9.132,0,9.109,1.143,5.218,4.758l5.042-.123L10.5,6.362l-7.62.107-.169-1.3Z" transform="translate(116.109 68.718)" fill="#76b59d"/><path d="M1.236,4.566s4.106-1.3,4.7-1.642L0,1.182.23,0l8.94,2.295L8.7,3.338l-5,1.811L8.4,7,7.95,8.687.9,5.817l.345-1.259Z" transform="translate(122.21 84.995)" fill="#8ed5eb"/><path d="M1.236,4.566s4.106-1.3,4.7-1.642L0,1.182.23,0l8.94,2.295L8.7,3.338l-5,1.811L8.4,7,7.95,8.687.9,5.817l.345-1.259Z" transform="translate(123.745 84.995)" fill="#76b59d"/><path d="M.89,4.643S5.1,3.76,5.733,3.492L0,1.151.345,0,9.009,3.192l-.568.99-5.157,1.3L7.766,7.8,7.145,9.431.414,5.863.89,4.651Z" transform="translate(108.742 95.37)" fill="#8ed5eb"/><path d="M.89,4.643S5.1,3.76,5.733,3.492L0,1.151.345,0,9.009,3.192l-.568.99-5.157,1.3L7.766,7.8,7.145,9.431.414,5.863.89,4.651Z" transform="translate(109.51 96.138)" fill="#76b59d"/></g></g></svg>