<?xml version="1.0" encoding="UTF-8"?><svg xmlns="http://www.w3.org/2000/svg" xmlns:xlink="http://www.w3.org/1999/xlink" viewBox="0 0 629 448"><defs><style>.cls-1{fill:url(#Degradado_sin_nombre_3-9);}.cls-1,.cls-2,.cls-3,.cls-4,.cls-5,.cls-6,.cls-7,.cls-8,.cls-9,.cls-10{mix-blend-mode:hard-light;}.cls-2{fill:url(#Degradado_sin_nombre_3-7);}.cls-3{fill:url(#Degradado_sin_nombre_3-4);}.cls-4{fill:url(#Degradado_sin_nombre_3-5);}.cls-5{fill:url(#Degradado_sin_nombre_3-2);}.cls-6{fill:url(#Degradado_sin_nombre_26318);}.cls-11{fill:url(#Degradado_sin_nombre_13);filter:url(#drop-shadow-2);}.cls-11,.cls-12,.cls-13{mix-blend-mode:overlay;}.cls-7{fill:url(#Degradado_sin_nombre_26318-2);}.cls-14{fill:url(#Degradado_sin_nombre_3-8);}.cls-15{fill:url(#Degradado_sin_nombre_3-3);}.cls-16{fill:url(#Degradado_sin_nombre_3-6);}.cls-17{fill:url(#Degradado_sin_nombre_58);}.cls-18{fill:#d4ecf9;filter:url(#drop-shadow-1);}.cls-19{fill:url(#Degradado_sin_nombre_3);}.cls-8{fill:url(#Degradado_sin_nombre_3-15);}.cls-9{fill:url(#Degradado_sin_nombre_3-11);}.cls-10{fill:url(#Degradado_sin_nombre_3-13);}.cls-20{isolation:isolate;}.cls-21{fill:url(#Degradado_sin_nombre_58-2);}.cls-22{fill:url(#Degradado_sin_nombre_3-10);}.cls-23{fill:url(#Degradado_sin_nombre_3-12);}.cls-24{fill:url(#Degradado_sin_nombre_3-14);}.cls-13{fill:url(#Degradado_sin_nombre_39);}</style><filter id="drop-shadow-1" filterUnits="userSpaceOnUse"><feOffset dx="0" dy="10"/><feGaussianBlur result="blur" stdDeviation="20"/><feFlood flood-color="#939393" flood-opacity=".3"/><feComposite in2="blur" operator="in"/><feComposite in="SourceGraphic"/></filter><linearGradient id="Degradado_sin_nombre_39" x1="11.08" y1="-462.21" x2="11.08" y2="119.24" gradientTransform="translate(179.36 333.86) rotate(45)" gradientUnits="userSpaceOnUse"><stop offset="0" stop-color="#fff" stop-opacity="0"/><stop offset=".14" stop-color="#fff" stop-opacity=".01"/><stop offset=".27" stop-color="#fff" stop-opacity=".06"/><stop offset=".39" stop-color="#fff" stop-opacity=".13"/><stop offset=".51" stop-color="#fff" stop-opacity=".23"/><stop offset=".63" stop-color="#fff" stop-opacity=".36"/><stop offset=".74" stop-color="#fff" stop-opacity=".52"/><stop offset=".86" stop-color="#fff" stop-opacity=".71"/><stop offset=".97" stop-color="#fff" stop-opacity=".93"/><stop offset="1" stop-color="#fff"/></linearGradient><linearGradient id="Degradado_sin_nombre_13" x1="11.08" y1="-463.91" x2="11.08" y2="121.05" gradientTransform="translate(179.36 333.86) rotate(45)" gradientUnits="userSpaceOnUse"><stop offset="0" stop-color="#fff" stop-opacity=".7"/><stop offset=".13" stop-color="#fefefe" stop-opacity=".68"/><stop offset=".28" stop-color="#fdfdfd" stop-opacity=".63"/><stop offset=".44" stop-color="#fbfbfb" stop-opacity=".54"/><stop offset=".61" stop-color="#f8f8f8" stop-opacity=".41"/><stop offset=".78" stop-color="#f4f4f4" stop-opacity=".25"/><stop offset=".96" stop-color="#f0f0f0" stop-opacity=".05"/><stop offset="1" stop-color="#efefef" stop-opacity="0"/></linearGradient><filter id="drop-shadow-2" filterUnits="userSpaceOnUse"><feOffset dx="-8" dy="10"/><feGaussianBlur result="blur-2" stdDeviation="7"/><feFlood flood-color="#3cc2f9" flood-opacity=".75"/><feComposite in2="blur-2" operator="in"/><feComposite in="SourceGraphic"/></filter><radialGradient id="Degradado_sin_nombre_26318" cx="11622.89" cy="-15503.19" fx="11622.89" fy="-15503.19" r="6.64" gradientTransform="translate(-51707.27 12721.44) scale(4.46 .8)" gradientUnits="userSpaceOnUse"><stop offset="0" stop-color="#fff" stop-opacity=".6"/><stop offset=".15" stop-color="#fff" stop-opacity=".45"/><stop offset=".33" stop-color="#fff" stop-opacity=".29"/><stop offset=".52" stop-color="#fff" stop-opacity=".16"/><stop offset=".69" stop-color="#fff" stop-opacity=".07"/><stop offset=".86" stop-color="#fff" stop-opacity=".02"/><stop offset="1" stop-color="#fff" stop-opacity="0"/></radialGradient><radialGradient id="Degradado_sin_nombre_58" cx="11816.01" cy="-30010.11" fx="11816.01" fy="-30010.11" r="4.2" gradientTransform="translate(-67818.44 19251.08) scale(5.75 .63)" gradientUnits="userSpaceOnUse"><stop offset="0" stop-color="#fff"/><stop offset="0" stop-color="#fff" stop-opacity=".96"/><stop offset=".05" stop-color="#fff" stop-opacity=".78"/><stop offset=".09" stop-color="#fff" stop-opacity=".61"/><stop offset=".14" stop-color="#fff" stop-opacity=".47"/><stop offset=".2" stop-color="#fff" stop-opacity=".34"/><stop offset=".25" stop-color="#fff" stop-opacity=".23"/><stop offset=".32" stop-color="#fff" stop-opacity=".15"/><stop offset=".4" stop-color="#fff" stop-opacity=".08"/><stop offset=".49" stop-color="#fff" stop-opacity=".03"/><stop offset=".63" stop-color="#fff" stop-opacity="0"/><stop offset="1" stop-color="#fff" stop-opacity="0"/></radialGradient><radialGradient id="Degradado_sin_nombre_3" cx="62840.71" cy="11659.46" fx="62840.71" fy="11659.46" r="6.14" gradientTransform="translate(11977.81 21972.28) rotate(-180) scale(.19 1.85)" gradientUnits="userSpaceOnUse"><stop offset="0" stop-color="#fff"/><stop offset=".05" stop-color="#fff" stop-opacity=".89"/><stop offset=".15" stop-color="#fff" stop-opacity=".69"/><stop offset=".26" stop-color="#fff" stop-opacity=".5"/><stop offset=".37" stop-color="#fff" stop-opacity=".35"/><stop offset=".48" stop-color="#fff" stop-opacity=".22"/><stop offset=".6" stop-color="#fff" stop-opacity=".12"/><stop offset=".72" stop-color="#fff" stop-opacity=".05"/><stop offset=".85" stop-color="#fff" stop-opacity=".01"/><stop offset="1" stop-color="#fff" stop-opacity="0"/></radialGradient><radialGradient id="Degradado_sin_nombre_3-2" cx="62840.65" cy="16452.77" fx="62840.65" fy="16452.77" r="2.13" gradientTransform="translate(11977.79 16826) rotate(-180) scale(.19 1)" xlink:href="#Degradado_sin_nombre_3"/><radialGradient id="Degradado_sin_nombre_3-3" cx="-10620.26" cy="7385.09" fx="-10620.26" fy="7385.09" r="6.14" gradientTransform="translate(13512.89 2612.75) rotate(90) scale(.21 1.81)" xlink:href="#Degradado_sin_nombre_3"/><radialGradient id="Degradado_sin_nombre_3-4" cx="-10620.28" cy="8963.35" fx="-10620.28" fy="8963.35" r="2.13" gradientTransform="translate(9085.79 2612.76) rotate(90) scale(.21 1)" xlink:href="#Degradado_sin_nombre_3"/><radialGradient id="Degradado_sin_nombre_3-5" cx="62840.65" cy="16452.77" fx="62840.65" fy="16452.77" r="2.13" gradientTransform="translate(11977.79 16826) rotate(-180) scale(.19 1)" xlink:href="#Degradado_sin_nombre_3"/><radialGradient id="Degradado_sin_nombre_3-6" cx="-10620.26" cy="7385.09" fx="-10620.26" fy="7385.09" r="6.14" gradientTransform="translate(13512.89 2612.75) rotate(90) scale(.21 1.81)" xlink:href="#Degradado_sin_nombre_3"/><radialGradient id="Degradado_sin_nombre_3-7" cx="-10620.28" cy="8963.35" fx="-10620.28" fy="8963.35" r="2.13" gradientTransform="translate(9085.79 2612.76) rotate(90) scale(.21 1)" xlink:href="#Degradado_sin_nombre_3"/><radialGradient id="Degradado_sin_nombre_26318-2" cx="12179.79" cy="5694.49" fx="12179.79" fy="5694.49" r="6.64" gradientTransform="translate(54798.15 4590.61) rotate(-180) scale(4.46 .8)" xlink:href="#Degradado_sin_nombre_26318"/><radialGradient id="Degradado_sin_nombre_58-2" cx="12247.93" cy="-3169.87" fx="12247.93" fy="-3169.87" r="4.2" gradientTransform="translate(70909.32 -1939.02) rotate(180) scale(5.75 .63)" xlink:href="#Degradado_sin_nombre_58"/><radialGradient id="Degradado_sin_nombre_3-8" cx="49675.36" cy="2545.38" fx="49675.36" fy="2545.38" r="6.14" gradientTransform="translate(-8886.92 -4660.23) scale(.19 1.85)" xlink:href="#Degradado_sin_nombre_3"/><radialGradient id="Degradado_sin_nombre_3-9" cx="49675.3" cy="-431.03" fx="49675.3" fy="-431.03" r="2.13" gradientTransform="translate(-8886.91 486.06) scale(.19 1)" xlink:href="#Degradado_sin_nombre_3"/><radialGradient id="Degradado_sin_nombre_3-10" cx="69450.42" cy="6015.27" fx="69450.42" fy="6015.27" r="6.14" gradientTransform="translate(-10422.01 14699.31) rotate(-90) scale(.21 1.81)" xlink:href="#Degradado_sin_nombre_3"/><radialGradient id="Degradado_sin_nombre_3-11" cx="69450.4" cy="6479.62" fx="69450.4" fy="6479.62" r="2.13" gradientTransform="translate(-5994.9 14699.3) rotate(-90) scale(.21 1)" xlink:href="#Degradado_sin_nombre_3"/><radialGradient id="Degradado_sin_nombre_3-12" cx="49675.36" cy="2545.38" fx="49675.36" fy="2545.38" r="6.14" gradientTransform="translate(-8886.92 -4660.23) scale(.19 1.85)" xlink:href="#Degradado_sin_nombre_3"/><radialGradient id="Degradado_sin_nombre_3-13" cx="49675.3" cy="-431.03" fx="49675.3" fy="-431.03" r="2.13" gradientTransform="translate(-8886.91 486.06) scale(.19 1)" xlink:href="#Degradado_sin_nombre_3"/><radialGradient id="Degradado_sin_nombre_3-14" cx="69450.42" cy="6015.27" fx="69450.42" fy="6015.27" r="6.14" gradientTransform="translate(-10422.01 14699.31) rotate(-90) scale(.21 1.81)" xlink:href="#Degradado_sin_nombre_3"/><radialGradient id="Degradado_sin_nombre_3-15" cx="69450.4" cy="6479.62" fx="69450.4" fy="6479.62" r="2.13" gradientTransform="translate(-5994.9 14699.3) rotate(-90) scale(.21 1)" xlink:href="#Degradado_sin_nombre_3"/></defs><g class="cls-20"><g id="Layer_2"><g id="Backgtound"><rect class="cls-18" x="60.3" y="50.76" width="508.33" height="326.89" rx="5.64" ry="5.64"/><g><g><path class="cls-13" d="M66.63,368.21V60.65c0-2.53,2.05-4.59,4.59-4.59h486.49c2.53,0,4.59,2.05,4.59,4.59V368.21c0,2.53-2.05,4.59-4.59,4.59H71.22c-2.53,0-4.59-2.05-4.59-4.59Z"/><path class="cls-11" d="M564.02,368.21V60.65c0-1.68-.66-3.27-1.85-4.46-1.19-1.19-2.77-1.85-4.46-1.85H71.22c-1.68,0-3.27,.66-4.46,1.85-1.19,1.19-1.85,2.77-1.85,4.46V368.21c0,1.68,.66,3.27,1.85,4.46,1.19,1.19,2.77,1.85,4.46,1.85h486.5c3.48,0,6.3-2.83,6.31-6.31Zm-6.31,4.59H71.22c-2.53,0-4.59-2.05-4.59-4.59V60.65c0-2.53,2.05-4.59,4.59-4.59h486.49c2.53,0,4.59,2.05,4.59,4.59V368.21c0,2.53-2.05,4.59-4.59,4.59Z"/></g><g><g class="cls-12"><g><path class="cls-6" d="M158.84,373.38c0,2.92-13.25,5.29-29.6,5.29-16.35,0-29.6-2.37-29.6-5.29,0-2.92,13.25-5.29,29.6-5.29,16.35,0,29.6,2.37,29.6,5.29Z"/><path class="cls-17" d="M153.41,373.38c0,1.46-10.83,2.64-24.18,2.64-13.35,0-24.18-1.18-24.18-2.64,0-1.46,10.83-2.64,24.18-2.64,13.35,0,24.18,1.18,24.18,2.64Z"/></g><g><g><path class="cls-19" d="M121.36,373.38c0-6.28,.52-11.37,1.16-11.37,.64,0,1.16,5.09,1.16,11.37,0,6.28-.52,11.37-1.16,11.37-.64,0-1.16-5.09-1.16-11.37Z"/><path class="cls-5" d="M122.12,373.38c0-1.17,.18-2.13,.4-2.13,.22,0,.4,.95,.4,2.13,0,1.17-.18,2.13-.4,2.13-.22,0-.4-.95-.4-2.13Z"/></g><g><path class="cls-15" d="M122.52,374.68c-6.15,0-11.13-.58-11.13-1.3,0-.72,4.98-1.3,11.13-1.3,6.15,0,11.13,.58,11.13,1.3,0,.72-4.98,1.3-11.13,1.3Z"/><path class="cls-3" d="M122.52,373.83c-1.17,0-2.13-.2-2.13-.45,0-.25,.95-.45,2.13-.45,1.17,0,2.13,.2,2.13,.45,0,.25-.95,.45-2.13,.45Z"/></g></g><g><g><path class="cls-19" d="M121.36,373.38c0-6.28,.52-11.37,1.16-11.37,.64,0,1.16,5.09,1.16,11.37,0,6.28-.52,11.37-1.16,11.37-.64,0-1.16-5.09-1.16-11.37Z"/><path class="cls-4" d="M122.12,373.38c0-1.17,.18-2.13,.4-2.13,.22,0,.4,.95,.4,2.13,0,1.17-.18,2.13-.4,2.13-.22,0-.4-.95-.4-2.13Z"/></g><g><path class="cls-16" d="M122.52,374.68c-6.15,0-11.13-.58-11.13-1.3,0-.72,4.98-1.3,11.13-1.3,6.15,0,11.13,.58,11.13,1.3,0,.72-4.98,1.3-11.13,1.3Z"/><path class="cls-2" d="M122.52,373.83c-1.17,0-2.13-.2-2.13-.45,0-.25,.95-.45,2.13-.45,1.17,0,2.13,.2,2.13,.45,0,.25-.95,.45-2.13,.45Z"/></g></g></g><g class="cls-12"><g><path class="cls-7" d="M448.32,55.03c0-2.92,13.25-5.29,29.6-5.29,16.35,0,29.6,2.37,29.6,5.29,0,2.92-13.25,5.29-29.6,5.29-16.35,0-29.6-2.37-29.6-5.29Z"/><path class="cls-21" d="M453.74,55.03c0-1.46,10.83-2.64,24.18-2.64,13.35,0,24.18,1.18,24.18,2.64,0,1.46-10.83,2.64-24.18,2.64-13.35,0-24.18-1.18-24.18-2.64Z"/></g><g><g><path class="cls-14" d="M485.79,55.03c0,6.28-.52,11.37-1.16,11.37-.64,0-1.16-5.09-1.16-11.37,0-6.28,.52-11.37,1.16-11.37s1.16,5.09,1.16,11.37Z"/><path class="cls-1" d="M485.04,55.03c0,1.17-.18,2.13-.4,2.13-.22,0-.4-.95-.4-2.13,0-1.17,.18-2.13,.4-2.13s.4,.95,.4,2.13Z"/></g><g><path class="cls-22" d="M484.64,53.74c6.15,0,11.13,.58,11.13,1.3,0,.72-4.98,1.3-11.13,1.3-6.15,0-11.13-.58-11.13-1.3,0-.72,4.98-1.3,11.13-1.3Z"/><path class="cls-9" d="M484.64,54.58c1.17,0,2.13,.2,2.13,.45,0,.25-.95,.45-2.13,.45-1.17,0-2.13-.2-2.13-.45,0-.25,.95-.45,2.13-.45Z"/></g></g><g><g><path class="cls-23" d="M485.79,55.03c0,6.28-.52,11.37-1.16,11.37-.64,0-1.16-5.09-1.16-11.37,0-6.28,.52-11.37,1.16-11.37s1.16,5.09,1.16,11.37Z"/><path class="cls-10" d="M485.04,55.03c0,1.17-.18,2.13-.4,2.13-.22,0-.4-.95-.4-2.13,0-1.17,.18-2.13,.4-2.13s.4,.95,.4,2.13Z"/></g><g><path class="cls-24" d="M484.64,53.74c6.15,0,11.13,.58,11.13,1.3,0,.72-4.98,1.3-11.13,1.3-6.15,0-11.13-.58-11.13-1.3,0-.72,4.98-1.3,11.13-1.3Z"/><path class="cls-8" d="M484.64,54.58c1.17,0,2.13,.2,2.13,.45,0,.25-.95,.45-2.13,.45-1.17,0-2.13-.2-2.13-.45,0-.25,.95-.45,2.13-.45Z"/></g></g></g></g></g></g></g></g></svg>