<?xml version="1.0" encoding="UTF-8"?><svg xmlns="http://www.w3.org/2000/svg" xmlns:xlink="http://www.w3.org/1999/xlink" viewBox="0 0 1366.32 868.22"><defs><style>.cls-1,.cls-2{fill:none;}.cls-3{clip-path:url(#clippath);}.cls-4{fill:#f8e6cb;mix-blend-mode:overlay;}.cls-5{fill:url(#linear-gradient);}.cls-5,.cls-6,.cls-7,.cls-8{mix-blend-mode:multiply;opacity:.2;}.cls-6{fill:url(#linear-gradient-5);}.cls-7{fill:url(#linear-gradient-2);}.cls-8{fill:url(#linear-gradient-4);}.cls-9{fill:url(#linear-gradient-3);mix-blend-mode:soft-light;}.cls-10{fill:url(#Degradado_sin_nombre_22);}.cls-2{stroke:#d8d8d8;stroke-miterlimit:10;}.cls-11{opacity:.5;}.cls-12{isolation:isolate;}</style><clipPath id="clippath"><rect class="cls-1" x="0" width="1366.32" height="868.22"/></clipPath><linearGradient id="Degradado_sin_nombre_22" x1="683.32" y1="-83.17" x2="683.32" y2="868.22" gradientUnits="userSpaceOnUse"><stop offset="0" stop-color="#f7ffff"/><stop offset="1" stop-color="#e3dbdb"/></linearGradient><linearGradient id="linear-gradient" x1="626.26" y1="937.59" x2="1171.27" y2="937.59" gradientUnits="userSpaceOnUse"><stop offset="0" stop-color="#d1d5de"/><stop offset="1" stop-color="#dbdbdb"/></linearGradient><linearGradient id="linear-gradient-2" x1="-163.78" y1="870.7" x2="381.23" y2="870.7" xlink:href="#linear-gradient"/><linearGradient id="linear-gradient-3" x1="328.43" y1="834.14" x2="847.13" y2="834.14" xlink:href="#linear-gradient"/><linearGradient id="linear-gradient-4" x1="1002.6" y1="87.64" x2="1410.56" y2="87.64" xlink:href="#linear-gradient"/><linearGradient id="linear-gradient-5" x1="-27.01" y1="96.61" x2="506.48" y2="96.61" xlink:href="#linear-gradient"/></defs><g class="cls-12"><g id="Layer_2"><g id="Reg1"><g class="cls-11"><g class="cls-3"><rect class="cls-10" x="-2.72" y="-83.17" width="1372.08" height="951.39"/><path class="cls-5" d="M1118.15,1021.24c-8.04-23.08-5.83-48.41-1.58-72.48,4.25-24.07,10.46-48.04,10.14-72.48-.53-39.91-19.66-79.24-50.9-104.09-31.23-24.85-73.99-34.64-112.87-25.6-24.58,5.72-47.7,18.51-72.91,19.54-25.89,1.07-50.5-10.37-75.99-15.05-60.52-11.11-125.39,19.34-159.26,70.72-33.87,51.38-37.08,120.29-12.3,176.61,24.78,56.32,75.6,99.52,133.79,119.53,58.19,20,122.95,17.68,181.33-1.78,28.62-9.54,55.88-23.05,84.91-31.27,29.03-8.23,61.09-10.8,88.68,1.41l40.08-21.16c-24.43-.65-45.07-20.83-53.11-43.9Z"/><path class="cls-7" d="M328.11,954.35c-8.04-23.08-5.83-48.41-1.58-72.48,4.25-24.07,10.46-48.04,10.14-72.48-.53-39.91-19.66-79.24-50.9-104.09-31.23-24.85-73.99-34.64-112.87-25.6-24.58,5.72-47.7,18.51-72.91,19.54-25.89,1.07-50.5-10.37-75.99-15.05-60.52-11.11-125.39,19.34-159.26,70.72-33.87,51.38-37.08,120.29-12.3,176.61,24.78,56.32,75.6,99.52,133.79,119.53,58.19,20,122.95,17.68,181.33-1.78,28.62-9.54,55.88-23.05,84.91-31.27,29.03-8.23,61.09-10.8,88.68,1.41l40.08-21.16c-24.43-.65-45.07-20.83-53.11-43.91Z"/><path class="cls-4" d="M1410.56,603.94v271.34h-390.49c1.31-11.44,3.71-22.76,7.32-33.77,12.18-37.29,38.6-69.94,72.09-89.92,17.7-10.57,37.38-17.6,57.98-19.9,26.82-3,57.06,.62,77.74-16.73,12.44-10.44,18.48-26.38,26.23-40.65,22.07-40.61,63.65-71.69,109.75-74.96,13.23-.94,26.63,.72,39.37,4.58Z"/><path class="cls-9" d="M847.13,909.88H328.43c1.56-14.62,5.24-29.08,10.59-42.76,12.51-31.94,37.53-62.38,71.49-67.23,14.65-2.09,29.03,.75,42.96,5.91,19.96,7.4,42.32,1.37,56.02-14.93,9.67-11.5,22.11-20.7,36.08-26.23,25.87-10.26,56.47-7.75,80.32,6.56,7.08,4.25,13.57,9.45,19.83,14.98,17.83,15.71,33.85,34.09,56.3,40.93,23.34,7.09,48.86-.03,72.78,4.75,35.07,7.01,60.83,39,71.02,73.28,.47,1.57,.91,3.15,1.31,4.74Z"/><circle class="cls-4" cx="698.97" cy="185.56" r="36.38" transform="translate(363.81 826.39) rotate(-77.26)"/><circle class="cls-4" cx="1289.31" cy="486.59" r="12.49" transform="translate(1.31 976.63) rotate(-41.51)"/><circle class="cls-4" cx="194.62" cy="368.53" r="12.49" transform="translate(-195.35 221.52) rotate(-41.51)"/><path class="cls-4" d="M1238.25,570.28c0,3.45-2.8,6.24-6.24,6.24s-6.24-2.8-6.24-6.24,2.8-6.24,6.24-6.24,6.24,2.8,6.24,6.24Z"/><path class="cls-4" d="M1183.6,615.48c0,3.45-2.8,6.24-6.24,6.24s-6.24-2.8-6.24-6.24,2.8-6.24,6.24-6.24,6.24,2.8,6.24,6.24Z"/><g><path class="cls-2" d="M-44.32,18.17c41.52-.05,82.67,19.07,109.41,50.83,23.19,27.55,35.13,62.73,55.02,92.74,19.89,30.01,53.48,56.34,88.88,49.74,24.3-4.53,43.62-23.91,55.05-45.83,11.43-21.92,16.38-46.52,22.5-70.47,6.12-23.95,13.89-48.27,29.73-67.25,20.08-24.06,52.67-37.05,83.8-33.39"/><path class="cls-2" d="M-30.41,16.65c38.92-.05,77.5,17.88,102.56,47.65,21.74,25.82,32.93,58.8,51.58,86.94,18.65,28.13,50.13,52.81,83.32,46.63,22.78-4.24,40.89-22.41,51.61-42.96,10.71-20.55,15.35-43.61,21.09-66.06,5.74-22.45,13.02-45.25,27.87-63.04,18.82-22.56,49.38-34.73,78.55-31.3"/><path class="cls-2" d="M-16.51,15.14c36.32-.04,72.33,16.68,95.72,44.47,20.29,24.1,30.73,54.88,48.13,81.13,17.4,26.26,46.79,49.28,77.75,43.52,21.26-3.96,38.16-20.92,48.16-40.09,10-19.18,14.33-40.7,19.68-61.65,5.35-20.95,12.15-42.23,26.01-58.83,17.56-21.05,46.08-32.41,73.31-29.21"/><path class="cls-2" d="M-2.6,13.62c33.72-.04,67.15,15.49,88.87,41.29,18.83,22.37,28.53,50.95,44.69,75.33,16.16,24.38,43.44,45.76,72.19,40.4,19.74-3.68,35.43-19.42,44.71-37.23,9.28-17.81,13.3-37.79,18.27-57.24,4.97-19.46,11.28-39.21,24.15-54.63,16.31-19.54,42.78-30.09,68.06-27.12"/><path class="cls-2" d="M11.3,12.1c31.12-.04,61.98,14.3,82.02,38.11,17.38,20.65,26.34,47.03,41.25,69.52,14.91,22.5,40.09,42.23,66.63,37.29,18.22-3.39,32.7-17.92,41.27-34.36,8.57-16.43,12.28-34.88,16.87-52.83,4.59-17.96,10.41-36.19,22.29-50.42,15.05-18.04,39.49-27.78,62.82-25.03"/></g><g><path class="cls-2" d="M842.96,937.59c-7.34-26.79-12.7-55.99-2.43-81.8,13.45-33.82,50.75-52.76,86.89-57.1,36.14-4.34,72.52,2.83,108.81,5.59,36.29,2.76,75.16,.37,105.07-20.36,41.49-28.76,55.1-84.8,92.53-118.66,31.21-28.24,78.33-37.55,117.94-23.3"/><path class="cls-2" d="M870.45,937.59c-6.94-25.34-12.01-52.96-2.3-77.38,12.72-31.99,48.01-49.91,82.2-54.02,34.18-4.11,68.6,2.68,102.94,5.29,34.33,2.61,71.1,.35,99.4-19.26,39.24-27.2,52.12-80.22,87.54-112.25,29.53-26.71,74.1-35.52,111.57-22.05"/><path class="cls-2" d="M897.93,937.59c-6.55-23.9-11.33-49.94-2.17-72.96,11.99-30.17,45.27-47.06,77.5-50.93,32.23-3.87,64.69,2.53,97.06,4.99,32.37,2.46,67.04,.33,93.72-18.16,37-25.65,49.15-75.64,82.54-105.84,27.84-25.19,69.87-33.49,105.2-20.79"/><path class="cls-2" d="M925.42,937.59c-6.15-22.45-10.64-46.91-2.04-68.54,11.27-28.34,42.53-44.21,72.81-47.85,30.28-3.64,60.77,2.37,91.18,4.69,30.41,2.31,62.98,.31,88.05-17.06,34.76-24.1,46.17-71.06,77.54-99.43,26.16-23.66,65.64-31.46,98.82-19.53"/><path class="cls-2" d="M952.91,937.59c-5.75-21-9.95-43.89-1.91-64.13,10.54-26.51,39.79-41.36,68.12-44.76,28.33-3.4,56.85,2.22,85.3,4.38,28.45,2.16,58.92,.29,82.37-15.96,32.52-22.54,43.19-66.47,72.54-93.02,24.47-22.14,61.4-29.43,92.45-18.27"/></g><g><path class="cls-2" d="M-84.3,414.28c-1.09,25.84,17.58,48.96,39.76,62.26,22.18,13.3,47.87,19.17,72.25,27.77,24.38,8.61,48.98,21.16,62.72,43.07,24.44,38.98,5.93,89.15,2.42,135.02-5.31,69.41,29.12,140.49,86.87,179.35"/><path class="cls-2" d="M-99.49,423.23c-1.09,25.84,17.58,48.96,39.76,62.26,22.18,13.3,47.87,19.17,72.25,27.77,24.38,8.61,48.98,21.16,62.72,43.07,24.44,38.98,5.93,89.15,2.42,135.02-5.31,69.41,29.12,140.49,86.87,179.35"/><path class="cls-2" d="M-114.68,432.19c-1.09,25.84,17.58,48.96,39.76,62.26,22.18,13.3,47.87,19.17,72.25,27.77,24.38,8.61,48.98,21.16,62.72,43.07,24.44,38.98,5.93,89.15,2.42,135.02-5.31,69.41,29.12,140.49,86.87,179.35"/><path class="cls-2" d="M-129.86,441.14c-1.09,25.84,17.58,48.96,39.76,62.26,22.18,13.3,47.87,19.17,72.25,27.77,24.38,8.61,48.98,21.16,62.72,43.07,24.44,38.98,5.93,89.15,2.42,135.02-5.31,69.41,29.12,140.49,86.87,179.35"/></g><g><path class="cls-2" d="M1121.72,27.14c3.85,27.32,27.92,47.98,53.76,57.65,25.84,9.67,53.94,10.86,81.19,15.18,27.25,4.32,55.5,12.74,74.15,33.07,33.19,36.18,23.46,92.41,28.64,141.23,7.84,73.87,57.72,141.81,125.84,171.42"/><path class="cls-2" d="M1107.51,39.47c3.85,27.32,27.91,47.98,53.76,57.65,25.84,9.67,53.94,10.86,81.19,15.18,27.25,4.32,55.5,12.74,74.15,33.07,33.19,36.18,23.46,92.41,28.64,141.23,7.84,73.87,57.72,141.81,125.84,171.42"/><path class="cls-2" d="M1093.31,51.8c3.85,27.32,27.91,47.98,53.76,57.65,25.84,9.67,53.94,10.86,81.19,15.18,27.25,4.32,55.5,12.74,74.15,33.07,33.19,36.18,23.46,92.41,28.65,141.23,7.84,73.87,57.72,141.81,125.84,171.42"/><path class="cls-2" d="M1079.1,64.14c3.85,27.32,27.91,47.98,53.76,57.65,25.84,9.67,53.94,10.86,81.19,15.18,27.25,4.32,55.5,12.74,74.15,33.07,33.19,36.18,23.46,92.41,28.65,141.23,7.84,73.87,57.72,141.81,125.84,171.42"/></g><path class="cls-8" d="M1410.56-83.17h-351.98c-10.47,9.27-19.77,19.85-27.46,31.52-33.87,51.38-37.08,120.29-12.3,176.61,24.78,56.32,75.6,99.52,133.79,119.53,58.19,20,122.95,17.68,181.33-1.78,25.88-8.63,50.65-20.48,76.62-28.76V-83.17Z"/><path class="cls-6" d="M506.48-5.05c-4.54,26.89-15.43,52.71-32.18,74.27-33.04,42.52-87.82,67.18-141.55,63.71-5.71-.36-11.46-1.01-17.23-1.79-30.18-4.04-60.94-11.42-88.01,1.18-22.99,10.7-37.68,33.67-58.43,48.24-27.14,19.06-63.67,22.18-95.24,12.01-31.56-10.17-59.5-31.66-77.84-59.29C-40.48,78.29-22.65-5.05-22.65-5.05H506.48Z"/><path class="cls-4" d="M1110.94-5.98c-6.69,6.22-14.44,11.26-23.07,14.59-15.59,6.03-33.17,7.19-47.32,16.08-18.64,11.71-27.31,34.21-32,55.72-4.68,21.51-6.82,44.12-17.42,63.41-21.96,40.03-76.57,53.8-119.87,39.28-28.82-9.67-52.9-29.16-72.31-52.9-9.73-11.91-18.29-24.88-25.68-38.22-16.69-30.15-28.93-63.35-51.82-89.1-2.75-3.11-5.74-6.07-8.9-8.87h398.39Z"/></g></g></g></g></g></svg>