<?xml version="1.0" encoding="UTF-8"?><svg id="Layer_2" xmlns="http://www.w3.org/2000/svg" viewBox="0 0 30 30.01"><defs><style>.cls-1{fill:#003d44;}.cls-2{fill:#f4e478;}.cls-3{fill:#ccb2b2;}</style></defs><g id="Layer_1-2"><g><path class="cls-2" d="m5.13,25.74c5.69,5.69,14.92,5.69,20.61,0s5.69-14.92,0-20.61h0L5.13,25.74Z"/><path class="cls-2" d="m4.27,24.88c-5.69-5.69-5.69-14.92,0-20.61s14.92-5.69,20.61,0L4.27,24.88Z"/><circle class="cls-3" cx="15.01" cy="14.99" r="14.99"/><g><path class="cls-1" d="m8.88,11.76c-.19-.09-.37-.19-.54-.3-.51-.35-.75-.97-.63-1.58.08-.64.57-1.15,1.21-1.26.45-.06.91-.08,1.37-.07.37,0,.75,0,1.14,0,.01-.24.02-.45.04-.66.04-.82.7-1.48,1.52-1.52,1.34-.03,2.67-.03,4.01,0,.84.04,1.5.72,1.52,1.56.01.19,0,.37,0,.62h1.95c.9-.12,1.72.52,1.83,1.41.11.81-.4,1.57-1.19,1.79v10.25c.03.65-.2,1.29-.65,1.77-.37.4-.9.63-1.45.63-2.69,0-5.37.01-8.06,0-1.19-.04-2.13-1.03-2.09-2.22,0-.02,0-.05,0-.07,0-3.19,0-6.39,0-9.58v-.76h0Zm.85.03v10.07c0,.14,0,.28,0,.42.02.7.6,1.26,1.31,1.26,2.64,0,5.28,0,7.92,0,.61.01,1.15-.42,1.26-1.02.04-.18.06-.37.06-.56,0-3.29,0-6.57,0-9.86,0-.1-.01-.2-.02-.32h-10.53,0Zm5.28-.86h5.56c.55,0,.91-.31.9-.77s-.35-.75-.91-.76h-10.97c-.12,0-.23,0-.35,0-.36.04-.65.33-.69.69-.05.48.33.83.91.83h5.56Zm2.67-2.39c.12-.92-.17-1.38-1.18-1.34-1.04.04-2.09.04-3.13,0-.7-.03-1.24.36-1,1.34h5.31Z"/><path class="cls-1" d="m15.43,17.31v3.73c0,.1.03.24-.02.31-.11.14-.27.34-.41.34s-.29-.2-.4-.35c-.05-.07-.02-.2-.02-.31v-7.46c0-.09,0-.19,0-.28.03-.24.18-.42.42-.37.17.07.31.2.4.35.06.08.02.23.02.34v3.69h0Z"/><path class="cls-1" d="m17.91,17.29v3.69c0,.12.04.26-.02.35-.1.15-.25.34-.39.35-.12.02-.29-.18-.4-.3-.05-.06-.04-.18-.04-.27v-7.6c0-.06,0-.12,0-.18.04-.26.16-.45.45-.43.22,0,.4.19.39.41,0,.01,0,.03,0,.04v3.94h0Z"/><path class="cls-1" d="m12.09,17.27v-3.66c0-.13-.03-.29.03-.38.09-.15.22-.26.39-.31.12-.01.29.15.38.28.05.12.06.25.04.38v7.59c0,.29-.09.53-.42.53s-.42-.24-.42-.53v-3.9h0Z"/></g></g></g></svg>