<?xml version="1.0" encoding="UTF-8"?><svg id="Layer_2" xmlns="http://www.w3.org/2000/svg" viewBox="0 0 35.06 35.04"><defs><style>.cls-1{fill:#f4e478;}.cls-2{fill:#a3ddef;}.cls-3{fill:#1e3e44;}.cls-4{stroke-linecap:round;}.cls-4,.cls-5{fill:none;stroke:#1e3e44;stroke-miterlimit:10;}</style></defs><g id="Layer_1-2"><g><path class="cls-1" d="m5.18,29.93c6.86,6.8,17.94,6.76,24.75-.11,6.76-6.82,6.76-17.82,0-24.64L5.18,29.93Z"/><path class="cls-1" d="m5.18,29.93c-6.86-6.8-6.91-17.88-.11-24.75s17.89-6.91,24.75-.11c.04.04.07.07.11.11L5.18,29.93Z"/><circle class="cls-2" cx="17.56" cy="17.54" r="17.49"/><g><path class="cls-5" d="m12.83,9.46h9.3c.62,0,1.14.49,1.15,1.11,0,0,0,0,0,.01v15.07h-10.45c-.54-.03-.98-.45-1.02-.99v-14.08c-.09-.52.26-1.02.79-1.11.08-.01.16-.02.24-.01Z"/><line class="cls-4" x1="14.11" y1="11.87" x2="20.96" y2="11.87"/><line class="cls-4" x1="14.11" y1="13.98" x2="20.96" y2="13.98"/><line class="cls-4" x1="14.11" y1="16.43" x2="20.96" y2="16.43"/><line class="cls-4" x1="14.11" y1="18.8" x2="20.96" y2="18.8"/><line class="cls-4" x1="14.11" y1="21.16" x2="17.99" y2="21.16"/><line class="cls-4" x1="14.11" y1="23.37" x2="17.99" y2="23.37"/><path class="cls-3" d="m19.29,22.91l.8-1.26,1.26,1.03,3.54-5.25,1.26.91-4.34,6.4-2.52-1.83Z"/></g></g></g></svg>