<?xml version="1.0" encoding="UTF-8"?><svg id="Layer_2" xmlns="http://www.w3.org/2000/svg" viewBox="0 0 33.52 33.5"><defs><style>.cls-1{fill:#003d44;}.cls-2{fill:#f4e478;}.cls-3{fill:#97c1a0;}</style></defs><g id="Layer_1-2"><g><g><path class="cls-2" d="m4.94,28.62c6.56,6.51,17.16,6.48,23.67-.08,6.48-6.53,6.48-17.06,0-23.59L4.94,28.62Z"/><path class="cls-2" d="m4.94,28.62c-6.56-6.51-6.6-17.11-.08-23.67,6.51-6.56,17.11-6.6,23.67-.08.03.03.06.06.08.08L4.94,28.62Z"/><circle class="cls-3" cx="16.79" cy="16.77" r="16.73"/></g><g><path class="cls-1" d="m20.58,10.97h0c0,.28.14.54.38.69,2.05,1.41,3.24,3.76,3.16,6.25-.11,4.05-3.49,7.24-7.54,7.12-3.98-.11-7.14-3.37-7.13-7.35,0-2.41,1.18-4.66,3.17-6.02.23-.15.37-.41.38-.69h0c0-.46-.37-.83-.83-.83-.17,0-.33.05-.46.14-4.1,2.81-5.14,8.41-2.32,12.51s8.41,5.14,12.51,2.32c4.1-2.81,5.14-8.41,2.32-12.51-.63-.91-1.41-1.7-2.32-2.32-.38-.26-.9-.16-1.15.22-.09.14-.14.3-.14.47Z"/><rect class="cls-1" x="15.59" y="6.89" width="2.39" height="12.05" rx=".85" ry=".85"/></g></g></g></svg>