<?xml version="1.0" encoding="UTF-8"?><svg id="Layer_2" xmlns="http://www.w3.org/2000/svg" viewBox="0 0 35 35"><defs><style>.cls-1{fill:#f4e478;}.cls-2{fill:#b2c0f7;}.cls-3{fill:none;stroke:#1d3e44;stroke-miterlimit:10;}.cls-4,.cls-5{isolation:isolate;}.cls-5{fill:#1d3e44;font-family:BaiJamjuree-SemiBold, 'Bai Jamjuree';font-size:7px;font-weight:600;}</style></defs><g id="Layer_1-2"><g><path class="cls-1" d="m5.13,29.88c6.83,6.83,17.91,6.83,24.75,0,6.83-6.83,6.83-17.91,0-24.75L5.13,29.88Z"/><path class="cls-1" d="m5.13,29.88C-1.71,23.04-1.71,11.96,5.13,5.13s17.91-6.83,24.75,0h0L5.13,29.88Z"/><circle class="cls-2" cx="17.51" cy="17.49" r="17.49"/><g><path class="cls-3" d="m12.12,10.99h6.6c.38,0,.69.29.7.67,0,.01,0,.02,0,.03v9.3h-7c-.55,0-1-.45-1-1v-8.3c0-.38.29-.69.67-.7.01,0,.02,0,.03,0Z"/><path class="cls-3" d="m19.42,11.99l3.1.8c.44.08.73.49.65.92-.01.06-.03.12-.05.18l-2.7,9.1-6-2"/><path class="cls-3" d="m22.52,14.89l2.6,2c.36.28.42.79.15,1.15-.01.02-.03.04-.05.05l-6.1,7.3-4.7-4.2"/><g class="cls-4"><text class="cls-5" transform="translate(13.07 18.37)"><tspan x="0" y="0">$</tspan></text></g></g></g></g></svg>