<?xml version="1.0" encoding="UTF-8"?><svg id="Layer_2" xmlns="http://www.w3.org/2000/svg" viewBox="0 0 30 30.01"><defs><style>.cls-1{fill:#003d44;}.cls-2{fill:#f4e478;}.cls-3{fill:#ccb2b2;}.cls-4{fill:#234432;}</style></defs><g id="Layer_1-2"><g id="Editar"><g id="Group_10792"><path id="Path_13528-2" class="cls-2" d="m5.13,25.74c5.69,5.69,14.92,5.69,20.61,0s5.69-14.92,0-20.61h0L5.13,25.74Z"/><path id="Path_13529-2" class="cls-2" d="m4.27,24.88c-5.69-5.69-5.69-14.92,0-20.61s14.92-5.69,20.61,0L4.27,24.88Z"/><circle id="Ellipse_121" class="cls-3" cx="15.01" cy="14.99" r="14.99"/></g><g id="Layer_1-2"><g id="Group_10791"><path id="Path_18545" class="cls-1" d="m14.48,11.21l3.94,1.67c-.04.1-.07.22-.13.34-1.17,2.76-2.34,5.51-3.52,8.26-.1.23-.26.43-.46.58-.72.5-1.46.97-2.19,1.45-.55.36-.8.25-.91-.39-.17-.88-.34-1.75-.5-2.63-.04-.18-.02-.37.04-.54,1.21-2.88,2.43-5.77,3.66-8.64.02-.04.04-.07.07-.1Z"/><path id="Path_18546" class="cls-4" d="m15.04,9.94c.23-.56.42-1.16.7-1.71.51-.96,1.66-1.38,2.66-.98,1.02.37,1.59,1.47,1.3,2.52-.19.64-.48,1.25-.72,1.85l-3.94-1.67Z"/></g></g></g></g></svg>