<?xml version="1.0" encoding="UTF-8"?><svg id="Layer_2" xmlns="http://www.w3.org/2000/svg" viewBox="0 0 35.06 35.04"><defs><style>.cls-1,.cls-2{fill:none;}.cls-3{fill:#f4e478;}.cls-4{fill:#02272a;}.cls-5{fill:#b2c0f7;}.cls-2{stroke:#02272a;}</style></defs><g id="Layer_1-2"><g id="Group_12847"><g id="Group_10697"><path id="Path_18478-2" class="cls-3" d="m5.18,29.93c6.86,6.8,17.94,6.76,24.75-.11,6.76-6.82,6.76-17.82,0-24.64L5.18,29.93Z"/><path id="Path_18479-2" class="cls-3" d="m5.18,29.93c-6.86-6.8-6.91-17.88-.11-24.75s17.89-6.91,24.75-.11c.04.04.07.07.11.11L5.18,29.93Z"/><circle id="Ellipse_325" class="cls-5" cx="17.56" cy="17.54" r="17.49"/></g><g id="Group_12848"><rect id="Rectangle_713" class="cls-4" x="8.48" y="17.87" width="3" height="7"/><rect id="Rectangle_714" class="cls-4" x="13.48" y="14.87" width="3" height="10"/><rect id="Rectangle_716" class="cls-4" x="23.48" y="14.87" width="3" height="10"/><rect id="Rectangle_715" class="cls-4" x="18.48" y="17.87" width="3" height="7"/><circle id="Ellipse_376" class="cls-4" cx="9.98" cy="13.37" r="1.5"/><circle id="Ellipse_377" class="cls-4" cx="14.98" cy="10.37" r="1.5"/><circle id="Ellipse_379" class="cls-4" cx="24.98" cy="10.37" r="1.5"/><circle id="Ellipse_378" class="cls-4" cx="19.98" cy="13.37" r="1.5"/><line id="Line_134" class="cls-1" x1="11.43" y1="12.72" x2="14.45" y2="11.21"/><line id="Line_135" class="cls-1" x1="16.17" y1="9.7" x2="19.19" y2="8.95"/><path id="Path_22174" class="cls-2" d="m9.92,13.48l5.39-3.15,5.17,3.15,5.2-3.15"/></g></g></g></svg>