<?xml version="1.0" encoding="UTF-8"?><svg id="Layer_2" xmlns="http://www.w3.org/2000/svg" viewBox="0 0 35.03 35.05"><defs><style>.cls-1{fill:none;stroke:#234432;stroke-miterlimit:10;stroke-width:1.5px;}.cls-2{fill:#f4e478;}.cls-3{fill:#cbd8a4;}</style></defs><g id="Layer_1-2"><g id="Group_10334"><g id="Group_10332"><path id="Path_18217-2" class="cls-2" d="m5.11,29.88c6.81,6.86,17.89,6.91,24.75.1,6.86-6.81,6.91-17.89.1-24.75-.03-.03-.07-.07-.1-.1L5.11,29.88Z"/><path id="Path_18218-2" class="cls-2" d="m5.11,29.88c-6.81-6.86-6.76-17.94.1-24.75,6.82-6.77,17.83-6.77,24.65,0L5.11,29.88Z"/><circle id="Ellipse_272" class="cls-3" cx="17.49" cy="17.49" r="17.49"/></g><g id="Profile_1"><path id="Path_18760" class="cls-1" d="m26.2,22.29c-.28-2.78-2.04-5.19-4.6-6.3-.2-.1-.3-.4-.1-.5.84-.79,1.18-1.98.9-3.1-.29-1.29-1.31-2.31-2.6-2.6-1.16-.17-2.34.2-3.2,1h-.4c-1.87.02-3.38,1.53-3.4,3.4-.02.86.3,1.69.9,2.3.15.15.14.39,0,.53-.03.03-.06.05-.09.07-2.53,1.1-4.29,3.46-4.6,6.2h14.4c-.03-.34-.09-.68-.2-1h3Z"/><path id="Path_18761" class="cls-1" d="m23.4,23.39c-.25-2.77-2.02-5.16-4.6-6.2-.21-.1-.3-.35-.2-.56.02-.05.06-.1.1-.14.6-.61.92-1.44.9-2.3.06-1.82-1.36-3.34-3.18-3.4-.04,0-.08,0-.12,0"/></g></g></g></svg>