<?xml version="1.0" encoding="UTF-8"?><svg id="Layer_2" xmlns="http://www.w3.org/2000/svg" viewBox="0 0 35.06 35.04"><defs><style>.cls-1{fill:#f4e478;}.cls-2{fill:#02272a;}.cls-3{fill:#a3ddef;}</style></defs><g id="Layer_1-2"><g id="Group_12845"><g id="Group_10697"><path id="Path_18478-2" class="cls-1" d="m5.18,29.93c6.86,6.8,17.94,6.76,24.75-.11,6.76-6.82,6.76-17.82,0-24.64L5.18,29.93Z"/><path id="Path_18479-2" class="cls-1" d="m5.18,29.93c-6.86-6.8-6.91-17.88-.11-24.75s17.89-6.91,24.75-.11c.04.04.07.07.11.11L5.18,29.93Z"/><circle id="Ellipse_325" class="cls-3" cx="17.56" cy="17.54" r="17.49"/></g><path id="Polygon_1" class="cls-2" d="m23.64,14.82c1.51.68,2.18,2.46,1.5,3.97-.3.67-.83,1.2-1.5,1.5l-7.43,3.35c-1.51.68-3.29.01-3.97-1.5-.18-.39-.27-.81-.27-1.23v-6.71c0-1.66,1.34-3,3-3,.43,0,.85.09,1.23.27l7.43,3.35Z"/></g></g></svg>