<?xml version="1.0" encoding="UTF-8"?><svg id="Layer_2" xmlns="http://www.w3.org/2000/svg" viewBox="0 0 35.51 35.02"><defs><style>.cls-1{fill:#f49fa4;}.cls-2{fill:none;stroke:#023e44;stroke-linecap:round;stroke-miterlimit:10;}</style></defs><g id="Layer_1-2"><g id="Layer_1-2"><g><g><path class="cls-1" d="m7.74,1.25l26.01,26.01c1.66,1.66,1.66,4.35,0,6.01h0c-1.66,1.66-4.35,1.66-6.01,0L1.73,7.26C.07,5.6.07,2.91,1.73,1.25h0C3.39-.41,6.08-.41,7.74,1.25Z"/><path class="cls-1" d="m33.77,7.26L7.75,33.27c-1.66,1.66-4.35,1.66-6.01,0h0c-1.66-1.66-1.66-4.35,0-6.01L27.76,1.24c1.66-1.66,4.35-1.66,6.01,0h0c1.66,1.66,1.66,4.35,0,6.01Z"/></g><path class="cls-2" d="m1.74,7.27l10,10L1.74,27.27c-1.66,1.66-1.66,4.35,0,6.01,1.66,1.66,4.35,1.66,6.01,0l10-10,10,10c1.66,1.66,4.35,1.66,6.01,0s1.66-4.35,0-6.01l-10-10,10-10"/></g></g></g></svg>