<?xml version="1.0" encoding="UTF-8"?><svg id="Layer_2" xmlns="http://www.w3.org/2000/svg" viewBox="0 0 34.52 35.65"><defs><style>.cls-1{fill:#f2aef4;}.cls-2{fill:none;stroke:#023e44;stroke-linecap:round;stroke-miterlimit:10;}</style></defs><g id="Layer_1-2"><g id="Layer_1-2"><g><g><path class="cls-1" d="m4.75,0h25.02c2.35,0,4.25,1.9,4.25,4.25h0c0,2.35-1.9,4.25-4.25,4.25H4.75c-2.35,0-4.25-1.9-4.25-4.25h0C.5,1.9,2.4,0,4.75,0Z"/><rect class="cls-1" x=".5" y="26.65" width="33.52" height="8.5" rx="4.25" ry="4.25"/><path class="cls-1" d="m4.75,13.32h25.02c2.35,0,4.25,1.9,4.25,4.25h0c0,2.35-1.9,4.25-4.25,4.25H4.75c-2.35,0-4.25-1.9-4.25-4.25h0c0-2.35,1.9-4.25,4.25-4.25Z"/></g><path class="cls-2" d="m34.02,4.25h0c0,2.35-1.9,4.25-4.25,4.25H4.75c-2.35,0-4.25-1.9-4.25-4.25h0"/><path class="cls-2" d="m34.02,30.9h0c0,2.35-1.9,4.25-4.25,4.25H4.75c-2.35,0-4.25-1.9-4.25-4.25h0"/><path class="cls-2" d="m34.02,17.57h0c0,2.35-1.9,4.25-4.25,4.25H4.75c-2.35,0-4.25-1.9-4.25-4.25h0"/></g></g></g></svg>