<?xml version="1.0" encoding="UTF-8"?><svg id="Layer_2" xmlns="http://www.w3.org/2000/svg" viewBox="0 0 30 30.01"><defs><style>.cls-1{fill:#003d44;}.cls-2{fill:#f4e478;}.cls-3{fill:#a5a1c6;}</style></defs><g id="Layer_1-2"><g id="Wallet_referreal"><g id="Group_10792"><path id="Path_13528-2" class="cls-2" d="m5.13,25.74c5.69,5.69,14.92,5.69,20.61,0s5.69-14.92,0-20.61h0L5.13,25.74Z"/><path id="Path_13529-2" class="cls-2" d="m4.27,24.88c-5.69-5.69-5.69-14.92,0-20.61s14.92-5.69,20.61,0L4.27,24.88Z"/><circle id="Ellipse_121" class="cls-3" cx="15.01" cy="14.99" r="14.99"/></g><g id="Group_10891"><path id="Path_18219" class="cls-1" d="m15.15,7c2.32,0,4.2,1.88,4.2,4.2s-1.88,4.2-4.2,4.2-4.2-1.88-4.2-4.2,1.88-4.2,4.2-4.2h0Z"/><path id="Path_18220" class="cls-1" d="m21.52,23.19h-12.74c-.43,0-.78-.34-.78-.77,0-.03,0-.06,0-.08.49-3.95,4.09-6.74,8.04-6.25,3.27.41,5.84,2.98,6.25,6.25.04.43-.27.81-.69.85-.03,0-.06,0-.08,0Z"/></g></g></g></svg>