<?xml version="1.0" encoding="utf-8"?>
<!-- Generator: Adobe Illustrator 26.5.0, SVG Export Plug-In . SVG Version: 6.00 Build 0)  -->
<svg version="1.1" id="Layer_1" xmlns="http://www.w3.org/2000/svg" xmlns:xlink="http://www.w3.org/1999/xlink" x="0px" y="0px"
	 viewBox="0 0 358.1 193.3" style="enable-background:new 0 0 358.1 193.3;" xml:space="preserve">
<style type="text/css">
	.st0{fill:#013D44;}
	.st1{fill:#F4E378;}
	.st2{fill:#00272A;}
	.st3{fill:#E2C740;}
	.st4{fill:#F4E378;stroke:#E2C740;stroke-width:0.5;stroke-miterlimit:10;}
	.st5{fill:none;stroke:#00272A;stroke-width:2;stroke-miterlimit:10;}
	.st6{fill:none;stroke:#00272A;stroke-width:2;stroke-linecap:round;stroke-miterlimit:10;}
</style>
<g transform="translate(-394 -117.202)">
	<path class="st0" d="M636,165.2c-0.3-0.1-0.5-0.2-0.6-0.5c-1.5-2.1-3.1-4-4.8-5.9c-0.5-0.5-0.4-1.2,0-1.7c0.5-0.5,1.2-0.4,1.7,0
		l0,0c1.8,1.9,3.5,4,5.1,6.2c0.4,0.5,0.3,1.3-0.3,1.7C636.7,165.2,636.4,165.3,636,165.2L636,165.2z"/>
	<path class="st0" d="M628.6,156.7c-0.2-0.1-0.3-0.1-0.5-0.3c-0.4-0.4-0.9-0.8-1.3-1.2c-0.5-0.4-0.6-1.2-0.1-1.7
		c0.4-0.5,1.2-0.6,1.7-0.1l0,0c0.5,0.4,0.9,0.8,1.4,1.3c0.5,0.4,0.5,1.2,0.1,1.7C629.5,156.7,629,156.9,628.6,156.7L628.6,156.7z"/>
	<path class="st0" d="M623.4,152.5c-0.1,0-0.2-0.1-0.4-0.2c-4.7-3.4-10-5.9-15.6-7.5c-0.6-0.2-1-0.9-0.8-1.5
		c0.2-0.6,0.8-0.9,1.4-0.8c5.8,1.7,11.3,4.3,16.3,7.9c0.5,0.4,0.7,1.1,0.3,1.7c0,0,0,0,0,0C624.4,152.5,623.9,152.6,623.4,152.5
		L623.4,152.5z"/>
	<path class="st1" d="M458.8,241.4h-44.3c-6.3,0-11.5-4.6-11.5-10.9c0-4.9,2-8.8,5.5-12.9l46.8-54.3c4.5-5.2,7.9-8,14.8-8
		c6.2-0.1,11.3,4.9,11.4,11.1c0,0.1,0,0.1,0,0.2v55.7h5.7c5.3,0,9.7,4.3,9.7,9.6c0,0,0,0.1,0,0.1c0,5.3-4.2,9.5-9.5,9.5
		c-0.1,0-0.1,0-0.2,0h-5.7v12.9c0,6.2-5,11.2-11.2,11.2c-0.1,0-0.1,0-0.2,0c-6.1,0.1-11.2-4.8-11.2-11c0-0.1,0-0.2,0-0.3V241.4z
		 M458.8,222.1v-33.5l-28.6,33.6L458.8,222.1L458.8,222.1z"/>
	<path class="st2" d="M473.1,266.7c-6.8,0.1-12.4-5.4-12.4-12.2c0-0.1,0-0.2,0-0.3v-11.7h-43.1c-7.1,0-12.7-5.3-12.7-12.1
		c0-4.8,1.7-8.9,5.8-13.7l26.9-31.3c0.4-0.5,1.2-0.5,1.7-0.1c0.5,0.4,0.5,1.1,0.1,1.6l-26.9,31.3c-3.7,4.4-5.3,7.9-5.3,12.1
		c0,5.5,4.5,9.7,10.3,9.7h44.3c0.7,0,1.2,0.5,1.2,1.2c0,0,0,0,0,0v12.9c-0.1,5.5,4.3,10,9.8,10c0.1,0,0.1,0,0.2,0
		c5.6,0.1,10.1-4.4,10.2-9.9c0,0,0-0.1,0-0.1v-12.9c0-0.7,0.5-1.2,1.2-1.2c0,0,0,0,0,0h5.7c4.6,0.1,8.4-3.6,8.5-8.2
		c0-0.1,0-0.1,0-0.2c0-4.7-3.8-8.5-8.5-8.5h-5.7c-0.7,0-1.2-0.5-1.2-1.2c0,0,0,0,0,0v-38.3c0-0.7,0.5-1.2,1.2-1.2
		c0.7,0,1.2,0.5,1.2,1.2c0,0,0,0,0,0v37.1h4.5c6,0,10.9,4.9,10.9,10.9c0,5.9-4.8,10.7-10.7,10.7c-0.1,0-0.1,0-0.2,0h-4.5v11.7
		c0,6.8-5.5,12.4-12.3,12.4C473.3,266.7,473.2,266.7,473.1,266.7L473.1,266.7z M461.9,223.3h-28.6c-0.7,0-1.2-0.5-1.2-1.2
		c0-0.3,0.1-0.6,0.3-0.8l28.6-33.6c0.3-0.4,0.9-0.5,1.3-0.3c0.5,0.2,0.8,0.6,0.8,1.1v33.6C463.1,222.8,462.5,223.3,461.9,223.3
		C461.9,223.3,461.9,223.3,461.9,223.3L461.9,223.3z M435.8,220.9h24.9v-29.1L435.8,220.9z M440.2,185.4c-0.3,0-0.6-0.1-0.8-0.3
		c-0.5-0.4-0.6-1.2-0.1-1.7c0,0,0,0,0,0l0.4-0.5c0.4-0.5,1.2-0.6,1.7-0.2c0.5,0.4,0.6,1.2,0.2,1.7c0,0,0,0,0,0l-0.4,0.5
		C440.9,185.3,440.5,185.4,440.2,185.4L440.2,185.4z M444.7,180.1c-0.3,0-0.6-0.1-0.8-0.3c-0.5-0.4-0.6-1.2-0.1-1.7c0,0,0,0,0,0
		l13.6-15.8c4.8-5.6,8.5-8.4,15.7-8.4c6.8-0.2,12.4,5.2,12.6,12c0,0.1,0,0.3,0,0.4v10.9c0,0.7-0.5,1.2-1.2,1.2
		c-0.7,0-1.2-0.5-1.2-1.2v-10.9c0-5.5-4.5-10-10-10c-0.1,0-0.1,0-0.2,0c-6.3,0-9.4,2.3-13.9,7.6l-13.6,15.8
		C445.4,180,445.1,180.1,444.7,180.1L444.7,180.1z"/>
	<circle class="st1" cx="579" cy="213.8" r="67.3"/>
	<circle class="st3" cx="579" cy="213.8" r="57.5"/>
	<circle class="st1" cx="579.5" cy="214.3" r="54.3"/>
	<path class="st3" d="M555.3,217.1v0.3l0,0v0l0,0v0l0,0v0l0,0l0,0l0.3,0.8l0.5,1.5l0.3,1l12.6,37.2l0,0v0l0,0l0,0l0,0l0,0l0,0l0,0
		l0,0v0l0,0v0l0,0v0l0,0h0l0,0h0l0,0h0l0,0h0l0,0h0l0,0h0l0,0h0l0,0h0l0,0h0l0,0h0l0,0h0l0,0h0l0,0h0.2l2.7-0.4h0.1l0,0h0l0,0h0l0,0
		h0l0,0h0l0,0h0l0,0h0l0,0h0l0,0h0l0,0h0l0,0v0l0,0l0,0l0,0l0,0l0,0l22.8-35.2l0-0.1l0,0l0,0l0,0l0,0l0,0l0,0v0l0,0v0l0,0v0l0,0v0
		l0,0v-0.1l0,0l0,0l0,0h0l0,0h0l0,0h0l0,0h0l-2.5-0.1h-0.1l0,0h0l0,0h0l0,0h0l0,0l0,0l0,0l-0.1,0l-16.8,9l-2.1,1.1l0,0l-2.5-2.4
		l-12.9-12.5l0,0l0,0l0,0l0,0l0,0l0,0l0,0h0l0,0h0l0,0h0l0,0h0l0,0h-0.1l-2.8-0.1h0l0,0h0v0l0,0v0l0,0L555.3,217.1L555.3,217.1
		L555.3,217.1L555.3,217.1z"/>
	<g transform="translate(547.134 173.699)">
		<polygon class="st3" points="11.7,39.6 11.7,39.6 11.7,39.6 		"/>
		<rect x="10" y="38.4" class="st3" width="0" height="2.1"/>
		<path class="st3" d="M29.4,7.6l-1.1,1.9l0.1-0.1L29.4,7.6z"/>
		<path class="st3" d="M27.7,9.3l-0.2,0.4l1.3-2.2L27.7,9.3z"/>
		<path class="st3" d="M29.4,6.4l0.9-1.7l-1.5,2.7l0.1-0.1L29.4,6.4z"/>
		<path class="st3" d="M30.9,3.7l-0.1,0.2l1-1.7L30.9,3.7z"/>
		<path class="st3" d="M35.9,7.7l-0.3-1L35.9,7.7L35.9,7.7z"/>
		<path class="st3" d="M31.2,0L31.2,0L31.2,0L31.2,0L31.2,0L31.2,0L31.2,0L31.2,0L31.2,0L31.2,0L31.2,0L31.2,0L31.2,0L31.2,0L31.2,0
			L31.2,0L31.2,0L31.2,0l0.1,0.1l0,0h0v0l0,0v0l0,0l0,0v0l0,0l0,0v0l0,0v0l0,0l0,0v0l0,0v0h0l0,0v0l0,0v0l0,0l0.7,1.9l-0.8,1.4
			L31.2,4l0.9-1.5L46,42.3l0.2,0.5v0l0,0v0l0,0v0l0,0l0,0v0.1l0,0v0.1l0,0v0.5l0,0v0.1l0,0v0l0,0v0l0,0v0l0,0l0,0l0,0l0,0l0,0l0,0
			l0,0l0,0l0,0l0,0l0,0l0,0l0,0l0,0l0,0l0,0l0,0l0,0l0,0l0,0l0,0l0,0h0l0,0h0l0,0h0l0,0l-1.4,0.7l-15,8l-2,1l-0.3,0.2l-0.3,0.1
			L26.4,55l-1.1,0.6h0l2.6,0h0L29,55l0.1-0.1l0.3-0.1l0.3-0.2l2-1l14.9-7.8l1.4-0.7h0l0,0h0l0,0h0l0,0l0,0l0,0l0,0l0,0l0,0l0,0l0,0
			l0,0l0,0l0,0l0,0l0,0l0,0l0,0l0,0l0,0l0,0l0,0l0,0l0,0l0,0l0,0v0l0,0v0l0,0v0l0,0v-0.1l0,0v-0.4l0,0v-0.2l0,0v0l0,0v0l0,0v0l0,0v0
			l-0.2-0.5L34,1.2v0l0,0v0l0,0v0h0l0,0l0,0l0,0v0l0,0l0,0v0l0,0v0l0,0v0l0,0l0,0v0l0,0v0h0l0,0l0,0v0l0,0v0l0,0l0,0h0l0,0l0,0v0
			l0,0l0,0h0v0l0,0v0h0l0,0h0L31.2,0L31.2,0L31.2,0z M36.1,6.8L36.1,6.8"/>
	</g>
	<path class="st4" d="M556,212.7l0,0.2l0,0.2l16.4-6l5.8-33.3l-0.3,0.1l0,0l0,0l-0.1,0l-0.1,0.1l-0.1,0.1l-0.1,0.1l-0.1,0.1
		l-20.5,36.3l-0.5,0.9l-0.1,0.2l-0.2,0.3l0,0.1l-0.1,0.1l0,0.1l0,0.1l0,0v0l0,0.1v0l0,0L556,212.7z"/>
	<path class="st4" d="M556,213.1L556,213.1l0,0.2l0,0.1l0,0.1l0,0.1l0.1,0.1l0.1,0.1l0.1,0.1l0.1,0.1l0.1,0.1l1,1l13.9,13.2l0.3,0.2
		l1,0.9l0,0l-0.2-22.3L556,213.1z"/>
	<path class="st4" d="M572.4,207l21.1,10.7l0-0.1l0-0.1l0,0v0l0-0.1l0,0v-0.2l0-0.1l0-0.1l0-0.1l0-0.1l0-0.1l0-0.1l0-0.1l-0.2-0.5
		l-14.6-41.8l0-0.1l0,0l-0.1-0.1l0,0l0-0.1l0,0l0,0l0,0l0,0l0,0l0,0l0,0h0l-0.1,0L572.4,207z"/>
	<path class="st4" d="M572.4,207l0.2,22.3l1.1-0.6l0.2-0.1l0.3-0.1l0.3-0.2l2-1l15-8l1.4-0.7l0.1,0l0.1-0.1l0.1-0.1l0.1-0.1l0.1-0.1
		l0.1-0.1l0.1-0.1l0.1-0.1l0-0.1L572.4,207z"/>
	<path class="st4" d="M555.3,217.1v0.1l0,0.1l0,0.1l0,0.1l0,0.1l0.3,0.8l0.5,1.5l0.3,1l12.6,37.2l0.1,0.1l0,0.1l0,0.1l0,0l0,0.1
		l0.1,0.1l0.1,0l0,0l0.1,0.1l1.9-25.6l-15.7-16l-0.1-0.1l-0.1-0.1l-0.1,0l0,0h0l0,0h0l0,0h0l0,0l0,0l0,0l0,0l0,0l0,0L555.3,217.1
		L555.3,217.1L555.3,217.1L555.3,217.1z"/>
	<path class="st4" d="M571.5,233.2l-1.9,25.6l0.1,0l0.1,0l0.1,0l0.1,0l0.1,0l0.1,0l0.1,0l0.1-0.1l0.1-0.1l0.1-0.1l0.1-0.1l23-35.7
		l0.1-0.2l0.1-0.1l0-0.1l0-0.1l0,0V222l0,0l0,0l0,0l0,0l0,0l0,0l0,0l0,0l0,0h-0.1l-0.1,0l-0.1,0l-0.2,0.1L571.5,233.2L571.5,233.2z"
		/>
	<circle class="st5" cx="582.5" cy="213.8" r="67.3"/>
	<g>
		<g>
			<path class="st1" d="M697.9,198.5c4.5,0,8.4-1.3,11.7-4c3.3-2.7,4.9-6.5,4.9-11.4c0-3.8-1.3-7-3.9-9.8c-2.6-2.7-6.1-4.1-10.5-4.1
				c-3,0-5.5,0.4-7.4,1.3c-1.9,0.8-3.5,1.9-4.6,3.3c-1.1,1.4-2.2,3.1-3.2,5.3c-1,2.2-1.9,4.2-2.8,6.1c-0.5,1-1.4,1.8-2.7,2.4
				c-1.3,0.6-2.8,0.9-4.4,0.9c-2,0-3.8-0.8-5.4-2.4c-1.6-1.6-2.5-3.7-2.5-6.4c0-2.6,0.8-5.2,2.3-8.1c1.5-2.8,3.8-5.5,6.8-8.1
				c3-2.6,6.7-4.6,11.1-6.2c4.4-1.5,9.4-2.3,14.8-2.3c4.8,0,9.1,0.7,13,2c3.9,1.3,7.3,3.2,10.2,5.6c2.9,2.5,5.1,5.3,6.6,8.5
				c1.5,3.2,2.2,6.7,2.2,10.5c0,4.9-1.1,9.1-3.2,12.6c-2.1,3.5-5.2,6.9-9.2,10.3c3.8,2.1,7.1,4.4,9.7,7.1c2.6,2.7,4.6,5.6,5.9,8.8
				c1.3,3.2,2,6.7,2,10.4c0,4.5-0.9,8.8-2.7,13c-1.8,4.2-4.4,7.9-7.9,11.2c-3.5,3.3-7.6,5.8-12.4,7.7c-4.8,1.8-10.1,2.8-15.9,2.8
				c-5.9,0-11.2-1.1-15.8-3.2c-4.7-2.1-8.5-4.8-11.5-7.9s-5.3-6.4-6.9-9.8c-1.5-3.4-2.3-6.2-2.3-8.4c0-2.8,0.9-5.1,2.8-6.9
				c1.8-1.7,4.1-2.6,6.9-2.6c1.4,0,2.7,0.4,4,1.2c1.3,0.8,2.1,1.8,2.5,2.9c2.6,6.8,5.3,11.9,8.2,15.2c2.9,3.3,7,5,12.3,5
				c3,0,6-0.7,8.8-2.2c2.8-1.5,5.2-3.7,7-6.7c1.8-2.9,2.8-6.4,2.8-10.2c0-5.7-1.6-10.2-4.7-13.5c-3.1-3.3-7.5-4.9-13.1-4.9
				c-1,0-2.5,0.1-4.6,0.3c-2.1,0.2-3.4,0.3-4,0.3c-2.7,0-4.8-0.7-6.3-2c-1.5-1.4-2.2-3.2-2.2-5.6c0-2.4,0.9-4.3,2.7-5.7
				c1.8-1.4,4.4-2.2,7.9-2.2H697.9z"/>
		</g>
		<g>
			<path class="st6" d="M677.4,226.7c1.4,0,2.7,0.4,4,1.2c1.3,0.8,2.1,1.8,2.5,2.9c2.6,6.8,5.3,11.9,8.2,15.2c2.9,3.3,7,5,12.3,5
				c3,0,6-0.7,8.8-2.2c2.8-1.5,5.2-3.7,7-6.7c1.8-2.9,2.8-6.4,2.8-10.2c0-5.7-1.6-10.2-4.7-13.5c-3.1-3.3-7.5-4.9-13.1-4.9
				c-1,0-2.5,0.1-4.6,0.3c-2.1,0.2-3.4,0.3-4,0.3c-2.7,0-4.8-0.7-6.3-2c-1.5-1.4-2.2-3.2-2.2-5.6c0-2.4,0.9-4.3,2.7-5.7
				c1.8-1.4,4.4-2.2,7.9-2.2h3c4.5,0,8.4-1.3,11.7-4c3.3-2.7,4.9-6.5,4.9-11.4c0-3.8-1.3-7-3.9-9.8c-2.6-2.7-6.1-4.1-10.5-4.1
				c-3,0-5.5,0.4-7.4,1.3c-1.9,0.8-3.5,1.9-4.6,3.3c-1.1,1.4-2.2,3.1-3.2,5.3c-1,2.2-1.9,4.2-2.8,6.1c-0.5,1-1.4,1.8-2.7,2.4
				c-1.3,0.6-2.8,0.9-4.4,0.9c-2,0-3.8-0.8-5.4-2.4c-1.6-1.6-2.5-3.7-2.5-6.4c0-2.6,0.8-5.2,2.3-8.1c1.5-2.8,3.8-5.5,6.8-8.1
				c3-2.6,6.7-4.6,11.1-6.2c4.4-1.5,9.4-2.3,14.8-2.3c4.8,0,9.1,0.7,13,2c3.9,1.3,7.3,3.2,10.2,5.6 M735.7,171.3
				c1.5,3.2,2.2,6.7,2.2,10.5c0,4.9-1.1,9.1-3.2,12.6c-2.1,3.5-5.2,6.9-9.2,10.3c3.8,2.1,7.1,4.4,9.7,7.1c2.6,2.7,4.6,5.6,5.9,8.8
				c1.3,3.2,2,6.7,2,10.4c0,4.5-0.9,8.8-2.7,13c-1.8,4.2-4.4,7.9-7.9,11.2c-3.5,3.3-7.6,5.8-12.4,7.7c-4.8,1.8-10.1,2.8-15.9,2.8
				c-5.9,0-11.2-1.1-15.8-3.2c-4.7-2.1-8.5-4.8-11.5-7.9c-3-3.2-5.3-6.4-6.9-9.8c-1.5-3.4-2.3-6.2-2.3-8.4"/>
		</g>
		<circle class="st2" cx="669.9" cy="229.2" r="1.4"/>
		<circle class="st2" cx="732.9" cy="166.6" r="1.4"/>
	</g>
</g>
</svg>
