<svg xmlns="http://www.w3.org/2000/svg" width="358.098" height="193.292" viewBox="0 0 358.098 193.292"><g transform="translate(-394 -117.202)"><path d="M250.69,23.814a1.194,1.194,0,0,1-.64-.455,51.821,51.821,0,0,0-4.845-5.885,1.188,1.188,0,1,1,1.717-1.643,55.611,55.611,0,0,1,5.068,6.154,1.19,1.19,0,0,1-1.309,1.828Z" transform="translate(376.411 141.355)" fill="#013d44"/><path d="M242.988,15.1a1.16,1.16,0,0,1-.473-.269q-.654-.613-1.337-1.2a1.191,1.191,0,1,1,1.55-1.81c.473.408.947.826,1.4,1.253a1.189,1.189,0,0,1-1.142,2.014Z" transform="translate(376.706 141.637)" fill="#013d44"/><path d="M236.22,10.024a1.143,1.143,0,0,1-.353-.176A51.686,51.686,0,0,0,220.274,2.33a1.19,1.19,0,0,1,.668-2.283A54.329,54.329,0,0,1,237.25,7.908a1.189,1.189,0,0,1,.278,1.661,1.177,1.177,0,0,1-1.3.455Z" transform="translate(378.24 142.466)" fill="#013d44"/><path d="M55.867,99.871H11.546C5.235,99.871,0,95.258,0,88.946c0-4.929,2-8.771,5.541-12.929l46.78-54.326c4.465-5.235,7.852-8,14.776-8A11.234,11.234,0,0,1,78.486,24.921V80.63h5.69a9.66,9.66,0,0,1,9.7,9.7,9.521,9.521,0,0,1-9.7,9.542h-5.69V112.8A11.228,11.228,0,0,1,67.1,124.031,11.1,11.1,0,0,1,55.867,112.8V99.871Zm0-19.241V47.086L27.242,80.639H55.867Z" transform="translate(394 141.483)" fill="#f4e378"/><path d="M70.325,125.136A12.294,12.294,0,0,1,57.9,112.708V100.967H14.765c-7.138,0-12.735-5.318-12.735-12.113,0-4.808,1.745-8.91,5.82-13.7l26.926-31.27a1.191,1.191,0,0,1,1.8,1.559L9.669,76.7c-3.731,4.381-5.253,7.9-5.253,12.15,0,5.458,4.548,9.737,10.349,9.737h44.32a1.184,1.184,0,0,1,1.188,1.188v12.929a9.933,9.933,0,0,0,10.043,10.043,10.067,10.067,0,0,0,10.2-10.043V99.779A1.184,1.184,0,0,1,81.7,98.591h5.7a8.335,8.335,0,0,0,8.5-8.354,8.513,8.513,0,0,0-8.5-8.5H81.7a1.184,1.184,0,0,1-1.188-1.188v-38.3a1.188,1.188,0,1,1,2.376,0v37.1h4.5A10.9,10.9,0,0,1,98.281,90.237a10.7,10.7,0,0,1-10.887,10.73h-4.5v11.741a12.368,12.368,0,0,1-12.577,12.428Zm-11.231-43.4H30.469a1.194,1.194,0,0,1-.9-1.968L58.194,46.214a1.181,1.181,0,0,1,1.318-.343,1.2,1.2,0,0,1,.78,1.114V80.538A1.184,1.184,0,0,1,59.1,81.726ZM33.049,79.359H57.906V50.224Zm4.372-35.512a1.194,1.194,0,0,1-.78-.288,1.182,1.182,0,0,1-.121-1.68l.4-.464a1.191,1.191,0,1,1,1.8,1.559l-.4.464a1.2,1.2,0,0,1-.9.418Zm4.548-5.281a1.194,1.194,0,0,1-.78-.288,1.182,1.182,0,0,1-.121-1.68l13.579-15.77c4.762-5.578,8.493-8.419,15.677-8.419A12.289,12.289,0,0,1,82.9,24.838V35.754a1.188,1.188,0,0,1-2.376,0V24.838A10.015,10.015,0,0,0,70.325,14.8c-6.33,0-9.393,2.339-13.867,7.583L42.87,38.157a1.2,1.2,0,0,1-.9.418Z" transform="translate(393.854 141.575)" fill="#00272a"/><path d="M334.847,99.871h-44.32c-6.312,0-11.546-4.613-11.546-10.925,0-4.929,2-8.771,5.541-12.929L331.31,21.691c4.465-5.235,7.852-8,14.776-8a11.234,11.234,0,0,1,11.389,11.231V80.63h5.69a9.66,9.66,0,0,1,9.7,9.7,9.521,9.521,0,0,1-9.7,9.542h-5.69V112.8a11.228,11.228,0,0,1-11.389,11.231A11.1,11.1,0,0,1,334.856,112.8V99.871Zm0-19.241V47.086L306.222,80.639h28.625Z" transform="translate(373.961 141.482)" fill="#f4e378"/><path d="M350.415,125.136a12.294,12.294,0,0,1-12.428-12.428V100.967H294.855c-7.138,0-12.734-5.318-12.734-12.113,0-4.808,1.745-8.9,5.82-13.7l24.049-27.929a1.195,1.195,0,0,1,1.81,1.559L289.75,76.7c-3.731,4.381-5.253,7.9-5.253,12.15,0,5.458,4.548,9.737,10.349,9.737h44.32a1.184,1.184,0,0,1,1.188,1.188v12.929A9.933,9.933,0,0,0,350.4,122.751a10.067,10.067,0,0,0,10.2-10.043V99.779a1.184,1.184,0,0,1,1.188-1.188h5.7a8.335,8.335,0,0,0,8.5-8.354,8.513,8.513,0,0,0-8.5-8.5h-5.7a1.184,1.184,0,0,1-1.188-1.188V42.5a1.188,1.188,0,0,1,2.376,0V79.35h4.5a10.9,10.9,0,0,1,10.887,10.887,10.7,10.7,0,0,1-10.887,10.73h-4.5v11.741A12.368,12.368,0,0,1,350.4,125.136Zm-11.231-43.4H310.559a1.194,1.194,0,0,1-.9-1.968l28.625-33.553a1.185,1.185,0,0,1,1.318-.343,1.2,1.2,0,0,1,.78,1.114V80.538a1.184,1.184,0,0,1-1.188,1.188ZM313.14,79.359H338V50.224Zm2.562-33.4a1.193,1.193,0,0,1-.91-1.968l19.946-23.158c4.762-5.578,8.493-8.419,15.677-8.419a12.289,12.289,0,0,1,12.577,12.428v7.156a1.188,1.188,0,1,1-2.376,0V24.838a10.015,10.015,0,0,0-10.2-10.043c-6.33,0-9.393,2.339-13.867,7.583L316.6,45.546a1.2,1.2,0,0,1-.9.418Zm46.112-5.588a1.184,1.184,0,0,1-1.188-1.188V38.028a1.188,1.188,0,0,1,2.376,0v1.151A1.184,1.184,0,0,1,361.813,40.367Z" transform="translate(373.736 141.575)" fill="#00272a"/><circle cx="67.339" cy="67.339" r="67.339" transform="translate(474.871 213.798) rotate(-45)" fill="#f4e378"/><circle cx="57.547" cy="57.547" r="57.547" transform="translate(512.555 156.25)" fill="#e2c740"/><circle cx="54.307" cy="54.307" r="54.307" transform="translate(516.24 159.944)" fill="#f4e378"/><path d="M164.14,80.346v.26l.009.028v.028l.019.028v.028l.019.037v.037l.028.037.019.046.269.78.51,1.513.343,1.012L177.97,121.4l.019.046v.019l.028.037.019.037.019.037.019.037.019.037.019.037.019.028v.019l.019.019v.019l.019.019v.019l.019.009h.009l.009.028h.009l.009.028h.009l.009.028h.009l.009.019h.009l.009.019h.009l.009.019h.009l.009.019h.009l.009.019h.009l.009.019h.009l.009.009h.009l.009.009h.009l.009.009h.213l2.664-.427h.111l.019-.009h.009l.009-.009h.019l.019-.019h.019l.009-.019h.009l.019-.019h.009l.009-.019h.009l.009-.019h.009l.009-.028h.009l.009-.028h.009l.009-.028V121.4l.028-.019.028-.028.028-.037.028-.037.028-.037,22.8-35.215.046-.074.019-.037.019-.037.019-.037.019-.037.019-.037.019-.037V85.7l.028-.028v-.028l.019-.028V85.59l.019-.028v-.028l.009-.028v-.13l-.009-.019h0l-.009-.028h-.009l-.009-.019h-.009l-.019-.019H204.7l-.019-.009h-.037l-2.46-.074h-.121l-.028.009h-.028l-.028.019h-.028l-.028.019h-.037l-.037.028-.037.019-.037.019-.074.037L184.875,94.4l-2.1,1.123-.046-.046-2.478-2.4-12.874-12.5-.046-.046-.046-.046-.019-.019-.019-.019-.019-.019-.019-.019-.019-.019h-.019l-.019-.028h-.019l-.019-.019H167.1l-.019-.019h-.019l-.019-.009h-.056l-2.766-.139h-.046l-.009.009h-.009V80.2h0v.019h0v.028h0v.084Z" transform="translate(382.21 136.707)" fill="#e2c740"/><g transform="translate(547.134 173.699)"><rect transform="translate(2.748 39.593) rotate(-27.91)" fill="#e2c740"/><rect height="2.126" transform="translate(0 39.39) rotate(-86.1)" fill="#e2c740"/><path d="M186.988,41.81l-1.058,1.875.084-.149Z" transform="translate(-166.489 -34.236)" fill="#e2c740"/><path d="M185.254,43.534l-.2.362,1.272-2.246Z" transform="translate(-166.426 -34.225)" fill="#e2c740"/><path d="M187,40.411l.937-1.661-1.522,2.692.056-.1Z" transform="translate(-166.524 -34.016)" fill="#e2c740"/><path d="M188.664,37.549l-.084.158.975-1.726Z" transform="translate(-166.68 -33.817)" fill="#e2c740"/><path d="M194,41.855l-.343-.975.371,1.04Z" transform="translate(-167.044 -34.169)" fill="#e2c740"/><path d="M188.524,33.687h.009V33.7h.009v.009h0l.009.009h.009v.009h0v.009h.009l.009.019h.009v.019h0v.009h0V33.8l.019.019h.009v.019h0v.009h0l.009.019v.019l.028.037h0v.009h0v.009h0l.009.037v.019l.019.009v.019h.009l.009.037v.028l.019.028v.019l.019.028.678,1.949-.78,1.364-.084.149.863-1.522,13.913,39.884.167.483v.028l.019.028v.028l.019.028V76.6l.009.019h0v.111l.019.009v.149h0v.455l-.009.028v.065h0v.028l-.009.028v.028l-.009.019v.019l-.019.046-.019.046-.019.046-.019.046-.019.046-.019.046-.019.046-.028.046-.028.046-.028.046-.028.037-.028.037-.028.037-.028.037-.028.037-.037.037-.037.037-.037.037-.037.028-.037.028-.037.028-.037.028H202.9l-.019.028h-.019l-.019.028h-.019l-.019.028-1.374.733L186.454,87.2l-1.977,1.049-.325.176-.269.139-.149.074-1.1.585h-.009l2.636-.019h.009l1.086-.585.148-.074.269-.139.325-.176,1.958-1.04,14.851-7.843,1.364-.724h.019l.019-.028h.019l.019-.028h.019l.019-.028.037-.028.037-.028.037-.028.037-.028.037-.037.037-.037.037-.037.028-.037.028-.037.028-.037.028-.037.028-.037.028-.037.028-.046.028-.046.019-.046.019-.046.019-.046.019-.046.019-.046.019-.046.019-.046v-.019l.009-.019v-.028l.019-.028v-.028h0v-.065l.009-.028v-.445h0v-.223l-.019-.019v-.019h0v-.046l-.009-.028v-.028l-.019-.028V76.6l-.176-.483L191.336,34.847v-.028l-.019-.019v-.028l-.019-.028v-.028h-.009l-.009-.028h0l-.009-.037v-.019l-.019-.009h0v-.009h0v-.009l-.019-.028V34.56l-.019-.019h0v-.009h0v-.009h-.009l-.019-.028h0v-.019h0v-.009h0l-.009-.019h-.009l-.009-.019h0V34.42h0l-.009-.009h-.009V34.4h0v-.009h-.009l-.009-.009h-.009l-2.58-.733h.009Zm4.929,6.776.019.037" transform="translate(-166.252 -33.65)" fill="#e2c740"/></g><path d="M164.969,72.625l-.009.167.009.241,16.364-6.042L187.18,33.67l-.306.056-.046.037-.037.028-.056.046-.065.065-.056.065-.056.074-.084.139L166.009,70.518l-.51.9-.13.241-.195.334-.028.065-.056.121-.028.065-.028.093-.009.019v.019l-.028.1V72.5l-.009.009Z" transform="translate(382.151 140.048)" fill="#f4e378" stroke="#e2c740" stroke-miterlimit="10" stroke-width="0.5"/><path d="M164.97,75.612l.009.084.009.084.028.121.037.121.046.121.056.111.056.1.056.093.065.074.065.065,1.049,1L180.331,90.76l.251.241.956.91.009-.009-.213-22.332Z" transform="translate(382.15 137.469)" fill="#f4e378" stroke="#e2c740" stroke-miterlimit="10" stroke-width="0.5"/><path d="M182.6,66.991l21.125,10.655.028-.13.019-.093.009-.046v-.009l.009-.121.009-.028v-.158l-.009-.093-.009-.065-.009-.084-.019-.074-.009-.065-.019-.074-.028-.065-.167-.492-14.6-41.823-.046-.13-.019-.046-.065-.111-.028-.037-.037-.056-.046-.046-.028-.019-.037-.037-.028-.019-.019-.009-.028-.009-.028-.019h-.009l-.065-.019Z" transform="translate(380.884 140.048)" fill="#f4e378" stroke="#e2c740" stroke-miterlimit="10" stroke-width="0.5"/><path d="M182.6,69.57l.213,22.332,1.1-.585.158-.074.269-.148.325-.176,1.977-1.049,14.981-7.954,1.374-.733.084-.046.084-.056.111-.093.1-.1.093-.121.074-.121.074-.13.065-.139.046-.148Z" transform="translate(380.884 137.469)" fill="#f4e378" stroke="#e2c740" stroke-miterlimit="10" stroke-width="0.5"/><path d="M164.14,80.357v.111l.009.084.028.121.028.1.037.111.269.789.51,1.5.343,1.012,12.614,37.22.056.139.046.1.046.065.019.037.046.074.056.065.056.046.046.037.139.074,1.9-25.562L164.678,80.45l-.121-.111-.111-.084-.056-.028-.046-.028h-.037l-.028-.009h-.028l-.019.009h-.009l-.009.009-.009.009-.019.009h0l-.009.019-.009.009v.009l-.019.028v.037Z" transform="translate(382.21 136.706)" fill="#f4e378" stroke="#e2c740" stroke-miterlimit="10" stroke-width="0.5"/><path d="M181.5,96.878l-1.9,25.562.065.009.056.009.056-.009.065-.009.056-.019.056-.028.056-.028.065-.056.065-.065.074-.074.074-.111,22.991-35.7.1-.158.065-.139.037-.093.028-.084.009-.046v-.13l-.009-.009-.009-.019-.009-.009-.009-.019-.009-.009-.009-.009-.019-.009-.028-.009-.037-.009h-.111l-.084.019-.121.046-.186.093L181.521,96.887Z" transform="translate(381.099 136.317)" fill="#f4e378" stroke="#e2c740" stroke-miterlimit="10" stroke-width="0.5"/><circle cx="67.339" cy="67.339" r="67.339" transform="translate(478.333 213.848) rotate(-45)" fill="none" stroke="#00272a" stroke-miterlimit="10" stroke-width="2"/></g></svg>