<svg xmlns="http://www.w3.org/2000/svg" width="22.623" height="19.889" viewBox="0 0 22.623 19.889"><path d="M842.444,4146.992H839.6a1.242,1.242,0,0,1-.482-.016c-.222-.1-.516-.24-.588-.434a.808.808,0,0,1,.167-.7,12.986,12.986,0,0,0,3.632-8.423c.169-1.8.086-3.623.111-5.436.01-.711.207-.919.922-.92,1.015,0,2.03,0,3.058,0,.122-.539-.128-1.317.732-1.3.814.015.6.753.677,1.271H851.1c.077-.516-.151-1.279.7-1.271.812.008.62.732.672,1.27h3.317c.1-.5-.158-1.293.725-1.27.815.023.577.767.671,1.3.985,0,1.956,0,2.926,0,.862,0,1.024.167,1.024,1.04q0,8.273,0,16.546c0,.826-.177,1-1.019,1H843.466c-.861,0-1.022-.167-1.022-1.042C842.443,4148.092,842.444,4147.577,842.444,4146.992Zm-1.795-1.33h.54q7.28,0,14.56.008a.991.991,0,0,0,.833-.38,13.3,13.3,0,0,0,2.946-6.521c.139-.774.2-1.562.293-2.357H843.77A16.311,16.311,0,0,1,840.649,4145.662ZM843.8,4135h15.972v-2.589h-2.6c-.082.53.142,1.291-.712,1.275-.812-.015-.6-.747-.669-1.269h-3.331c-.041.54.143,1.26-.667,1.269-.848.008-.62-.754-.7-1.272h-3.251c-.112.506.133,1.256-.686,1.272-.862.019-.619-.754-.729-1.272H843.8Zm15.977,7.66-.248.506a13.591,13.591,0,0,1-2.242,3.323,1.515,1.515,0,0,1-1.206.51c-3.91-.017-7.82-.01-11.73-.01H843.8v1.3h15.973Z" transform="translate(-838.507 -4129.759)" fill="#9e9e9e"/></svg>