<svg xmlns="http://www.w3.org/2000/svg" width="20.905" height="20.918" viewBox="0 0 20.905 20.918"><g transform="translate(-21.656 -19.556)"><path d="M23.615,93.38a5.732,5.732,0,0,1-.968-.4,2.134,2.134,0,0,1-.988-1.884c-.007-1.647,0-3.294,0-4.941V78.486a2.222,2.222,0,0,1,1.779-2.233,2.9,2.9,0,0,1,.586-.053H36.454A2.236,2.236,0,0,1,38.773,78a3.366,3.366,0,0,1,.046.632V90.923a2.251,2.251,0,0,1-1.91,2.437c-.013,0-.02.013-.033.026Q30.255,93.377,23.615,93.38Zm6.634-1.5h6.225a.758.758,0,0,0,.856-.85v-12.5a.76.76,0,0,0-.85-.843H23.99a1.185,1.185,0,0,0-.264.02.751.751,0,0,0-.586.8V91.068a1.736,1.736,0,0,0,.013.184.72.72,0,0,0,.619.613,2.331,2.331,0,0,0,.3.013Q27.169,91.888,30.249,91.885Z" transform="translate(0 -52.913)" fill="#003d44"/><path d="M84.9,35.527c-.033.125-.059.25-.1.369a2.245,2.245,0,0,1-2.042,1.581.756.756,0,0,1-.837-.659.746.746,0,0,1,.711-.83.758.758,0,0,0,.777-.876V21.923a.761.761,0,0,0-.876-.87H69.371c-.573,0-.817.211-.889.777a.742.742,0,0,1-.817.7.76.76,0,0,1-.679-.843,2.238,2.238,0,0,1,2.273-2.134c2.1-.007,4.2,0,6.3,0h6.963a2.23,2.23,0,0,1,2.352,1.91c.007.02.02.033.026.053Z" transform="translate(-42.344)" fill="#003d44"/></g></svg>