<svg xmlns="http://www.w3.org/2000/svg" xmlns:xlink="http://www.w3.org/1999/xlink" width="45.94" height="45.94" viewBox="0 0 45.94 45.94"><defs><filter id="a" x="5.125" y="5.125" width="40.814" height="40.814" filterUnits="userSpaceOnUse"><feOffset input="SourceAlpha"/><feGaussianBlur stdDeviation="2.657" result="b"/><feFlood flood-opacity="0.502"/><feComposite operator="in" in2="b"/><feComposite in="SourceGraphic"/></filter><filter id="c" x="0" y="0" width="40.814" height="40.814" filterUnits="userSpaceOnUse"><feOffset input="SourceAlpha"/><feGaussianBlur stdDeviation="2.657" result="d"/><feFlood flood-color="#f3feff" flood-opacity="0.702"/><feComposite operator="in" in2="d"/><feComposite in="SourceGraphic"/></filter></defs><g transform="translate(7.97 7.97)"><g transform="matrix(1, 0, 0, 1, -7.97, -7.97)" filter="url(#a)"><path d="M373.183,3899a14.571,14.571,0,1,0,20.607-20.607Z" transform="translate(-360.09 -3865.29)" fill="#f4e478"/></g><g transform="matrix(1, 0, 0, 1, -7.97, -7.97)" filter="url(#c)"><path d="M372.325,3898.139a14.571,14.571,0,0,1,20.607-20.607Z" transform="translate(-360.09 -3865.29)" fill="#f4e478"/></g><circle cx="14.991" cy="14.991" r="14.991" transform="translate(0.019 0)" fill="#f4e478"/><g transform="translate(7.683 6.346)"><g transform="translate(0 0)"><path d="M1.194,5.407a4.177,4.177,0,0,1-.539-.3A1.533,1.533,0,0,1,.03,3.528,1.47,1.47,0,0,1,1.243,2.266,8.581,8.581,0,0,1,2.609,2.2c.374-.008.746,0,1.144,0,.013-.238.018-.447.035-.656A1.6,1.6,0,0,1,5.312.022q2.005-.049,4.011,0a1.6,1.6,0,0,1,1.522,1.559c.01.185,0,.372,0,.616H12.8a1.636,1.636,0,0,1,.644,3.2v10.25a2.4,2.4,0,0,1-.653,1.766,1.968,1.968,0,0,1-1.446.626c-2.688.006-5.374.013-8.061,0a2.155,2.155,0,0,1-2.087-2.29q-.008-4.79,0-9.579V5.405Zm.847.028V15.5a4.2,4.2,0,0,0,.01.422,1.309,1.309,0,0,0,1.306,1.264q3.959.011,7.917,0a1.253,1.253,0,0,0,1.259-1.021,2.455,2.455,0,0,0,.061-.556q0-4.928,0-9.857c0-.1-.013-.2-.02-.321H2.04Zm5.282-.862H8.766c1.372,0,2.744,0,4.116,0,.552,0,.908-.312.9-.77s-.355-.75-.915-.758H1.894a2.638,2.638,0,0,0-.351.01.767.767,0,0,0-.688.69c-.047.481.327.827.91.828q2.778,0,5.558,0ZM9.99,2.18C10.111,1.261,9.823.8,8.807.843c-1.042.04-2.087.04-3.129,0-.7-.027-1.24.365-1,1.338Z" transform="translate(0.002 0.002)" fill="#003d44"/><path d="M49.483,50.741V54.47c0,.1.034.244-.02.309-.112.14-.272.337-.411.336s-.292-.2-.4-.347c-.051-.068-.016-.2-.016-.31V47a2.054,2.054,0,0,1,.007-.28c.034-.239.18-.425.416-.37a.845.845,0,0,1,.4.354c.057.079.018.228.018.344v3.693Z" transform="translate(-41.74 -39.779)" fill="#003d44"/><path d="M67.082,50.7v3.691c0,.118.037.263-.018.345-.1.147-.246.336-.394.354-.12.016-.285-.177-.4-.3-.051-.057-.035-.18-.035-.272q0-3.8,0-7.6a1.456,1.456,0,0,1,0-.176c.035-.263.157-.45.45-.433a.4.4,0,0,1,.388.45c0,.586,0,1.172,0,1.759V50.7Z" transform="translate(-56.855 -39.754)" fill="#003d44"/><path d="M31.088,50.792V47.136c0-.129-.033-.287.03-.378a.674.674,0,0,1,.389-.312c.12-.011.29.149.381.275a.7.7,0,0,1,.044.377q0,3.728,0,7.454v.14c-.007.286-.093.534-.423.535s-.422-.239-.421-.531v-3.9Z" transform="translate(-26.679 -39.869)" fill="#003d44"/></g></g></g></svg>