<svg xmlns="http://www.w3.org/2000/svg" xmlns:xlink="http://www.w3.org/1999/xlink" width="45.94" height="45.94" viewBox="0 0 45.94 45.94"><defs><filter id="a" x="5.125" y="5.125" width="40.814" height="40.814" filterUnits="userSpaceOnUse"><feOffset input="SourceAlpha"/><feGaussianBlur stdDeviation="2.657" result="b"/><feFlood flood-opacity="0.502"/><feComposite operator="in" in2="b"/><feComposite in="SourceGraphic"/></filter><filter id="c" x="0" y="0" width="40.814" height="40.814" filterUnits="userSpaceOnUse"><feOffset input="SourceAlpha"/><feGaussianBlur stdDeviation="2.657" result="d"/><feFlood flood-color="#f3feff" flood-opacity="0.702"/><feComposite operator="in" in2="d"/><feComposite in="SourceGraphic"/></filter></defs><g transform="translate(7.97 7.97)"><g transform="matrix(1, 0, 0, 1, -7.97, -7.97)" filter="url(#a)"><path d="M373.183,3899a14.571,14.571,0,1,0,20.607-20.607Z" transform="translate(-360.09 -3865.29)" fill="#f4e478"/></g><g transform="matrix(1, 0, 0, 1, -7.97, -7.97)" filter="url(#c)"><path d="M372.325,3898.139a14.571,14.571,0,0,1,20.607-20.607Z" transform="translate(-360.09 -3865.29)" fill="#f4e478"/></g><circle cx="14.991" cy="14.991" r="14.991" transform="translate(0.019 0)" fill="#f4e478"/><g transform="translate(6.447 11.448) rotate(-22)"><g transform="translate(0 0)"><path d="M7.537,0l3.022,3.025c-.07.078-.151.176-.243.267Q7.142,6.468,3.96,9.637A1.409,1.409,0,0,1,3.313,10c-.852.2-1.714.358-2.573.523-.643.124-.83-.07-.7-.7C.213,8.946.376,8.071.562,7.2A1.029,1.029,0,0,1,.8,6.71Q4.108,3.38,7.435.07A.7.7,0,0,1,7.537,0Z" transform="translate(0 2.786)" fill="#003d44"/><path d="M0,1.825C.422,1.387.819.907,1.285.5A2.118,2.118,0,0,1,4.122.59a2.1,2.1,0,0,1,.267,2.821c-.412.525-.915.976-1.36,1.441L0,1.825Z" transform="translate(8.531 0)" fill="#234432"/></g></g></g></svg>