<svg xmlns="http://www.w3.org/2000/svg" width="40" height="36" viewBox="0 0 40 36"><g transform="translate(-4 -6)"><path d="M29,6H15.744A1.744,1.744,0,0,0,14,7.744V15H29Z" fill="#169154"/><path d="M14,33.054v7.2A1.744,1.744,0,0,0,15.743,42H29V33.054Z" fill="#18482a"/><path d="M14,15H29v9H14Z" fill="#0c8045"/><path d="M14,24H29v9.05H14Z" fill="#17472a"/><path d="M42.256,6H29v9H44V7.744A1.744,1.744,0,0,0,42.256,6Z" fill="#29c27f"/><path d="M29,33.054V42H42.257A1.744,1.744,0,0,0,44,40.257v-7.2H29Z" fill="#27663f"/><path d="M29,15H44v9H29Z" fill="#19ac65"/><path d="M29,24H44v9.05H29Z" fill="#129652"/><path d="M22.319,34H5.681A1.681,1.681,0,0,1,4,32.319V15.681A1.682,1.682,0,0,1,5.681,14H22.319A1.682,1.682,0,0,1,24,15.681V32.319A1.681,1.681,0,0,1,22.319,34Z" fill="#0c7238"/><path d="M9.807,19h2.386l1.936,3.754L16.175,19H18.4l-3.071,5,3.141,5H16.123l-2.11-3.93L11.912,29H9.526l3.193-5.018Z" fill="#fff"/></g></svg>