<?xml version="1.0" encoding="UTF-8"?><svg id="Layer_2" xmlns="http://www.w3.org/2000/svg" xmlns:xlink="http://www.w3.org/1999/xlink" viewBox="0 0 34.52 35.65"><defs><style>.cls-1{fill:#f3e379;}.cls-2{fill:none;stroke:#023e44;stroke-linecap:round;stroke-miterlimit:10;}.cls-3{filter:url(#drop-shadow-1);}</style><filter id="drop-shadow-1" filterUnits="userSpaceOnUse"><feOffset dx="0" dy="0"/><feGaussianBlur result="blur" stdDeviation="1"/><feFlood flood-color="#000" flood-opacity=".3"/><feComposite in2="blur" operator="in"/><feComposite in="SourceGraphic"/></filter></defs><g id="Layer_1-2"><g><g class="cls-3"><rect class="cls-1" x=".5" y="0" width="33.52" height="8.5" rx="4.25" ry="4.25"/><rect class="cls-1" x=".5" y="26.65" width="33.52" height="8.5" rx="4.25" ry="4.25"/><rect class="cls-1" x=".5" y="13.32" width="33.52" height="8.5" rx="4.25" ry="4.25"/></g><path class="cls-2" d="M34.02,4.25h0c0,2.35-1.9,4.25-4.25,4.25H4.75C2.4,8.5,.5,6.6,.5,4.25H.5"/><path class="cls-2" d="M34.02,30.9h0c0,2.35-1.9,4.25-4.25,4.25H4.75c-2.35,0-4.25-1.9-4.25-4.25H.5"/><path class="cls-2" d="M34.02,17.57h0c0,2.35-1.9,4.25-4.25,4.25H4.75c-2.35,0-4.25-1.9-4.25-4.25H.5"/></g></g></svg>