<svg xmlns="http://www.w3.org/2000/svg" xmlns:xlink="http://www.w3.org/1999/xlink" width="48.451" height="48.451" viewBox="0 0 48.451 48.451"><defs><filter id="a" x="4.903" y="4.903" width="43.548" height="43.548" filterUnits="userSpaceOnUse"><feOffset input="SourceAlpha"/><feGaussianBlur stdDeviation="2.496" result="b"/><feFlood flood-opacity="0.502"/><feComposite operator="in" in2="b"/><feComposite in="SourceGraphic"/></filter><filter id="c" x="0" y="0" width="43.548" height="43.548" filterUnits="userSpaceOnUse"><feOffset input="SourceAlpha"/><feGaussianBlur stdDeviation="2.496" result="d"/><feFlood flood-color="#f3feff" flood-opacity="0.702"/><feComposite operator="in" in2="d"/><feComposite in="SourceGraphic"/></filter></defs><g transform="translate(-39.851 -5.116)"><g transform="translate(-4737.592 -929.781)"><g transform="matrix(1, 0, 0, 1, 4777.44, 934.9)" filter="url(#a)"><path d="M4789.833,970.958a16.738,16.738,0,0,0,23.671-23.671Z" transform="translate(-4777.44 -934.9)" fill="#f4e478"/></g><g transform="matrix(1, 0, 0, 1, 4777.44, 934.9)" filter="url(#c)"><path d="M4789.833,970.958a16.738,16.738,0,1,1,23.671-23.671Z" transform="translate(-4777.44 -934.9)" fill="#f4e478"/></g><circle cx="16.729" cy="16.729" r="16.729" transform="translate(4784.948 942.384)" fill="#f4e478"/></g><g transform="translate(-4737.592 -929.781)"><path d="M4805.465,953.308h0a.843.843,0,0,0,.375.691,7.315,7.315,0,0,1,3.159,6.249,7.334,7.334,0,0,1-14.665-.226A7.315,7.315,0,0,1,4797.5,954a.841.841,0,0,0,.375-.69h0a.831.831,0,0,0-1.295-.689,8.994,8.994,0,1,0,10.181,0A.83.83,0,0,0,4805.465,953.308Z" fill="#003d44"/><rect width="2.391" height="12.049" rx="0.845" transform="translate(4800.474 949.229)" fill="#003d44"/></g></g></svg>