<?xml version="1.0" encoding="UTF-8"?><svg id="Layer_2" xmlns="http://www.w3.org/2000/svg" xmlns:xlink="http://www.w3.org/1999/xlink" viewBox="0 0 64 64"><defs><style>.cls-1,.cls-2,.cls-3{fill:#f4e478;}.cls-4{fill:#234432;}.cls-2{filter:url(#drop-shadow-1);}.cls-3{filter:url(#drop-shadow-2);}</style><filter id="drop-shadow-1" filterUnits="userSpaceOnUse"><feOffset dx="0" dy="0"/><feGaussianBlur result="blur" stdDeviation="5"/><feFlood flood-color="#000" flood-opacity=".5"/><feComposite in2="blur" operator="in"/><feComposite in="SourceGraphic"/></filter><filter id="drop-shadow-2" filterUnits="userSpaceOnUse"><feOffset dx="0" dy="0"/><feGaussianBlur result="blur-2" stdDeviation="5"/><feFlood flood-color="#f3feff" flood-opacity=".7"/><feComposite in2="blur-2" operator="in"/><feComposite in="SourceGraphic"/></filter></defs><g id="Texto"><g><g><path class="cls-2" d="M20.26,43.82c6.43,6.43,16.86,6.43,23.29,0s6.43-16.86,0-23.29l-23.29,23.29Z"/><path class="cls-3" d="M20.26,43.82c-6.43-6.43-6.43-16.86,0-23.29,6.43-6.43,16.86-6.43,23.29,0l-23.29,23.29Z"/><circle class="cls-1" cx="31.92" cy="32.17" r="16.46"/></g><path class="cls-4" d="M32.01,32.17c-1.31-1.37-2.6-2.72-3.89-4.07-.93-.98-.56-2.52,.69-2.92,.72-.23,1.35-.03,1.86,.51,1.3,1.35,2.59,2.71,3.88,4.06,.36,.38,.73,.76,1.09,1.14,.73,.78,.73,1.78,0,2.55-1.66,1.75-3.31,3.5-4.98,5.24-.99,1.03-2.62,.65-3-.69-.19-.67,0-1.25,.48-1.75,1.2-1.26,2.4-2.53,3.61-3.79,.08-.09,.16-.17,.26-.28Z"/></g></g></svg>