<svg xmlns="http://www.w3.org/2000/svg" xmlns:xlink="http://www.w3.org/1999/xlink" width="45.405" height="45.404" viewBox="0 0 45.405 45.404"><defs><filter id="a" x="4.356" y="4.356" width="41.048" height="41.048" filterUnits="userSpaceOnUse"><feOffset input="SourceAlpha"/><feGaussianBlur stdDeviation="2.609" result="b"/><feFlood flood-opacity="0.502"/><feComposite operator="in" in2="b"/><feComposite in="SourceGraphic"/></filter><filter id="c" x="0" y="0" width="41.048" height="41.048" filterUnits="userSpaceOnUse"><feOffset input="SourceAlpha"/><feGaussianBlur stdDeviation="2.609" result="d"/><feFlood flood-color="#f3feff" flood-opacity="0.702"/><feComposite operator="in" in2="d"/><feComposite in="SourceGraphic"/></filter></defs><g transform="translate(-4776.34 -222.802)"><g transform="translate(4784.168 230.63)"><g transform="matrix(1, 0, 0, 1, -7.83, -7.83)" filter="url(#a)"><path d="M4789.294,256.792a14.874,14.874,0,0,0,21.036-21.036Z" transform="translate(-4777.11 -223.57)" fill="#979797"/></g><g transform="matrix(1, 0, 0, 1, -7.83, -7.83)" filter="url(#c)"><path d="M4788.524,256.022a14.875,14.875,0,0,1,21.036-21.036Z" transform="translate(-4776.34 -222.8)" fill="#979797"/></g><circle cx="14.866" cy="14.866" r="14.866" transform="translate(0.016)" fill="#979797"/></g><g transform="translate(4793.878 239.967)"><path d="M1.095.5H6.7a.581.581,0,0,1,.595.595V9H1.35A.852.852,0,0,1,.5,8.15V1.095A.581.581,0,0,1,1.095.5Z" transform="translate(-0.5 -0.5)" fill="none" stroke="#fff" stroke-miterlimit="10" stroke-width="0.8"/><path d="M7.75,1.5l2.635.68a.68.68,0,0,1,.51.935L8.6,10.85,3.5,9.15" transform="translate(-0.95 -0.65)" fill="none" stroke="#fff" stroke-miterlimit="10" stroke-width="0.8"/><path d="M10.385,4.4l2.21,1.7a.694.694,0,0,1,.085,1.02l-5.185,6.2L3.5,9.755" transform="translate(-0.95 -1.085)" fill="none" stroke="#fff" stroke-miterlimit="10" stroke-width="0.8"/><text transform="translate(1.901 6.25)" fill="#fff" font-size="5" font-family="BaiJamjuree-SemiBold, Bai Jamjuree" font-weight="600"><tspan x="0" y="0">$</tspan></text></g></g></svg>