<svg xmlns="http://www.w3.org/2000/svg" xmlns:xlink="http://www.w3.org/1999/xlink" width="50.656" height="50.656" viewBox="0 0 50.656 50.656"><defs><filter id="a" x="5.125" y="5.126" width="45.531" height="45.531" filterUnits="userSpaceOnUse"><feOffset input="SourceAlpha"/><feGaussianBlur stdDeviation="2.609" result="b"/><feFlood flood-opacity="0.502"/><feComposite operator="in" in2="b"/><feComposite in="SourceGraphic"/></filter><filter id="c" x="0" y="0" width="45.531" height="45.531" filterUnits="userSpaceOnUse"><feOffset input="SourceAlpha"/><feGaussianBlur stdDeviation="2.609" result="d"/><feFlood flood-color="#f3feff" flood-opacity="0.702"/><feComposite operator="in" in2="d"/><feComposite in="SourceGraphic"/></filter></defs><g transform="translate(-4776.34 -222.802)"><g transform="matrix(1, 0, 0, 1, 4776.34, 222.8)" filter="url(#a)"><path d="M4789.294,260.505a17.5,17.5,0,0,0,24.749-24.749Z" transform="translate(-4776.34 -222.8)" fill="#f4e478"/></g><g transform="matrix(1, 0, 0, 1, 4776.34, 222.8)" filter="url(#c)"><path d="M4789.294,260.505a17.5,17.5,0,1,1,24.749-24.749Z" transform="translate(-4776.34 -222.8)" fill="#f4e478"/></g><circle cx="17.491" cy="17.491" r="17.491" transform="translate(4784.188 230.63)" fill="#f4e478"/><g transform="translate(4795.092 241.115)"><path d="M1.2.5H7.8a.684.684,0,0,1,.7.7v9.3h-7a1,1,0,0,1-1-1V1.2A.684.684,0,0,1,1.2.5Z" fill="none" stroke="#1d3e44" stroke-miterlimit="10" stroke-width="1"/><path d="M8.5,1.5l3.1.8a.8.8,0,0,1,.6,1.1L9.5,12.5l-6-2" fill="none" stroke="#1d3e44" stroke-miterlimit="10" stroke-width="1"/><path d="M11.6,4.4l2.6,2a.817.817,0,0,1,.1,1.2L8.2,14.9,3.5,10.7" fill="none" stroke="#1d3e44" stroke-miterlimit="10" stroke-width="1"/><text transform="translate(2.147 7.885)" fill="#1d3e44" font-size="7" font-family="BaiJamjuree-SemiBold, Bai Jamjuree" font-weight="600"><tspan x="0" y="0">$</tspan></text></g></g></svg>