<svg xmlns="http://www.w3.org/2000/svg" width="204.118" height="204.073" viewBox="0 0 204.118 204.073"><g transform="translate(-65.72 -49.871)"><path d="M174.962,253.943H160.221c-.268-.536-.8-.357-1.251-.357a99.313,99.313,0,0,1-31.179-7.772A102.006,102.006,0,0,1,74.9,109.663c19.476-43.15,67.271-67.45,113.637-57.623a102.078,102.078,0,0,1,80.225,85.406c.357,2.5.357,5,1.072,7.415V160.05c-.536.268-.357.8-.447,1.251a122.46,122.46,0,0,1-1.965,12.775c-9.2,41.452-43.15,73.078-84.87,78.974C180.054,253.229,177.463,253.139,174.962,253.943ZM167.993,68.926c-45.562-.179-82.9,36.986-83.084,82.726-.179,45.562,36.986,82.9,82.726,83.084,45.562.179,82.9-36.986,83.084-82.726C250.9,106.447,213.734,69.1,167.993,68.926Z" fill="#e08645"/><g transform="translate(126.451 110.535)"><path d="M136.656,197.486h0a9.976,9.976,0,0,1,0-14.026l62.8-62.8a9.976,9.976,0,0,1,14.026,0h0a9.976,9.976,0,0,1,0,14.026l-62.8,62.8A9.815,9.815,0,0,1,136.656,197.486Z" transform="translate(-133.708 -117.775)" fill="#e08645"/><path d="M136.648,120.656h0a9.976,9.976,0,0,1,14.026,0l62.8,62.8a9.976,9.976,0,0,1,0,14.026h0a9.976,9.976,0,0,1-14.026,0l-62.8-62.8A9.815,9.815,0,0,1,136.648,120.656Z" transform="translate(-133.7 -117.775)" fill="#e08645"/></g></g></svg>