<svg xmlns="http://www.w3.org/2000/svg" xmlns:xlink="http://www.w3.org/1999/xlink" width="50.656" height="50.657" viewBox="0 0 50.656 50.657">
  <defs>
    <filter id="Path_18217" x="5.125" y="5.126" width="45.531" height="45.531" filterUnits="userSpaceOnUse">
      <feOffset input="SourceAlpha"/>
      <feGaussianBlur stdDeviation="2.609" result="blur"/>
      <feFlood flood-opacity="0.502"/>
      <feComposite operator="in" in2="blur"/>
      <feComposite in="SourceGraphic"/>
    </filter>
    <filter id="Path_18218" x="0" y="0" width="45.531" height="45.531" filterUnits="userSpaceOnUse">
      <feOffset input="SourceAlpha"/>
      <feGaussianBlur stdDeviation="2.609" result="blur-2"/>
      <feFlood flood-color="#f3feff" flood-opacity="0.702"/>
      <feComposite operator="in" in2="blur-2"/>
      <feComposite in="SourceGraphic"/>
    </filter>
  </defs>
  <g id="Group_10334" data-name="Group 10334" transform="translate(-4773.586 -6348.897)">
    <g id="Group_10332" data-name="Group 10332">
      <g transform="matrix(1, 0, 0, 1, 4773.59, 6348.9)" filter="url(#Path_18217)">
        <path id="Path_18217-2" data-name="Path 18217" d="M4786.539,6386.6a17.5,17.5,0,1,0,24.749-24.748Z" transform="translate(-4773.59 -6348.9)" fill="#f4e478"/>
      </g>
      <g transform="matrix(1, 0, 0, 1, 4773.59, 6348.9)" filter="url(#Path_18218)">
        <path id="Path_18218-2" data-name="Path 18218" d="M4786.539,6386.6a17.5,17.5,0,0,1,24.749-24.748Z" transform="translate(-4773.59 -6348.9)" fill="#f4e478"/>
      </g>
      <circle id="Ellipse_272" data-name="Ellipse 272" cx="17.491" cy="17.491" r="17.491" transform="translate(4781.432 6356.725)" fill="#f4e478"/>
    </g>
    <g id="Profile_1" transform="translate(4789.931 6366.016)">
      <path id="Path_18760" data-name="Path 18760" d="M17.7,13a7.725,7.725,0,0,0-4.6-6.3c-.2-.1-.3-.4-.1-.5a3.192,3.192,0,0,0,.9-3.1A3.452,3.452,0,0,0,11.3.5a3.9,3.9,0,0,0-3.2,1H7.7A3.436,3.436,0,0,0,4.3,4.9a3.168,3.168,0,0,0,.9,2.3.377.377,0,0,1-.1.6A7.716,7.716,0,0,0,.5,14H14.9a4.4,4.4,0,0,0-.2-1Z" fill="none" stroke="#234432" stroke-miterlimit="10" stroke-width="1.5"/>
      <path id="Path_18761" data-name="Path 18761" d="M14.9,14.1a7.394,7.394,0,0,0-4.6-6.2.423.423,0,0,1-.1-.7,3.168,3.168,0,0,0,.9-2.3A3.289,3.289,0,0,0,7.8,1.5" fill="none" stroke="#234432" stroke-miterlimit="10" stroke-width="1.5"/>
    </g>
  </g>
</svg>
