<svg xmlns="http://www.w3.org/2000/svg" xmlns:xlink="http://www.w3.org/1999/xlink" width="50.656" height="50.657" viewBox="0 0 50.656 50.657"><defs><filter id="a" x="5.125" y="5.126" width="45.531" height="45.53" filterUnits="userSpaceOnUse"><feOffset input="SourceAlpha"/><feGaussianBlur stdDeviation="2.609" result="b"/><feFlood flood-opacity="0.502"/><feComposite operator="in" in2="b"/><feComposite in="SourceGraphic"/></filter><filter id="c" x="0" y="0" width="45.531" height="45.53" filterUnits="userSpaceOnUse"><feOffset input="SourceAlpha"/><feGaussianBlur stdDeviation="2.609" result="d"/><feFlood flood-color="#f3feff" flood-opacity="0.702"/><feComposite operator="in" in2="d"/><feComposite in="SourceGraphic"/></filter></defs><g transform="translate(-4776.34 -281.484)"><g transform="matrix(1, 0, 0, 1, 4776.34, 281.48)" filter="url(#a)"><path d="M4789.294,319.186a17.5,17.5,0,0,0,24.749-24.748Z" transform="translate(-4776.34 -281.48)" fill="#f4e478"/></g><g transform="matrix(1, 0, 0, 1, 4776.34, 281.48)" filter="url(#c)"><path d="M4789.294,319.186a17.5,17.5,0,1,1,24.749-24.748Z" transform="translate(-4776.34 -281.48)" fill="#f4e478"/></g><circle cx="17.491" cy="17.491" r="17.491" transform="translate(4784.188 289.312)" fill="#f4e478"/><g transform="translate(4795.625 298.515)"><path d="M1.324.2h9.3a1.129,1.129,0,0,1,1.147,1.121V16.393H1.324A1.084,1.084,0,0,1,.3,15.4V1.321A.962.962,0,0,1,1.324.2Z" fill="none" stroke="#1e3e44" stroke-miterlimit="10" stroke-width="1"/><line x2="6.853" transform="translate(2.601 2.609)" fill="none" stroke="#1e3e44" stroke-linecap="round" stroke-miterlimit="10" stroke-width="1"/><line x2="6.853" transform="translate(2.601 4.726)" fill="none" stroke="#1e3e44" stroke-linecap="round" stroke-miterlimit="10" stroke-width="1"/><line x2="6.853" transform="translate(2.601 7.175)" fill="none" stroke="#1e3e44" stroke-linecap="round" stroke-miterlimit="10" stroke-width="1"/><line x2="6.853" transform="translate(2.601 9.542)" fill="none" stroke="#1e3e44" stroke-linecap="round" stroke-miterlimit="10" stroke-width="1"/><line x2="3.883" transform="translate(2.601 11.908)" fill="none" stroke="#1e3e44" stroke-linecap="round" stroke-miterlimit="10" stroke-width="1"/><line x2="3.883" transform="translate(2.601 14.109)" fill="none" stroke="#1e3e44" stroke-linecap="round" stroke-miterlimit="10" stroke-width="1"/><path d="M5.8,11.482l.8-1.256,1.256,1.028L11.4,6l1.256.914-4.34,6.4Z" transform="translate(1.976 2.17)" fill="#1e3e44"/></g></g></svg>