<svg xmlns="http://www.w3.org/2000/svg" width="30.026" height="30.026" viewBox="0 0 30.026 30.026"><g transform="translate(14560.674 -13894.461)"><circle cx="15.013" cy="15.013" r="15.013" transform="translate(-14560.674 13894.461)" fill="#979797"/><g transform="translate(-14550.612 13902.533)"><path d="M1.177.2H9.161a.969.969,0,0,1,.984.962V14.1H1.177A.931.931,0,0,1,.3,13.244V1.162A.825.825,0,0,1,1.177.2Z" transform="translate(-0.285 -0.2)" fill="none" stroke="#fff" stroke-miterlimit="10" stroke-width="1"/><line x2="5.882" transform="translate(1.989 2.068)" fill="none" stroke="#fff" stroke-linecap="round" stroke-miterlimit="10" stroke-width="1"/><line x2="5.882" transform="translate(1.989 3.885)" fill="none" stroke="#fff" stroke-linecap="round" stroke-miterlimit="10" stroke-width="1"/><line x2="5.882" transform="translate(1.989 5.987)" fill="none" stroke="#fff" stroke-linecap="round" stroke-miterlimit="10" stroke-width="1"/><line x2="5.882" transform="translate(1.989 8.019)" fill="none" stroke="#fff" stroke-linecap="round" stroke-miterlimit="10" stroke-width="1"/><line x2="3.333" transform="translate(1.989 10.05)" fill="none" stroke="#fff" stroke-linecap="round" stroke-miterlimit="10" stroke-width="1"/><line x2="3.333" transform="translate(1.989 11.939)" fill="none" stroke="#fff" stroke-linecap="round" stroke-miterlimit="10" stroke-width="1"/><path d="M5.8,10.706l.686-1.078,1.078.882L10.6,6l1.078.784-3.725,5.49Z" transform="translate(0.63 0.841)" fill="#fff"/></g></g></svg>