<?xml version="1.0" encoding="UTF-8"?><svg id="Layer_2" xmlns="http://www.w3.org/2000/svg" viewBox="0 0 26.77 26.77"><defs><style>.cls-1{fill:#6a7575;}</style></defs><g id="Vectores"><g><path class="cls-1" d="M15.57,13.29l-3.53-1.92c-.14-.08-.64,.02-.64,.19v3.74c0,.16,.49,.27,.64,.19l3.69-1.82c.15-.08,0-.3-.15-.38Z"/><path class="cls-1" d="M13.39,0C5.99,0,0,5.99,0,13.39s5.99,13.39,13.39,13.39,13.39-5.99,13.39-13.39S20.78,0,13.39,0Zm7.17,15.3c0,1.78-1.44,3.21-3.21,3.21H9.12c-1.78,0-3.21-1.44-3.21-3.21v-3.83c0-1.78,1.44-3.21,3.21-3.21h8.22c1.78,0,3.21,1.44,3.21,3.21v3.83Z"/></g></g></svg>