<?xml version="1.0" encoding="UTF-8"?><svg id="Layer_2" xmlns="http://www.w3.org/2000/svg" viewBox="0 0 26.77 26.77"><defs><style>.cls-1{fill:#6a7575;}</style></defs><g id="Vectores"><path class="cls-1" d="M13.39,0C5.99,0,0,5.99,0,13.39s5.99,13.39,13.39,13.39,13.39-5.99,13.39-13.39S20.78,0,13.39,0Zm7.46,8.81s0,.13-.08,.23c-.34,.46-.71,.87-1.17,1.21-.07,.05-.18,.1-.18,.2,0,2.41-.62,4.82-2.37,6.56-2.24,2.22-5.6,2.83-8.58,2.01-.58-.16-1.13-.38-1.66-.66-.18-.1-.35-.19-.52-.31-.04-.03-.07-.07-.04-.09,.04-.02,.06-.02,.2,0,.83,.08,1.69-.04,2.48-.32,.43-.15,1.36-.46,1.63-.87,0,0,.01,0,.02-.02-.11-.03-.22-.03-.33-.04-.81-.23-1.89-.64-2.39-2-.03-.08,0-.12,.08-.11,.67,.05,.91,.02,1.14-.04-.13-.02-.26-.07-.39-.12-1.02-.39-1.77-1.38-1.9-2.46-.02-.12-.03-.23-.02-.34,0-.08,.04-.11,.11-.06,.52,.27,1.11,.34,1.16,.33-.13-.1-.25-.21-.37-.33-.88-.84-1.23-2.54-.52-3.6,.06-.09,.1-.09,.17,0,1.62,1.84,3.61,2.7,6.02,3.06,.06,0,.07,0,.06-.07-.06-.42-.07-.84,.03-1.26,.11-.43,.31-.84,.59-1.19,.27-.34,.61-.61,1-.81,.38-.2,.8-.32,1.23-.35,.44-.03,.89,.04,1.3,.21,.31,.13,.59,.3,.85,.52,.05,.04,.1,.1,.15,.16,.03,.03,.07,.04,.12,.03,.61-.15,1.19-.37,1.75-.67,.03-.01,.05-.02,.08,0,.03,.02,.02,.05,0,.08-.1,.33-.28,.63-.49,.89-.14,.17-.49,.6-.73,.64,.5-.08,1.01-.21,1.48-.42,.06-.03,.06-.04,.06,0h0Z"/></g></svg>