<?xml version="1.0" encoding="UTF-8"?><svg id="Layer_2" xmlns="http://www.w3.org/2000/svg" viewBox="0 0 26.77 26.77"><defs><style>.cls-1{fill:#6a7575;}</style></defs><g id="Vectores"><g><path class="cls-1" d="M13.99,6.85c-3.44,0-6.24,2.8-6.24,6.24,0,1.14,.32,2.25,.91,3.23l.16,.27-.62,2.32,2.34-.63,.26,.16c.97,.58,2.07,.88,3.18,.88,3.44,0,6.24-2.8,6.24-6.24s-2.8-6.24-6.24-6.24Zm3.66,8.59c-.23,.56-.81,.93-1.39,1.04-.56,.11-1.02-.07-1.54-.24-.46-.15-.91-.37-1.32-.63-.83-.51-1.54-1.18-2.12-1.96-.18-.24-.34-.49-.49-.74-.2-.34-.38-.69-.47-1.08-.04-.16-.06-.32-.06-.49,0-.58,.21-1.16,.67-1.54,.26-.22,.66-.31,.95-.14,.32,.18,.49,.64,.64,.97,.12,.25,.25,.58,.2,.87s-.27,.52-.45,.73c-.12,.14-.14,.26-.04,.42,.59,.99,1.42,1.7,2.49,2.13,.15,.06,.26,.04,.35-.08,.19-.23,.37-.68,.65-.79,.37-.15,.78,.06,1.1,.25,.29,.18,.79,.39,.87,.76,.04,.18,0,.36-.06,.53Z"/><path class="cls-1" d="M13.39,0C5.99,0,0,5.99,0,13.39s5.99,13.39,13.39,13.39,13.39-5.99,13.39-13.39S20.78,0,13.39,0Zm.61,20.77c-1.27,0-2.53-.32-3.65-.93l-4.19,1.12,1.12-4.16c-.63-1.14-.96-2.42-.96-3.71,0-4.24,3.45-7.69,7.69-7.69s7.69,3.45,7.69,7.69-3.45,7.69-7.69,7.69Z"/></g></g></svg>