<?xml version="1.0" encoding="UTF-8"?><svg id="Layer_2" xmlns="http://www.w3.org/2000/svg" viewBox="0 0 26.77 26.77"><defs><style>.cls-1{fill:#6a7575;}</style></defs><g id="Vectores"><g><path class="cls-1" d="M16.52,7h-6.27c-1.79,0-3.24,1.45-3.24,3.24v6.27c0,1.79,1.45,3.24,3.24,3.24h6.27c1.79,0,3.24-1.45,3.24-3.24v-6.27c0-1.79-1.45-3.24-3.24-3.24Zm-3.07,10.24c-2.13,0-3.87-1.73-3.87-3.87s1.73-3.87,3.87-3.87,3.87,1.73,3.87,3.87-1.73,3.87-3.87,3.87Zm4.09-7.07c-.51,0-.92-.41-.92-.92s.41-.92,.92-.92,.92,.41,.92,.92-.41,.92-.92,.92Z"/><path class="cls-1" d="M13.45,10.89c-1.37,0-2.48,1.11-2.48,2.48s1.11,2.48,2.48,2.48,2.48-1.11,2.48-2.48-1.11-2.48-2.48-2.48Z"/><path class="cls-1" d="M13.39,0C5.99,0,0,5.99,0,13.39s5.99,13.39,13.39,13.39,13.39-5.99,13.39-13.39S20.78,0,13.39,0Zm7.85,16.5c0,2.6-2.12,4.71-4.71,4.71h-6.27c-2.6,0-4.71-2.11-4.71-4.71v-6.27c0-2.6,2.11-4.71,4.71-4.71h6.27c2.6,0,4.71,2.11,4.71,4.71v6.27Z"/></g></g></svg>