<svg xmlns="http://www.w3.org/2000/svg" width="87.254" height="55.641" viewBox="0 0 87.254 55.641"><g transform="translate(-807.891 -1791.263)"><g transform="translate(0 -1155.318)"><path d="M851.352,2994.239a14.618,14.618,0,0,1-2.466-29.025,13.956,13.956,0,0,1,13.829,5.22c3.546,4.375,4.183,9.328,2.242,14.609-.076.207-.129.483-.285.586a1.2,1.2,0,0,1-.839.247c-.167-.046-.278-.464-.322-.731-.028-.166.11-.362.181-.541a13.3,13.3,0,1,0-14.174,8.166,13.807,13.807,0,0,0,6.923-.86,1.876,1.876,0,0,1,.944-.136c.156.027.4.42.354.554a1.284,1.284,0,0,1-.582.7A14.22,14.22,0,0,1,851.352,2994.239Z" fill="#8e8e8e"/><path d="M869.123,2993.759c1.505,1.5,2.915,2.908,4.321,4.318.733.735.732.885.006,1.617q-.993,1-2,1.995c-.725.716-.873.715-1.618-.029-1.409-1.406-2.813-2.818-4.3-4.311-.7,1.4-1.343,2.734-2.044,4.038a4.013,4.013,0,0,1-.822.818c-.26-.314-.648-.588-.759-.948q-2.225-7.16-4.365-14.346c-.1-.332-.14-.9.04-1.044a1.43,1.43,0,0,1,1.116-.085q7.187,2.143,14.35,4.358a3.516,3.516,0,0,1,.925.7,3.962,3.962,0,0,1-.836.889C871.857,2992.422,870.537,2993.05,869.123,2993.759Zm-10.094-6.5,3.8,12.481c.683-1.353,1.242-2.491,1.831-3.614.359-.685.736-.742,1.3-.216.5.474.984.973,1.472,1.463,1.068,1.072,2.133,2.145,3.074,3.091l1.866-1.7c-.216-.179-.444-.34-.639-.534q-1.974-1.959-3.935-3.934c-.683-.69-.618-1.042.254-1.5.467-.241.939-.472,1.408-.708l2.062-1.033Z" fill="#8e8e8e"/><path d="M850.5,2962.328c12.963,0,21.361,12.18,17.029,23.429-.07.18-.09.427-.221.527a5.253,5.253,0,0,1-.858.442c-.117-.32-.385-.673-.324-.954.315-1.453.864-2.867,1.061-4.332a15.927,15.927,0,0,0-26.539-13.626c-.373.326-.755.807-1.257.27s-.041-.9.339-1.237A16.841,16.841,0,0,1,850.5,2962.328Z" fill="#8e8e8e"/><path d="M834.09,2978.885a16.739,16.739,0,0,1,3.2-9.275,1.854,1.854,0,0,1,.813-.607c.13-.05.537.21.55.355a1.433,1.433,0,0,1-.218.9,16.885,16.885,0,0,0-2.761,6.515,15.981,15.981,0,0,0,13.667,18.661,16.468,16.468,0,0,0,7.9-.982,1.88,1.88,0,0,1,1.008-.067c.133.028.317.452.255.609a1.042,1.042,0,0,1-.589.589,31.818,31.818,0,0,1-5.55,1.253C842.421,2997.467,834.079,2989.518,834.09,2978.885Z" fill="#8e8e8e"/><path d="M848.722,2976.293a2.666,2.666,0,0,0,2.719,2.656,4.007,4.007,0,0,1,3.922,4.18,3.91,3.91,0,0,1-2.685,3.548c-.546.177-.686.424-.642.935a3.559,3.559,0,0,1-.023,1.237c-.078.278-.4.487-.619.726-.227-.227-.675-.49-.645-.675.234-1.425-.345-2.174-1.654-2.768a3.311,3.311,0,0,1-1.7-2.884c-.048-.484.036-.932.632-.96.536-.025.647.364.7.829a2.653,2.653,0,0,0,5.3-.323,2.675,2.675,0,0,0-2.773-2.517,4.044,4.044,0,0,1-3.679-2.762,3.945,3.945,0,0,1,1.314-4.326,2.241,2.241,0,0,1,.921-.536c.9-.14.985-.7.9-1.428a1.829,1.829,0,0,1,.023-.9c.125-.272.441-.457.673-.679.208.219.541.411.6.665a4.845,4.845,0,0,1,.026,1.4c-.037.466.127.65.586.807a3.886,3.886,0,0,1,2.715,3.263c.08.492.141,1.083-.573,1.155-.655.066-.688-.449-.75-.949a2.654,2.654,0,0,0-5.291.3Z" fill="#8e8e8e"/></g><g transform="translate(0 -1155.318)" opacity="0.5"><path d="M822.116,2946.581a14.224,14.224,0,1,0,14.225,14.225A14.225,14.225,0,0,0,822.116,2946.581Zm0,26.211a11.986,11.986,0,1,1,11.986-11.986A11.987,11.987,0,0,1,822.116,2972.792Z" fill="#c6c6c6"/><path d="M826.142,2960.929a2.154,2.154,0,0,1,.792,1.724v1.089a2.579,2.579,0,0,1-.99,2.1,4.332,4.332,0,0,1-2.64.874v1.551H821.06v-1.551a3.737,3.737,0,0,1-2.764-1.039,3.847,3.847,0,0,1-1-2.805h2.244a1.944,1.944,0,0,0,.437,1.345,1.549,1.549,0,0,0,1.213.487h1.831a2.072,2.072,0,0,0,1.18-.306.938.938,0,0,0,.454-.816v-.561q0-.809-1.188-1.007l-3.036-.511a4.326,4.326,0,0,1-2.252-.949,2.316,2.316,0,0,1-.767-1.79v-.924a2.591,2.591,0,0,1,.453-1.5,3.063,3.063,0,0,1,1.279-1.039,4.712,4.712,0,0,1,1.914-.4v-1.551H823.3v1.551a3.589,3.589,0,0,1,2.483,1.039,3.443,3.443,0,0,1,.932,2.508h-2.244a1.6,1.6,0,0,0-.379-1.114,1.292,1.292,0,0,0-1.007-.42h-1.864a1.9,1.9,0,0,0-1.114.3.924.924,0,0,0-.42.792v.445q0,.825,1.138,1.023l3.02.528A4.815,4.815,0,0,1,826.142,2960.929Z" fill="#c6c6c6"/></g><g transform="translate(0 -1155.318)" opacity="0.5"><path d="M880.919,2946.581a14.224,14.224,0,1,0,14.226,14.225A14.225,14.225,0,0,0,880.919,2946.581Zm0,26.211a11.986,11.986,0,1,1,11.986-11.986A11.986,11.986,0,0,1,880.919,2972.792Z" fill="#c6c6c6"/><path d="M884.946,2960.929a2.156,2.156,0,0,1,.791,1.724v1.089a2.581,2.581,0,0,1-.989,2.1,4.337,4.337,0,0,1-2.641.874v1.551h-2.244v-1.551a3.733,3.733,0,0,1-2.763-1.039,3.843,3.843,0,0,1-1-2.805h2.244a1.939,1.939,0,0,0,.437,1.345,1.546,1.546,0,0,0,1.213.487h1.831a2.075,2.075,0,0,0,1.18-.306.94.94,0,0,0,.454-.816v-.561q0-.809-1.188-1.007l-3.036-.511a4.333,4.333,0,0,1-2.253-.949,2.319,2.319,0,0,1-.767-1.79v-.924a2.585,2.585,0,0,1,.454-1.5,3.051,3.051,0,0,1,1.279-1.039,4.708,4.708,0,0,1,1.913-.4v-1.551h2.244v1.551a3.594,3.594,0,0,1,2.484,1.039,3.444,3.444,0,0,1,.932,2.508h-2.244a1.6,1.6,0,0,0-.38-1.114,1.29,1.29,0,0,0-1.006-.42h-1.864a1.891,1.891,0,0,0-1.114.3.923.923,0,0,0-.421.792v.445q0,.825,1.139,1.023l3.019.528A4.819,4.819,0,0,1,884.946,2960.929Z" fill="#c6c6c6"/></g></g></svg>