<svg xmlns="http://www.w3.org/2000/svg" width="50.874" height="54.859" viewBox="0 0 50.874 54.859"><g transform="translate(-1134.717 -1787.609)"><g transform="translate(1136.131 1788.609)"><path d="M49.649,3l-13.2,19.073L21.773,7.4,5.634,29.409,2.7,26.474" transform="translate(-2.7 -0.946)" fill="none" stroke="#8e8e8e" stroke-linecap="round" stroke-linejoin="round" stroke-miterlimit="10" stroke-width="2"/><path d="M16,7.288,24.8,2.3v9.977" transform="translate(23.026 -2.3)" fill="none" stroke="#8e8e8e" stroke-linecap="round" stroke-linejoin="round" stroke-miterlimit="10" stroke-width="2"/></g><path d="M36.451,12.728a14.758,14.758,0,0,0-7.923,2.347A14.787,14.787,0,0,0,17.378,9.5a14.378,14.378,0,1,0,0,28.756A14.758,14.758,0,0,0,25.3,35.909a14.787,14.787,0,0,0,11.15,5.575,14.378,14.378,0,0,0,0-28.756Z" transform="translate(1134.011 1800.234)" fill="#fff" stroke="#c6c6c6" stroke-miterlimit="10" stroke-width="1.5"/><circle cx="14.378" cy="14.378" r="14.378" transform="translate(1156.084 1812.669)" fill="none" stroke="#8e8e8e" stroke-miterlimit="10" stroke-width="1.5"/><text transform="translate(1145.221 1829.786)" fill="#c6c6c6" font-size="17" font-family="BaiJamjuree-Bold, Bai Jamjuree" font-weight="700"><tspan x="0" y="0">$</tspan></text><text transform="translate(1164.333 1832.956)" fill="#8e8e8e" font-size="17" font-family="BaiJamjuree-Bold, Bai Jamjuree" font-weight="700"><tspan x="0" y="0">$</tspan></text></g></svg>