<?xml version="1.0" encoding="utf-8"?>
<!-- Generator: Adobe Illustrator 26.5.0, SVG Export Plug-In . SVG Version: 6.00 Build 0)  -->
<svg version="1.1" id="Layer_1" xmlns="http://www.w3.org/2000/svg" xmlns:xlink="http://www.w3.org/1999/xlink" x="0px" y="0px"
	 viewBox="0 0 24 27.4" style="enable-background:new 0 0 24 27.4;" xml:space="preserve">
<style type="text/css">
	.st0{fill:#2975CA;}
</style>
<path class="st0" d="M24,12.9c0-0.3,0-0.6-0.1-0.9c-0.1-0.5-0.2-1-0.3-1.5c-0.8-3-2.9-5.6-5.6-7.2c-1.1-0.6-2.2-1-3.4-1.3
	c-0.4-0.1-0.8-0.1-1.1-0.2c-0.3,0-0.5,0-0.8-0.1c-0.2,0-0.4,0-0.6,0c-0.3,0-0.6,0-0.8,0c-0.2,0-0.5,0-0.7,0.1C10,1.9,9.5,2,9.1,2.1
	c-3,0.7-5.5,2.6-7.2,5.1C1.2,8.4,0.6,9.7,0.3,11c-0.1,0.4-0.2,0.8-0.2,1.2c0,0.3,0,0.5-0.1,0.8c0,0.2,0,0.3,0,0.5c0,0,0,0.1,0,0.1
	v0.1c0,0,0,0.1,0,0.1c0,0.2,0,0.4,0,0.6c0,0.3,0,0.5,0.1,0.8c0.1,0.5,0.2,1,0.3,1.5c0.9,3.4,3.2,6.2,6.3,7.7
	c0.8,0.4,1.7,0.7,2.6,0.9c0.4,0.1,0.7,0.1,1.1,0.2c0.2,0,0.4,0,0.7,0.1s0.5,0,0.7,0c0,0,0,0,0.1,0h0.1l0,0c0,0,0,0,0.1,0
	c0.3,0,0.5,0,0.8,0c2.1-0.2,4.2-0.9,5.9-2.1c1.5-1.1,2.8-2.4,3.6-4c0.5-1,0.9-2,1.2-3.1c0.1-0.4,0.2-0.8,0.2-1.2
	c0-0.2,0.1-0.5,0.1-0.7c0-0.3,0-0.5,0-0.8S24,13.2,24,12.9z M9.8,22c0,0.1-0.1,0.2-0.1,0.3c0,0-0.1,0.1-0.2,0.1c-0.1,0-0.1,0-0.2,0
	c-0.9-0.3-1.7-0.7-2.4-1.2c-0.8-0.5-1.4-1.2-2-1.9c-0.6-0.8-1.1-1.7-1.4-2.7c-0.2-0.5-0.3-1-0.4-1.5C3,14.9,3,14.6,3,14.3
	c0-0.2,0-0.3,0-0.5h0l0,0c0-0.3,0-0.6,0.1-0.9c0.1-1.5,0.7-2.9,1.5-4.2c0.6-0.9,1.4-1.7,2.3-2.3c0,0,0,0,0.1,0
	C7,6.3,7.2,6.2,7.4,6.1C7.5,6,7.6,5.9,7.8,5.9c0,0,0,0,0,0c0,0,0,0,0,0c0.4-0.2,0.9-0.4,1.4-0.6c0,0,0.1,0,0.2-0.1
	c0.2,0,0.3,0.1,0.4,0.2c0,0.1,0,0.1,0,0.2c0,0.2,0,0.5,0,0.7c0,0.2-0.1,0.3-0.2,0.4c0,0-0.1,0.1-0.1,0.1c0,0,0,0,0,0c0,0,0,0,0,0
	c0,0,0,0,0,0C9.2,6.9,9,7,8.8,7.1C8.1,7.4,7.6,7.8,7,8.3C6.2,9,5.6,9.9,5.1,11c-0.2,0.5-0.4,1-0.5,1.6c0,0.2-0.1,0.5-0.1,0.7
	c0,0.3,0,0.6,0,0.9c0,0.4,0.1,0.8,0.2,1.2c0.2,1.1,0.7,2.1,1.4,3c0.6,0.8,1.4,1.5,2.4,2c0.3,0.2,0.6,0.3,0.9,0.4
	c0.2,0.1,0.4,0.3,0.4,0.5V22z M12.9,18.3C12.8,18.3,12.8,18.3,12.9,18.3c-0.1,0.5-0.1,0.8-0.1,1.2c0,0,0,0,0,0c0,0,0,0,0,0
	c0,0,0,0,0,0c0,0.2-0.2,0.4-0.4,0.4c0,0,0,0,0,0c-0.2,0-0.4,0-0.7,0c-0.1,0-0.3-0.1-0.4-0.2c-0.1-0.1-0.1-0.2-0.1-0.2c0,0,0,0,0,0
	c0,0,0,0,0,0c0-0.4,0-0.7,0-1.1c0-0.1,0-0.1-0.1-0.1c-0.3,0-0.6-0.1-0.9-0.2c-0.6-0.2-1.1-0.7-1.4-1.3c-0.1-0.3-0.2-0.6-0.3-0.9
	c0,0,0,0,0,0c0,0,0,0,0,0c0,0,0-0.1,0-0.1c0,0,0,0,0,0c0,0,0,0,0,0c0-0.2,0.2-0.3,0.4-0.3c0.3,0,0.5,0,0.8,0c0.2,0,0.3,0.1,0.4,0.3
	c0,0.2,0.1,0.4,0.2,0.6c0.2,0.3,0.5,0.5,0.8,0.6c0.2,0.1,0.5,0.1,0.7,0.1c0.3,0,0.5,0,0.8-0.1c0.4-0.1,0.7-0.4,0.9-0.7
	c0.1-0.2,0.1-0.5,0.1-0.7c0-0.4-0.3-0.7-0.6-0.8c-0.3-0.1-0.6-0.2-0.9-0.3c-0.3-0.1-0.7-0.1-1-0.2c-0.4-0.1-0.9-0.2-1.3-0.4
	c-0.6-0.3-1-0.9-1.1-1.5c0-0.2,0-0.4,0-0.7c0,0,0,0,0,0c0,0,0,0,0,0c0-0.5,0.2-1,0.5-1.3c0.4-0.5,1-0.8,1.6-0.9c0.1,0,0.2,0,0.2,0
	c0.1,0,0.1,0,0.1-0.1v-1c0-0.2,0.1-0.4,0.3-0.4c0,0,0.1,0,0.1,0h0.7c0,0,0,0,0,0c0.2,0,0.4,0.2,0.4,0.4c0,0,0,0,0,0c0,0,0,0,0,0v0.5
	l0,0c0,0.2,0,0.4,0,0.5c0,0,0,0.1,0.1,0.1c0.4,0,0.8,0.2,1.1,0.4c0.6,0.4,1,0.9,1.1,1.6c0,0,0,0.1,0,0.1c0,0,0,0,0,0
	c0,0.1-0.1,0.3-0.2,0.3c0,0-0.1,0-0.1,0c-0.3,0-0.5,0-0.8,0c-0.2,0-0.3-0.1-0.4-0.3c-0.1-0.2-0.1-0.3-0.3-0.5
	c-0.2-0.3-0.5-0.4-0.8-0.5c-0.4-0.1-0.9-0.1-1.3,0c-0.3,0.1-0.5,0.3-0.7,0.5c-0.1,0.1-0.1,0.3-0.1,0.5c0,0.1,0,0.2,0,0.4
	c0,0.3,0.2,0.5,0.4,0.6c0.3,0.1,0.6,0.2,0.9,0.3c0.3,0.1,0.7,0.1,1,0.2c0.5,0.1,1,0.2,1.4,0.4c0.4,0.2,0.7,0.5,0.9,0.9
	c0.1,0.2,0.2,0.5,0.2,0.7c0,0.2,0,0.3,0,0.5c0,0,0,0,0,0c0,0,0,0,0,0c0,0.5-0.2,1.1-0.5,1.5c-0.4,0.5-0.9,0.8-1.5,1
	C13.2,18.2,13,18.2,12.9,18.3z M21,13.9c0,0.3,0,0.6-0.1,0.9c0,0.3-0.1,0.7-0.2,1c0,0,0,0.1,0,0.1c-0.1,0.3-0.1,0.6-0.2,0.9
	c0,0,0,0.1,0,0.1c-0.2,0.6-0.5,1.2-0.9,1.8c0,0,0,0,0,0c0,0,0,0,0,0c-0.4,0.6-0.9,1.2-1.4,1.7c-0.1,0.1-0.2,0.2-0.3,0.3
	c0,0-0.1,0-0.1,0.1c-0.3,0.3-0.7,0.5-1.1,0.8c0,0,0,0-0.1,0c-0.4,0.2-0.8,0.4-1.2,0.6c-0.2,0.1-0.5,0.2-0.7,0.3c0,0-0.1,0-0.1,0.1
	c0,0,0,0,0,0c0,0,0,0,0,0c0,0,0,0,0,0c0,0-0.1,0-0.1,0c-0.1,0-0.2-0.1-0.3-0.3c0,0,0-0.1,0-0.1v-0.7c0-0.3,0.1-0.5,0.4-0.5
	c0.8-0.3,1.6-0.8,2.2-1.3c0.7-0.6,1.3-1.3,1.7-2.2c0-0.1,0.1-0.2,0.1-0.3c0.1-0.2,0.2-0.3,0.2-0.5c0-0.1,0.1-0.2,0.1-0.3
	c0.1-0.2,0.1-0.3,0.2-0.5c0-0.1,0.1-0.2,0.1-0.4c0-0.2,0.1-0.3,0.1-0.5c0-0.1,0-0.3,0.1-0.4c0-0.3,0-0.6,0-0.9
	c0-0.8-0.2-1.5-0.5-2.2c-0.3-0.8-0.8-1.6-1.3-2.3c-0.5-0.6-1.2-1.2-1.9-1.6c-0.4-0.2-0.7-0.4-1.1-0.5c-0.2-0.1-0.4-0.3-0.4-0.6V5.6
	c0-0.1,0.1-0.2,0.1-0.3c0,0,0.1-0.1,0.1-0.1c0.1,0,0.1,0,0.2,0c0.8,0.3,1.6,0.7,2.4,1.2c1.2,0.8,2.2,1.9,2.9,3.2
	c0.4,0.8,0.7,1.7,0.9,2.5c0.1,0.3,0.1,0.6,0.1,1C21,13.3,21,13.6,21,13.9L21,13.9z"/>
</svg>
