<svg xmlns="http://www.w3.org/2000/svg" xmlns:xlink="http://www.w3.org/1999/xlink" width="46.154" height="46.154" viewBox="0 0 46.154 46.154"><defs><filter id="a" x="4.466" y="4.467" width="41.687" height="41.687" filterUnits="userSpaceOnUse"><feOffset input="SourceAlpha"/><feGaussianBlur stdDeviation="2.609" result="b"/><feFlood flood-opacity="0.502"/><feComposite operator="in" in2="b"/><feComposite in="SourceGraphic"/></filter><filter id="c" x="0" y="0" width="41.687" height="41.687" filterUnits="userSpaceOnUse"><feOffset input="SourceAlpha"/><feGaussianBlur stdDeviation="2.609" result="d"/><feFlood flood-color="#f3feff" flood-opacity="0.702"/><feComposite operator="in" in2="d"/><feComposite in="SourceGraphic"/></filter></defs><g transform="translate(-4773.586 -6348.897)"><g transform="translate(4781.414 6356.725)"><g transform="matrix(1, 0, 0, 1, -7.83, -7.83)" filter="url(#a)"><path d="M4786.539,6383.415a15.248,15.248,0,0,0,21.565-21.564Z" transform="translate(-4774.24 -6349.56)" fill="#979797"/></g><g transform="matrix(1, 0, 0, 1, -7.83, -7.83)" filter="url(#c)"><path d="M4785.879,6382.755a15.248,15.248,0,1,1,21.565-21.564Z" transform="translate(-4773.59 -6348.9)" fill="#979797"/></g><circle cx="15.24" cy="15.24" r="15.24" transform="translate(0.016 0)" fill="#979797"/></g><g transform="translate(4789.271 6365.217)"><path d="M15.487,11.386A6.731,6.731,0,0,0,11.479,5.9c-.174-.087-.261-.349-.087-.436a2.781,2.781,0,0,0,.784-2.7A3.008,3.008,0,0,0,9.911.494a3.4,3.4,0,0,0-2.788.871H6.774A2.994,2.994,0,0,0,3.811,4.328a2.76,2.76,0,0,0,.784,2,.328.328,0,0,1-.087.523A6.723,6.723,0,0,0,.5,12.257H13.047a3.835,3.835,0,0,0-.174-.871Z" transform="translate(-0.5 -0.456)" fill="none" stroke="#fff" stroke-miterlimit="10" stroke-width="1.5"/><path d="M13.987,12.479a6.443,6.443,0,0,0-4.008-5.4.368.368,0,0,1-.087-.61,2.76,2.76,0,0,0,.784-2A2.866,2.866,0,0,0,7.8,1.5" transform="translate(-1.439 -0.59)" fill="none" stroke="#fff" stroke-miterlimit="10" stroke-width="1.5"/></g></g></svg>