<svg xmlns="http://www.w3.org/2000/svg" width="17.729" height="11.298" viewBox="0 0 17.729 11.298"><path d="M17.734,5.751a3.716,3.716,0,0,1-.258.425,15.764,15.764,0,0,1-4.44,3.911,8.523,8.523,0,0,1-3.7,1.195,7.393,7.393,0,0,1-3.153-.5,12.755,12.755,0,0,1-4.051-2.6A16.821,16.821,0,0,1,.2,6.093.618.618,0,0,1,.2,5.2,15.752,15.752,0,0,1,4.685,1.219,8.157,8.157,0,0,1,9.179.007a7.941,7.941,0,0,1,3.168.841,15.239,15.239,0,0,1,5.214,4.38,2.113,2.113,0,0,1,.173.316v.208Zm-1.322-.092c-.064-.076-.109-.136-.16-.189-.543-.557-1.062-1.141-1.638-1.663a10.664,10.664,0,0,0-3.731-2.291A6.033,6.033,0,0,0,8.261,1.2,7.8,7.8,0,0,0,5.1,2.335,14.7,14.7,0,0,0,1.7,5.227c-.122.136-.238.278-.37.433.344.371.667.739,1.011,1.088a12.509,12.509,0,0,0,3.9,2.794,6.7,6.7,0,0,0,2.354.578,6.851,6.851,0,0,0,3.5-.853,13,13,0,0,0,3.282-2.486c.355-.36.689-.742,1.039-1.121Z" transform="translate(-0.006 0)" fill="#003d44"/><path d="M98.875,40.263a3.5,3.5,0,1,1-3.482-3.516A3.5,3.5,0,0,1,98.875,40.263Zm-1.168-.022a2.336,2.336,0,1,0-2.322,2.345A2.338,2.338,0,0,0,97.706,40.241Z" transform="translate(-86.508 -34.602)" fill="#003d44"/></svg>