<?xml version="1.0" encoding="utf-8"?>
<!-- Generator: Adobe Illustrator 26.5.0, SVG Export Plug-In . SVG Version: 6.00 Build 0)  -->
<svg version="1.1" id="Layer_1" xmlns="http://www.w3.org/2000/svg" xmlns:xlink="http://www.w3.org/1999/xlink" x="0px" y="0px"
	 viewBox="0 0 29 26.7" style="enable-background:new 0 0 29 26.7;" xml:space="preserve">
<style type="text/css">
	.st0{fill:none;stroke:#C6C6C6;stroke-width:1.5;stroke-linecap:round;stroke-linejoin:round;stroke-miterlimit:10;}
	.st1{fill:none;stroke:#C6C6C6;stroke-width:1.5;stroke-miterlimit:10;}
	.st2{fill:none;stroke:#C6C6C6;stroke-width:1.0006;stroke-miterlimit:10.0062;}
</style>
<g transform="translate(0.25 0.511)">
	<path class="st0" d="M3,4.8l16.8-4.2c0,0,5.8-2.1,3.9,4.2H3z"/>
	<path class="st1" d="M3.7,4.8H28v20.7H0.5V8C0.5,6.2,1.9,4.8,3.7,4.8z"/>
	<path class="st2" d="M3,5.9l24.2,8.8c0.5,0.2,0.8,0.8,0.6,1.3l-0.5,1.4c-0.2,0.5-0.8,0.8-1.3,0.6L1.8,9.2C1.3,9,1,8.4,1.2,7.9
		l0.5-1.4C1.9,6,2.4,5.8,3,5.9z"/>
</g>
</svg>
